<?xml version="1.0" encoding="UTF-8"?>
<svg version="1.1" xmlns="http://www.w3.org/2000/svg" width="400" height="400">
<path d="M0 0 C0.495 0.99 0.495 0.99 1 2 C1.99 2 2.98 2 4 2 C4 2.99 4 3.98 4 5 C3.34 5.33 2.68 5.66 2 6 C2.99 8.97 2.99 8.97 4 12 C3.505 12.433125 3.01 12.86625 2.5 13.3125 C0.66781808 14.99740483 0.66781808 14.99740483 1 18 C2.32 18.66 3.64 19.32 5 20 C5 20.66 5 21.32 5 22 C5.56847656 21.95359375 6.13695312 21.9071875 6.72265625 21.859375 C12.77605926 21.57641125 16.0543655 22.46740393 21 26 C21.99 27.485 21.99 27.485 23 29 C24.85495961 29.71901317 24.85495961 29.71901317 26.9375 30.0625 C30.02210282 30.66788934 31.25621426 31.1708095 34 33 C36.64632287 32.6878236 36.64632287 32.6878236 39 32 C38.896875 30.906875 38.79375 29.81375 38.6875 28.6875 C39 25 39 25 41 23 C45.92878653 21.35707116 49.83357226 21.96570547 54.421875 24.15625 C56.10875569 25.0573167 57.79494667 25.95967571 59.48046875 26.86328125 C62.68027328 28.30691399 65.49487397 28.6189984 68.96875 28.80859375 C71 29 71 29 74.25 30.25 C75.1575 30.4975 76.065 30.745 77 31 C78.67419438 30.0126546 80.34051852 29.01187895 82 28 C85.5 28.25 85.5 28.25 89 29 C89.886875 29.165 90.77375 29.33 91.6875 29.5 C93.80140922 29.95706145 95.90181762 30.47545441 98 31 C98.33 36.28 98.66 41.56 99 47 C98.01 47.495 98.01 47.495 97 48 C98.52299844 51.73134617 100.0691416 55.19491789 102.1875 58.625 C104 62 104 62 103.9375 64.6875 C103.9684375 65.8321875 103.9684375 65.8321875 104 67 C105.64639965 68.35827971 107.31295807 69.69254251 109 71 C109 72.32 109 73.64 109 75 C109.66 75 110.32 75 111 75 C111.01417969 75.66386719 111.02835938 76.32773438 111.04296875 77.01171875 C111.38486332 83.34138852 112.26173469 85.60843703 117 90 C117.6328125 91.93359375 117.6328125 91.93359375 118.0625 94.0625 C118.82697203 97.82823261 119.87879726 99.59221503 123 102 C123.804375 102.474375 124.60875 102.94875 125.4375 103.4375 C130.12472389 106.29556335 133.59606093 110.05856968 136 115 C135.67 115.66 135.34 116.32 135 117 C135.99 117.33 136.98 117.66 138 118 C138.33 118.66 138.66 119.32 139 120 C139.68964844 119.86722656 140.37929688 119.73445313 141.08984375 119.59765625 C146.40092927 118.59955101 151.63612909 117.74683147 157.02734375 117.34375 C159.07329663 117.08822738 159.07329663 117.08822738 161.00390625 115.96875 C163 115 163 115 167 115 C168.23196772 118.95989625 168.4394909 120.95781964 166.80078125 124.84375 C162.80709654 132.19290346 162.80709654 132.19290346 160 135 C159.608125 136.010625 159.21625 137.02125 158.8125 138.0625 C155.35082498 146.38782843 148.82921958 152.38515407 142 158 C137.29212021 161.95426438 133.03690928 165.87208458 129.2265625 170.71484375 C128.82179688 171.13894531 128.41703125 171.56304687 128 172 C127.34 172 126.68 172 126 172 C125.67 172.99 125.34 173.98 125 175 C124.34 175 123.68 175 123 175 C121.07794619 179.58335908 119.54269924 184.27934033 118 189 C118.66 189.66 119.32 190.32 120 191 C119.979375 192.051875 119.95875 193.10375 119.9375 194.1875 C120.0072836 198.44429987 120.82878206 202.82878206 124 206 C125.2696297 215.87489765 126.29430504 225.13111645 120.125 233.5625 C117.55205423 235.30302214 116.04611136 235.33845682 113 235 C112.67 235.99 112.34 236.98 112 238 C110.29296875 239.6484375 110.29296875 239.6484375 108.1875 241.375 C105.05526857 244.02361939 102.42516704 246.66539533 100 250 C100.66 250 101.32 250 102 250 C103.45584669 252.91169338 103.50896784 255.70538285 103.8125 258.9375 C103.94269531 260.18402344 104.07289063 261.43054688 104.20703125 262.71484375 C104 266 104 266 102.27734375 267.8671875 C98.89663182 269.54884524 95.68831819 270.20086439 92 271 C92.350625 271.54785156 92.70125 272.09570312 93.0625 272.66015625 C94.60709019 276.51519594 93.26900054 279.53082408 92.125 283.38671875 C91.00228867 285.99468361 90.23235539 287.08131435 88 288.75 C84.82386471 291.13210147 84.35401065 292.54639522 82.92919922 296.09228516 C79.68267449 302.75764096 72.60318421 309.57609106 65.7578125 312.28125 C62.77938617 312.79660112 60.01993166 313.02169491 57 313 C56.2471875 313.00386719 55.494375 313.00773437 54.71875 313.01171875 C54.0484375 313.00785156 53.378125 313.00398438 52.6875 313 C48.75181179 313 45.74745831 313.86869183 42 315 C39.4375 315.5625 39.4375 315.5625 37 315 C34.4181574 312.97755663 32.44948375 310.94877794 31 308 C31.03244054 306.0332924 31.06736425 304.0664474 31.13354492 302.10058594 C30.90148459 298.4504085 29.14734154 295.71603372 27.3125 292.625 C26.57629751 291.31018989 25.84062059 289.99508535 25.10546875 288.6796875 C24.40424557 287.45278203 23.70247044 286.22619177 23 285 C17.47648901 275.15910449 15.63056563 266.26774829 16 255 C15.34 255 14.68 255 14 255 C13.75765625 254.33613281 13.5153125 253.67226563 13.265625 252.98828125 C11.22760375 247.37964336 11.22760375 247.37964336 7.75 242.625 C4.82877607 238.24316411 5.39540137 233.11096748 6 228 C6.63670713 226.65210302 7.29834104 225.31525546 8 224 C7.938125 223.05125 7.87625 222.1025 7.8125 221.125 C8.07022011 216.82966484 10.26654815 215.21180592 13 212 C13.65813592 208.62705341 13.29513648 207.4604129 11.4375 204.5625 C10 202 10 202 10.5625 199.0625 C11.16690106 194.83169257 9.38417571 193.43601793 7 190 C6.64456573 187.66993089 6.3086247 185.33672984 6 183 C4.5420814 181.20614008 4.5420814 181.20614008 3 180 C3 179.34 3 178.68 3 178 C2.236875 177.731875 1.47375 177.46375 0.6875 177.1875 C-1.97814654 176.00965618 -3.21292999 175.24808227 -5 173 C-5.328125 171.01171875 -5.328125 171.01171875 -5.25 168.6875 C-5.22679687 167.81480469 -5.20359375 166.94210938 -5.1796875 166.04296875 C-4.90089804 161.32172982 -4.48388453 156.61304182 -4.0234375 151.90625 C-4.01570313 150.9471875 -4.00796875 149.988125 -4 149 C-7.36493744 145.63506256 -12.13671735 146.75331244 -16.71484375 146.734375 C-17.79894531 146.49203125 -18.88304687 146.2496875 -20 146 C-21.71875 143.01953125 -21.71875 143.01953125 -23 140 C-29.46434435 138.07203765 -34.83790002 139.5154588 -41 142 C-41.99 142.66 -42.98 143.32 -44 144 C-46.2265625 144.23046875 -46.2265625 144.23046875 -48.625 144.1875 C-49.42164062 144.18105469 -50.21828125 144.17460937 -51.0390625 144.16796875 C-53 144 -53 144 -54 143 C-60.11881176 143.04609274 -64.56146808 144.21749529 -70 147 C-74.70191042 146.68708827 -78.17026736 144.27860553 -82 141.75 C-82.60328125 141.36714844 -83.2065625 140.98429688 -83.828125 140.58984375 C-91.0386472 135.90300432 -95.70984103 129.85120534 -100.71875 122.9375 C-102.96451133 120.04569773 -105.39729045 117.56800675 -108 115 C-110 112 -110 112 -110.9375 108.4375 C-111.67850977 104.75850594 -111.67850977 104.75850594 -115 103 C-115 102.34 -115 101.68 -115 101 C-114.20335937 100.79761719 -113.40671875 100.59523438 -112.5859375 100.38671875 C-109.72527252 99.22979805 -109.72527252 99.22979805 -109.0390625 96.20703125 C-107.88273317 87.55347251 -107.88273317 87.55347251 -109 79 C-109.66 78.34 -110.32 77.68 -111 77 C-111.3125 73.5625 -111.3125 73.5625 -111 70 C-109.625 68.4375 -109.625 68.4375 -108 67 C-107.67 65.989375 -107.34 64.97875 -107 63.9375 C-106 61 -106 61 -103 59 C-102.5875 58.154375 -102.175 57.30875 -101.75 56.4375 C-98.43140595 49.91883313 -94.99838612 44.55287041 -88 42 C-85.59299898 40.29973545 -83.62622564 38.4690141 -82 36 C-82.2475 34.63875 -82.2475 34.63875 -82.5 33.25 C-83.21706933 28.58904937 -81.36753943 26.19772527 -78.890625 22.3203125 C-76.51795221 19.4083959 -74.04549627 17.96789764 -70.76953125 16.2265625 C-67.72938977 14.11926796 -67.0817596 11.44810872 -66 8 C-62 9 -62 9 -60.1875 9.5625 C-57.78958373 10.11644396 -57.78958373 10.11644396 -54.4375 10 C-51 10 -51 10 -48 11 C-47.67 10.01 -47.34 9.02 -47 8 C-38.84742782 3.37197418 -29.34153573 1.7645536 -20.08984375 1.9921875 C-17.00019819 2.00373758 -14.04240952 1.50706825 -11 1 C-7.2395614 0.42637377 -3.81023096 0 0 0 Z " fill="#009BC5" transform="translate(165,45)"/>
<path d="M0 0 C3.29171585 4.08172765 4.20297867 8.83854229 4 14 C2 17 2 17 1 18 C0.30096864 20.66214444 -0.35986237 23.32380416 -1 26 C-1.3309901 27.31048989 -1.66425345 28.62040813 -2 29.9296875 C-2.33344789 31.24476263 -2.66677926 32.5598673 -3 33.875 C-3.26598999 34.91599854 -3.26598999 34.91599854 -3.53735352 35.97802734 C-4.51218032 39.84764442 -5.31003673 43.68094514 -5.9375 47.625 C-6.97699782 53.08926288 -9.46292343 56.23173451 -14.0625 59.4375 C-16.57966355 60.16828942 -17.61376927 60.11854565 -20 59 C-23.4940317 55.31148286 -24.69019431 52.43691713 -25.4375 47.4375 C-25.62183594 46.32246094 -25.80617188 45.20742188 -25.99609375 44.05859375 C-26.00065345 40.4883499 -25.26646714 39.63112151 -23 37 C-22.23511023 32.82787397 -21.97328197 29.0366495 -22.125 24.8125 C-21.98753927 20.61994761 -21.81903679 19.07531286 -19 16 C-11.83934426 12 -11.83934426 12 -8 12 C-7.34 9.69 -6.68 7.38 -6 5 C-5.34 5 -4.68 5 -4 5 C-4 3.68 -4 2.36 -4 1 C-2 0 -2 0 0 0 Z " fill="#009BC5" transform="translate(325,258)"/>
</svg>
