<?xml version="1.0" encoding="UTF-8"?>
<svg version="1.1" xmlns="http://www.w3.org/2000/svg" width="250" height="361">
<path d="M0 0 C3.125 -0.1875 3.125 -0.1875 6 0 C6.495 2.475 6.495 2.475 7 5 C7.66 5 8.32 5 9 5 C9.33 3.68 9.66 2.36 10 1 C11.32 1 12.64 1 14 1 C14 2.32 14 3.64 14 5 C14.94875 5.0825 15.8975 5.165 16.875 5.25 C17.90625 5.4975 18.9375 5.745 20 6 C21.1953125 8.046875 21.1953125 8.046875 22 10 C23.17369141 9.98259766 23.17369141 9.98259766 24.37109375 9.96484375 C25.88896484 9.95130859 25.88896484 9.95130859 27.4375 9.9375 C28.44683594 9.92589844 29.45617187 9.91429687 30.49609375 9.90234375 C33 10 33 10 34 11 C37 11.16666667 37 11.16666667 40 11 C40.33 10.67 40.66 10.34 41 10 C43.18292774 9.76518307 45.37203174 9.58636677 47.5625 9.4375 C48.76003906 9.35371094 49.95757812 9.26992187 51.19140625 9.18359375 C52.11824219 9.12300781 53.04507813 9.06242188 54 9 C54 9.99 54 10.98 54 12 C53.34 12.33 52.68 12.66 52 13 C52.62648438 13.18175781 53.25296875 13.36351562 53.8984375 13.55078125 C54.71570313 13.80214844 55.53296875 14.05351562 56.375 14.3125 C57.18710938 14.55613281 57.99921875 14.79976562 58.8359375 15.05078125 C61 16 61 16 63 19 C64.485 19.495 64.485 19.495 66 20 C66 20.66 66 21.32 66 22 C66.598125 22.061875 67.19625 22.12375 67.8125 22.1875 C70 23 70 23 71.1875 25.25 C73.86591414 29.31380077 77.71058146 30.88676445 82 33 C82 33.66 82 34.32 82 35 C82.78503906 34.97679687 83.57007813 34.95359375 84.37890625 34.9296875 C95.89005834 34.73194992 104.17151003 37.22985709 113 45 C114.64821308 48.66691787 115 50.94836886 115 55 C116.32 55.33 117.64 55.66 119 56 C120.23076923 61.41538462 120.23076923 61.41538462 119.0625 64.375 C118.711875 64.91125 118.36125 65.4475 118 66 C119.32 66.66 120.64 67.32 122 68 C122 68.66 122 69.32 122 70 C122.66 69.67 123.32 69.34 124 69 C125.99960012 68.960008 128.00047242 68.95653201 130 69 C130 69.33 130 69.66 130 70 C131.01320312 70.07347656 131.01320312 70.07347656 132.046875 70.1484375 C132.93890625 70.22320312 133.8309375 70.29796875 134.75 70.375 C135.63171875 70.44460937 136.5134375 70.51421875 137.421875 70.5859375 C139.99066382 70.99850055 141.75841015 71.71160957 144 73 C144 73.66 144 74.32 144 75 C144.99 75 145.98 75 147 75 C147.24363281 75.63550781 147.48726562 76.27101563 147.73828125 76.92578125 C148.80582612 79.14092353 148.80582612 79.14092353 150.91796875 79.79296875 C151.66691406 79.92316406 152.41585937 80.05335937 153.1875 80.1875 C154.39599609 80.40599609 154.39599609 80.40599609 155.62890625 80.62890625 C156.41136719 80.75136719 157.19382813 80.87382813 158 81 C159.794375 81.309375 159.794375 81.309375 161.625 81.625 C164.99790005 82.11456409 164.99790005 82.11456409 168.375 81.6875 C174.69443629 82.23227899 179.05931074 86.43901081 183.875 90.3125 C185.98368784 92.18474473 185.98368784 92.18474473 189 93 C189 93.66 189 94.32 189 95 C191.64 95 194.28 95 197 95 C198.74531208 102.46432579 200.41900355 109.74298934 197.9375 117.1875 C195.79529511 120.29715226 193.47721822 122.38496798 190.5234375 124.703125 C188.86534396 125.94333073 188.86534396 125.94333073 188 128 C187.34 128 186.68 128 186 128 C185.7525 128.7425 185.505 129.485 185.25 130.25 C183.8864843 133.24973455 182.54127785 134.92077267 180 137 C179.01 137 178.02 137 177 137 C176.85304687 138.43279297 176.85304687 138.43279297 176.703125 139.89453125 C175.85582453 147.22075862 174.72238806 153.67284174 171.94140625 160.55859375 C171.05030865 162.86953152 170.45946623 165.08316476 169.9375 167.5 C168.99972864 171.00101308 168.62016623 171.78293627 166 174 C162.63512487 178.61696183 162.63512487 178.61696183 161 184 C159.02 184.33 157.04 184.66 155 185 C154.67 185.99 154.34 186.98 154 188 C150.04 188 146.08 188 142 188 C142 188.66 142 189.32 142 190 C141.19175781 190.32613281 140.38351563 190.65226563 139.55078125 190.98828125 C138.48214844 191.42527344 137.41351563 191.86226562 136.3125 192.3125 C135.25675781 192.74175781 134.20101562 193.17101562 133.11328125 193.61328125 C127.29929124 196.17613148 127.29929124 196.17613148 123.1875 200.8125 C121.93675811 204.16975455 121.92462022 206.4571505 122 210 C121 212.875 121 212.875 120 215 C119.34 215 118.68 215 118 215 C118 215.99 118 216.98 118 218 C117.0409375 218.433125 117.0409375 218.433125 116.0625 218.875 C113.84793921 219.82823451 113.84793921 219.82823451 113 222 C112.34 222 111.68 222 111 222 C110.979375 222.845625 110.95875 223.69125 110.9375 224.5625 C109.63138666 229.35158225 106.74119253 231.8636192 103 235 C102.34 235.33 101.68 235.66 101 236 C99.88365848 237.65051288 99.88365848 237.65051288 98.875 239.5625 C97.946875 241.2640625 97.946875 241.2640625 97 243 C96.34 243 95.68 243 95 243 C94.6596875 244.3921875 94.6596875 244.3921875 94.3125 245.8125 C93 249 93 249 90.9375 250.9375 C86.80321258 252.43288056 83.25108712 251.90199884 79 251 C78.34 250.67 77.68 250.34 77 250 C77 249.34 77 248.68 77 248 C76.01 248 75.02 248 74 248 C74 248.66 74 249.32 74 250 C74.99 250.33 75.98 250.66 77 251 C77 252.65 77 254.3 77 256 C77.66 256.33 78.32 256.66 79 257 C78.05181347 266.48186528 78.05181347 266.48186528 76 269 C70.4704238 271.7647881 65.88666809 273.14324563 59.75 273.0625 C58.85796875 273.05347656 57.9659375 273.04445313 57.046875 273.03515625 C56.03367188 273.01775391 56.03367188 273.01775391 55 273 C54.96261719 273.69867188 54.92523438 274.39734375 54.88671875 275.1171875 C54.82097656 276.02726562 54.75523438 276.93734375 54.6875 277.875 C54.62949219 278.77992188 54.57148437 279.68484375 54.51171875 280.6171875 C54 283 54 283 51 285 C47.3125 284.625 47.3125 284.625 44 284 C44.99 285.485 44.99 285.485 46 287 C46.99 287 47.98 287 49 287 C49.33 288.98 49.66 290.96 50 293 C48.68 293 47.36 293 46 293 C45.01 298.94 45.01 298.94 44 305 C43.05125 305.309375 42.1025 305.61875 41.125 305.9375 C38.13919592 306.87394742 38.13919592 306.87394742 36 308 C36.66 309.98 37.32 311.96 38 314 C39.65 314.33 41.3 314.66 43 315 C43.3125 317.6875 43.3125 317.6875 43 321 C41.37660195 322.70884005 39.70680947 324.37446717 38 326 C37.27648573 327.98014432 36.59734611 329.97821315 36 332 C35.34 332.33 34.68 332.66 34 333 C33.76571687 337.7897321 33.76571687 337.7897321 36 342 C36.165 343.03125 36.33 344.0625 36.5 345.125 C36.665 346.07375 36.83 347.0225 37 348 C37.66 348.33 38.32 348.66 39 349 C39 349.99 39 350.98 39 352 C42.96697886 353.80317221 46.6822542 354.49202991 51 355 C51 355.99 51 356.98 51 358 C50.36191406 358.13277344 49.72382812 358.26554687 49.06640625 358.40234375 C48.24011719 358.57894531 47.41382812 358.75554687 46.5625 358.9375 C45.73878906 359.11152344 44.91507812 359.28554688 44.06640625 359.46484375 C42.02338796 359.80752994 42.02338796 359.80752994 41 361 C39.07421875 361.16796875 39.07421875 361.16796875 36.6875 361.1875 C35.90761719 361.20167969 35.12773438 361.21585937 34.32421875 361.23046875 C31.77177325 360.97736911 30.20971467 360.26740564 28 359 C27.34 358.67 26.68 358.34 26 358 C26 357.34 26 356.68 26 356 C25.34 356 24.68 356 24 356 C24 355.34 24 354.68 24 354 C22.68 353.67 21.36 353.34 20 353 C20 352.34 20 351.68 20 351 C19.34 351 18.68 351 18 351 C18 350.01 18 349.02 18 348 C17.0409375 347.6596875 17.0409375 347.6596875 16.0625 347.3125 C14 346 14 346 13.25 343.375 C13.1675 342.59125 13.085 341.8075 13 341 C12.34 341 11.68 341 11 341 C11 340.34 11 339.68 11 339 C10.34 339 9.68 339 9 339 C9 337.68 9 336.36 9 335 C8.57369157 333.5253482 8.09094342 332.06620934 7.5625 330.625 C5.16992213 323.65332572 5.16992213 323.65332572 5 320 C6.4375 317.625 6.4375 317.625 8 316 C6.68 315.67 5.36 315.34 4 315 C4.33 311.7 4.66 308.4 5 305 C5.66 305 6.32 305 7 305 C6.67 303.35 6.34 301.7 6 300 C6.66 300 7.32 300 8 300 C7.67 299.34 7.34 298.68 7 298 C6.34 298 5.68 298 5 298 C4.97291433 296.39592672 4.95356517 294.7917215 4.9375 293.1875 C4.92589844 292.29417969 4.91429687 291.40085937 4.90234375 290.48046875 C5 288 5 288 6 285 C6.08021999 283.59175107 6.10765977 282.18002769 6.09765625 280.76953125 C6.09443359 279.96708984 6.09121094 279.16464844 6.08789062 278.33789062 C6.07951172 277.50451172 6.07113281 276.67113281 6.0625 275.8125 C6.05798828 274.96751953 6.05347656 274.12253906 6.04882812 273.25195312 C6.03705403 271.16793845 6.0191189 269.08396023 6 267 C5.34 267 4.68 267 4 267 C3.75 261.375 3.75 261.375 6 258 C9.51085177 247.09703374 9.97545269 236.23538718 8 225 C7.47544477 219.58295849 8.1849503 214.83510491 9.5 209.5625 C11.50468805 201.45864312 11.4219231 194.17605784 10 186 C10.66 186 11.32 186 12 186 C11.67 185.34 11.34 184.68 11 184 C10.56147559 180.67974377 10.18453272 177.36007522 9.83789062 174.02929688 C9.0269752 166.90247109 7.64252975 162.90464403 2.125 158.41015625 C-0.92558752 156.3857774 -4.14516498 155.19117186 -7.56640625 153.92578125 C-13.30191311 151.74389501 -17.01912108 149.53591799 -20 144 C-20.70125 143.525625 -21.4025 143.05125 -22.125 142.5625 C-24.76352897 140.36372586 -24.51671256 138.31397105 -25 135 C-25.97904243 133.97947272 -26.98172312 132.98138279 -28 132 C-29.17578125 130.16015625 -29.17578125 130.16015625 -30.3125 128.0625 C-30.95251953 126.886875 -30.95251953 126.886875 -31.60546875 125.6875 C-33.68879958 121.67256551 -35.63787447 117.59336295 -37.5703125 113.50390625 C-38.89812204 110.74471396 -38.89812204 110.74471396 -42 109 C-42.2475 108.195625 -42.495 107.39125 -42.75 106.5625 C-44.61573737 102.73773839 -47.0620292 102.38558232 -51 101 C-51.05406122 99.06280622 -51.09282025 97.12518079 -51.125 95.1875 C-51.14820313 94.10855469 -51.17140625 93.02960938 -51.1953125 91.91796875 C-51 89 -51 89 -49 86 C-48.01 86 -47.02 86 -46 86 C-46 85.01 -46 84.02 -46 83 C-46.66 82.608125 -47.32 82.21625 -48 81.8125 C-50 80 -50 80 -50.265625 78.03125 C-50.25145376 76.01893442 -50.1316756 74.00805287 -50 72 C-48.515 71.505 -48.515 71.505 -47 71 C-46.896875 69.72125 -46.79375 68.4425 -46.6875 67.125 C-46.51171875 64.9453125 -46.51171875 64.9453125 -46 63 C-43 61 -43 61 -39 61 C-39 59.68 -39 58.36 -39 57 C-38.34 57 -37.68 57 -37 57 C-36.938125 56.21625 -36.87625 55.4325 -36.8125 54.625 C-36.544375 53.75875 -36.27625 52.8925 -36 52 C-33.5 50.875 -33.5 50.875 -31 50 C-28.95672678 43.87018034 -29.4166342 36.31243232 -30.6875 30 C-31 27 -31 27 -29.6875 24.0625 C-29.130625 23.381875 -28.57375 22.70125 -28 22 C-27.34 22 -26.68 22 -26 22 C-26 21.01 -26 20.02 -26 19 C-24.68 18.67 -23.36 18.34 -22 18 C-22 17.34 -22 16.68 -22 16 C-21.34 15.34 -20.68 14.68 -20 14 C-19.79375 13.21625 -19.5875 12.4325 -19.375 11.625 C-17.29333293 7.65090832 -14.09817577 6.53323359 -10 5 C-8.5483606 4.61932533 -7.08986067 4.26361862 -5.625 3.9375 C-1.76437367 3.36877498 -1.76437367 3.36877498 0 0 Z M2 6 C2.66 6.66 3.32 7.32 4 8 C4.66 7.34 5.32 6.68 6 6 C4.68 6 3.36 6 2 6 Z M114 67 C115 69 115 69 115 69 Z M11 294 C10.67 295.65 10.34 297.3 10 299 C10.66 299 11.32 299 12 299 C12 297.35 12 295.7 12 294 C11.67 294 11.34 294 11 294 Z " fill="#009BC5" transform="translate(51,0)"/>
<path d="M0 0 C1.65 0 3.3 0 5 0 C5.33 1.32 5.66 2.64 6 4 C4.35 4 2.7 4 1 4 C0.67 2.68 0.34 1.36 0 0 Z " fill="#009BC5" transform="translate(67,0)"/>
</svg>
