<?xml version="1.0" encoding="UTF-8"?>
<svg version="1.1" xmlns="http://www.w3.org/2000/svg" width="400" height="400">
<path d="M0 0 C0.33 0.66 0.66 1.32 1 2 C0.0625 4.625 0.0625 4.625 -1 7 C-0.34 7.33 0.32 7.66 1 8 C0.49396008 10.16874252 0.00016187 11.99967627 -1 14 C1.01822917 14.45572917 3.03645833 14.91145833 5.0546875 15.3671875 C7 16 7 16 9 18 C8.94921875 19.8828125 8.94921875 19.8828125 8.6875 22.125 C8.61698935 26.11846708 9.32758479 28.10566202 11.875 31.1875 C15.4296877 34.8294193 19.41869736 37.33674373 23.86328125 39.7734375 C26 41 26 41 28 43 C28.09696805 44.56004473 28.12978728 46.12445187 28.125 47.6875 C28.36231066 51.03890762 28.6076742 52.55019971 30.83984375 55.109375 C32.28342505 56.29671427 33.76489318 57.43991481 35.28515625 58.52734375 C35.85105469 59.01332031 36.41695313 59.49929687 37 60 C37 60.99 37 61.98 37 63 C36.34 63 35.68 63 35 63 C35 63.66 35 64.32 35 65 C33.35 64.67 31.7 64.34 30 64 C31.47180164 67.92480438 33.30190242 71.5508656 35.29296875 75.23046875 C35.52628906 75.81441406 35.75960938 76.39835937 36 77 C35.67 77.66 35.34 78.32 35 79 C38.96703004 79.9051376 38.96703004 79.9051376 42.9296875 79.46875 C45.42381943 78.90404088 46.9187288 79.2781851 49.375 79.9375 C53.25618729 80.97294043 55.71303807 81 60 81 C60 90.9 60 100.8 60 111 C58.35 111.33 56.7 111.66 55 112 C51.32564178 113.08391429 51.32564178 113.08391429 48.75 115.75 C47.84170755 118.47487736 47.38758769 121.15769026 47 124 C45.515 124.495 45.515 124.495 44 125 C44.66 126.65 45.32 128.3 46 130 C45.566875 130.36609375 45.13375 130.7321875 44.6875 131.109375 C41.86350343 133.85492722 40.15076763 135.82952439 39.63671875 139.8203125 C39.67091361 141.87726474 39.74330126 143.93389538 39.8515625 145.98828125 C40.10433079 151.11681691 39.62922853 156.11231441 38 161 C42.41404428 165.08915269 46.4341272 168.63450406 52 171 C51.67 171.99 51.34 172.98 51 174 C48.3828125 175.1328125 48.3828125 175.1328125 45.125 176.125 C44.05507813 176.45757812 42.98515625 176.79015625 41.8828125 177.1328125 C40.93148438 177.41898438 39.98015625 177.70515625 39 178 C38.01 178.33 37.02 178.66 36 179 C35.87625 179.598125 35.7525 180.19625 35.625 180.8125 C34.70328488 184.03850291 32.70371991 185.15355714 30 187 C29.34 187 28.68 187 28 187 C28.33 185.35 28.66 183.7 29 182 C27.24929483 182.11470137 25.49942464 182.24219028 23.75 182.375 C22.28820312 182.47941406 22.28820312 182.47941406 20.796875 182.5859375 C18.03321753 182.99508232 16.26272888 183.36580692 14 185 C13.30367785 186.95365445 13.30367785 186.95365445 13.25 189.125 C13.1675 190.40375 13.085 191.6825 13 193 C12.01 193 11.02 193 10 193 C10 193.99 10 194.98 10 196 C9.01 196 8.02 196 7 196 C6.67 196.66 6.34 197.32 6 198 C3.29561004 197.63594751 2.25593617 197.31857318 0.515625 195.15234375 C-0.11085938 194.05599609 -0.11085938 194.05599609 -0.75 192.9375 C-1.39195312 191.83728516 -1.39195312 191.83728516 -2.046875 190.71484375 C-2.36140625 190.14894531 -2.6759375 189.58304688 -3 189 C-3.33 190.98 -3.66 192.96 -4 195 C-1.38485683 197.12038635 1.19637616 199.13091744 4 201 C4 201.99 4 202.98 4 204 C2.35 203.67 0.7 203.34 -1 203 C0.98999232 208.96997695 4.40575487 210.60292021 9.61328125 213.4765625 C12.87334944 215.55745709 14.22572021 217.61273859 16 221 C14.515 221.99 14.515 221.99 13 223 C10.69 221.68 8.38 220.36 6 219 C5.67 219.99 5.34 220.98 5 222 C6.98 222.66 8.96 223.32 11 224 C10.67 224.99 10.34 225.98 10 227 C4.25 226.125 4.25 226.125 2 225 C2 225.99 2 226.98 2 228 C2.9590625 228.4640625 2.9590625 228.4640625 3.9375 228.9375 C6 230 6 230 7 231 C7.04080783 232.99958364 7.04254356 235.00045254 7 237 C6.13375 236.443125 6.13375 236.443125 5.25 235.875 C3 234.70833333 3 234.70833333 0.75 235.875 C0.1725 236.24625 -0.405 236.6175 -1 237 C-2.485 235.515 -2.485 235.515 -4 234 C-4.33 234.66 -4.66 235.32 -5 236 C-6.65 235.67 -8.3 235.34 -10 235 C-10.061875 233.1128125 -10.061875 233.1128125 -10.125 231.1875 C-10.30764489 228.99010474 -10.30764489 228.99010474 -11 227 C-13.91841857 224.91367303 -13.91841857 224.91367303 -17 224 C-17.20086443 220.28400809 -17.1519437 219.22791555 -15 216 C-16.32 215.01 -17.64 214.02 -19 213 C-18.67 211.68 -18.34 210.36 -18 209 C-18.86625 208.835 -19.7325 208.67 -20.625 208.5 C-24.73642929 206.67269809 -26.13263103 204.58482699 -28.609375 200.94140625 C-29.98906792 198.83630083 -29.98906792 198.83630083 -32.375 197.0625 C-34.64257493 194.18442413 -34.18540325 192.02459181 -34.0078125 188.4609375 C-33.9952446 184.50204943 -34.99172626 180.80803387 -36 177 C-36.59941406 176.87496094 -37.19882812 176.74992188 -37.81640625 176.62109375 C-40.96479096 175.72557824 -43.29657591 173.82067337 -46 172 C-46.845625 171.67 -47.69125 171.34 -48.5625 171 C-51 170 -51 170 -53.375 168 C-56.4685378 165.64301882 -59.28166457 165.03287095 -63 164 C-64.625 162.6875 -64.625 162.6875 -66 161 C-66.825 160.278125 -67.65 159.55625 -68.5 158.8125 C-71.16499668 155.81437873 -72.11496417 153.54463468 -73.2265625 149.76953125 C-73.97286471 147.62791172 -73.97286471 147.62791172 -77 146 C-77.66 147.65 -78.32 149.3 -79 151 C-79.66 150.67 -80.32 150.34 -81 150 C-81.59355614 147.35139573 -81.74209269 144.70802678 -82 142 C-85.9492568 142.55105909 -89.34920174 143.38935371 -93 145 C-92.76606992 146.97169638 -92.52747157 148.94302791 -92.2578125 150.91015625 C-92 153 -92 153 -91.9375 155.625 C-90.79412934 158.52153899 -89.76978918 158.91270413 -87.1875 160.5625 C-83.22140615 163.26057095 -82.18325835 165.54331225 -80.875 170.125 C-79.51116607 174.88112 -79.51116607 174.88112 -76.375 178.6875 C-72.52984109 180.18283958 -69.17535383 180.56717608 -65.07421875 180.7265625 C-64.38972656 180.81679688 -63.70523438 180.90703125 -63 181 C-62.67 181.66 -62.34 182.32 -62 183 C-62.33 183.99 -62.66 184.98 -63 186 C-62.43490723 186.28721924 -61.86981445 186.57443848 -61.28759766 186.87036133 C-58.72921485 188.17639443 -56.17711905 189.49427184 -53.625 190.8125 C-52.73554688 191.26431641 -51.84609375 191.71613281 -50.9296875 192.18164062 C-50.07890625 192.62314453 -49.228125 193.06464844 -48.3515625 193.51953125 C-47.17327881 194.12438354 -47.17327881 194.12438354 -45.97119141 194.74145508 C-44 196 -44 196 -42 199 C-42.375 201.6875 -42.375 201.6875 -43 204 C-43.86625 203.195625 -44.7325 202.39125 -45.625 201.5625 C-48.62876093 199.03075864 -51.03203262 198.28342624 -55 198 C-56.62750037 200.32323453 -56.62750037 200.32323453 -58 203 C-57.67 203.99 -57.34 204.98 -57 206 C-56.01 206.33 -55.02 206.66 -54 207 C-53.67 208.98 -53.34 210.96 -53 213 C-53.763125 213.495 -54.52625 213.99 -55.3125 214.5 C-57.96869131 216.97087564 -58.49198134 217.85397075 -59.5625 221.125 C-60.7771986 224.83121106 -60.7771986 224.83121106 -63.0625 226.5625 C-65 227 -65 227 -67 226 C-66.71848913 224.68528432 -66.42446661 223.37324233 -66.125 222.0625 C-65.88136719 220.96615234 -65.88136719 220.96615234 -65.6328125 219.84765625 C-65 218 -65 218 -63 217 C-64.08015763 209.83165832 -64.08015763 209.83165832 -68 204 C-70.58498512 202.73152315 -70.58498512 202.73152315 -73 202 C-73 200.35 -73 198.7 -73 197 C-74.093125 196.9175 -75.18625 196.835 -76.3125 196.75 C-80 196 -80 196 -81.9375 194.0625 C-83 192 -83 192 -83 190 C-84.175625 189.979375 -85.35125 189.95875 -86.5625 189.9375 C-91.18723873 189.35536505 -92.99330921 187.427697 -96 184.03125 C-99.14837711 180.8336795 -102.89782969 178.53424353 -106.64453125 176.08984375 C-109.49490385 173.5609062 -110.05537744 171.64490726 -111 168 C-111.50199726 166.7630211 -112.01953024 165.53204987 -112.5625 164.3125 C-114 161 -114 161 -115 158 C-120.51998316 156.62000421 -123.23251649 157.16600939 -128.15625 159.96875 C-130 161 -130 161 -132.625 161.8125 C-135.24058512 163.12029256 -136.11037105 164.27776988 -137.875 166.5625 C-140.19445817 169.41859374 -140.86618585 169.9577429 -144.5625 171.125 C-148.44260768 170.98390518 -149.80468689 170.07695352 -153 168 C-155.32495277 167.61250787 -157.6599583 167.28241883 -160 167 C-162.3633496 166.41031433 -164.66957351 165.71339586 -167 165 C-169.28639008 167.47692259 -169.97637294 168.70466178 -170.25 172.125 C-170.18281354 174.94107996 -170.18281354 174.94107996 -169 177 C-169.33 177.66 -169.66 178.32 -170 179 C-170.99 179 -171.98 179 -173 179 C-173.33 180.32 -173.66 181.64 -174 183 C-175.155 183.0825 -176.31 183.165 -177.5 183.25 C-181.49063037 183.73649027 -184.46488704 185.00056929 -187.9453125 186.96484375 C-190 188 -190 188 -192.88671875 188.8515625 C-196.49035362 190.18088327 -198.76707637 191.95697282 -201.6875 194.4375 C-202.61949219 195.21996094 -203.55148438 196.00242187 -204.51171875 196.80859375 C-209.16147269 200.59862669 -209.16147269 200.59862669 -211 206 C-210.7824998 207.33528604 -210.5521196 208.66850551 -210.3125 210 C-209.7919161 213.69203583 -209.7919161 213.69203583 -211.5625 216.3125 C-218.33333333 221 -218.33333333 221 -222 221 C-222 222.32 -222 223.64 -222 225 C-224.3535311 225.79359736 -226.70778883 226.58491783 -229.0625 227.375 C-229.71927734 227.59671875 -230.37605469 227.8184375 -231.05273438 228.046875 C-235.34016957 229.48306019 -239.6438323 230.78775047 -244 232 C-244.33 231.67 -244.66 231.34 -245 231 C-250.56517198 229.84496431 -255.6174752 229.95474346 -261.1875 231 C-269.68291911 232.56149734 -269.68291911 232.56149734 -274 231 C-274.7548118 229.32628688 -275.4971883 227.64251053 -276.10546875 225.91015625 C-277.96225425 221.94523001 -281.13810211 219.86319635 -285 218 C-289.96535312 216.66317416 -294.9173283 215.75445908 -300 215 C-298.84826645 212.53199953 -297.95216435 210.95216435 -296 209 C-296.020625 208.195625 -296.04125 207.39125 -296.0625 206.5625 C-296 204 -296 204 -294.5 202.1875 C-293.7575 201.5996875 -293.7575 201.5996875 -293 201 C-293.33 200.278125 -293.66 199.55625 -294 198.8125 C-295.0551955 195.84476264 -295.55676844 194.10199559 -295 191 C-292.9375 189.1875 -292.9375 189.1875 -290 187 C-281.49383881 178.31684129 -281.49383881 178.31684129 -276 167.75 C-274.62401584 163.96604357 -272.3681522 163.062134 -269 161 C-267.02901574 159.2890789 -267.02901574 159.2890789 -266 157 C-266 155.80375 -266 154.6075 -266 153.375 C-266 152.26125 -266 151.1475 -266 150 C-262.5647952 147.70986347 -261.014669 147.82157027 -257 148 C-256.67 147.01 -256.34 146.02 -256 145 C-251.93891239 145.65501413 -248.20744613 146.91572745 -244.33203125 148.24609375 C-242.18969777 148.93867392 -240.06742131 149.49340168 -237.875 150 C-235.27880288 150.61475509 -233.28783796 151.32117112 -230.8125 152.4375 C-224.32808483 155.35773316 -215.97519036 158.19390603 -209 156 C-202.71949979 151.18940409 -199.07549564 144.59152443 -197 137 C-196.44385412 129.86107801 -197.61811176 122.20890111 -201.625 116.1875 C-204.874004 112.52936217 -208.42109245 111.47456345 -213 110 C-214 107 -214 107 -212.875 103.8125 C-211.7890625 102.23046875 -211.7890625 102.23046875 -210 101 C-205.62666691 100.46548151 -201.38460082 100.65784907 -197 101 C-196.67 101.99 -196.34 102.98 -196 104 C-192.535 103.505 -192.535 103.505 -189 103 C-189.061875 101.72125 -189.12375 100.4425 -189.1875 99.125 C-189.29296875 96.9453125 -189.29296875 96.9453125 -189 95 C-186 93 -186 93 -183.4375 93.125 C-181 94 -181 94 -179.875 96 C-179.58625 96.66 -179.2975 97.32 -179 98 C-177.515 98.495 -177.515 98.495 -176 99 C-175.79375 98.360625 -175.5875 97.72125 -175.375 97.0625 C-174.92125 96.381875 -174.4675 95.70125 -174 95 C-172.5459375 94.7834375 -172.5459375 94.7834375 -171.0625 94.5625 C-167.83506195 94.33950708 -167.83506195 94.33950708 -166.375 91.6875 C-165.92125 90.800625 -165.4675 89.91375 -165 89 C-163.22214839 86.51100775 -161.9413004 85.20020195 -158.90625 84.5546875 C-158.0915625 84.43351562 -157.276875 84.31234375 -156.4375 84.1875 C-149.28583384 82.9708704 -142.78605237 79.45542859 -138.1953125 73.76171875 C-136.65423118 71.38443927 -136.65423118 71.38443927 -135 68 C-134.34 69.32 -133.68 70.64 -133 72 C-132.34 72 -131.68 72 -131 72 C-131 70.02 -131 68.04 -131 66 C-127.69453811 63.93408632 -124.67562269 63.66445926 -120.890625 63.29296875 C-118.86297664 63.08390175 -118.86297664 63.08390175 -116.75 61.8125 C-116.1725 61.544375 -115.595 61.27625 -115 61 C-112.75 61.875 -112.75 61.875 -111 63 C-109.06201737 60.22739701 -109.06201737 60.22739701 -108 58 C-108.44473486 55.98698959 -108.95598243 53.98847803 -109.5 52 C-111.31570205 44.42760206 -111.63602085 38.5866611 -108.375 31.4375 C-105.30800274 28.28979228 -103.30351548 28.30739396 -99 28 C-96.66411677 27.04415562 -96.66411677 27.04415562 -95 26 C-95.33 28.64 -95.66 31.28 -96 34 C-94.35 34.66 -92.7 35.32 -91 36 C-94 39 -94 39 -95.4375 40.3125 C-99.47256543 44.60487902 -99.47256543 44.60487902 -101 50 C-100.34 50.33 -99.68 50.66 -99 51 C-99 52.65 -99 54.3 -99 56 C-96.03 56.495 -96.03 56.495 -93 57 C-93 57.66 -93 58.32 -93 59 C-92.01 59 -91.02 59 -90 59 C-90 58.34 -90 57.68 -90 57 C-85.545 56.505 -85.545 56.505 -81 56 C-81.33 54.68 -81.66 53.36 -82 52 C-80.125 51.375 -80.125 51.375 -78 51 C-75.64046906 53.35953094 -75.50858587 54.77895617 -75 58 C-71.90147244 59.42110556 -71.90147244 59.42110556 -68.7421875 57.41796875 C-67.44974798 56.68036522 -66.16084762 55.93653591 -64.875 55.1875 C-59.3011725 52.08825105 -54.46544294 49.52995434 -48 49 C-45.875 50.4375 -45.875 50.4375 -44 52 C-40.65274469 51.72481084 -40.65274469 51.72481084 -37 51 C-34.30684265 50.86102925 -31.70102872 50.90686108 -29 51 C-28.67 51.33 -28.34 51.66 -28 52 C-27.34 49.36 -26.68 46.72 -26 44 C-28.31 43.34 -30.62 42.68 -33 42 C-35.09407194 34.85551925 -35.46682367 30.3442403 -31.8125 23.625 C-29.86560206 20.68777248 -29.48522197 20.11882987 -25.9375 19.25 C-22.4826582 20.13208727 -21.3192622 21.36083957 -19 24 C-18.01 24.33 -17.02 24.66 -16 25 C-16.01160156 24.30132812 -16.02320313 23.60265625 -16.03515625 22.8828125 C-16.04869141 21.51769531 -16.04869141 21.51769531 -16.0625 20.125 C-16.07410156 19.22007812 -16.08570313 18.31515625 -16.09765625 17.3828125 C-16 15 -16 15 -15 13 C-16.65 13.33 -18.3 13.66 -20 14 C-20.99 11.36 -21.98 8.72 -23 6 C-17.26869537 0.06400591 -7.87917547 -2.05294383 0 0 Z " fill="#009BC5" transform="translate(320,126)"/>
<path d="M0 0 C6.08695652 0.54347826 6.08695652 0.54347826 9 2 C9 4 9 4 7.5 5.625 C7.005 6.07875 6.51 6.5325 6 7 C6.99 7.33 7.98 7.66 9 8 C7.95125002 10.62187494 7.35068687 11.79371361 4.875 13.25 C4.25625 13.4975 3.6375 13.745 3 14 C3.495 17.96 3.495 17.96 4 22 C4.8971875 22.12375 4.8971875 22.12375 5.8125 22.25 C8.73024575 23.25036997 9.53950675 24.29808749 11 27 C10.9071875 28.423125 10.9071875 28.423125 10.8125 29.875 C10.65633279 32.95028463 10.65633279 32.95028463 12.359375 34.40234375 C12.92140625 34.86769531 13.4834375 35.33304688 14.0625 35.8125 C16.24629978 37.73035695 16.95808709 38.43277867 17.17578125 41.37890625 C16.90419402 43.63272757 16.5388343 45.79567786 16 48 C16.66 48.33 17.32 48.66 18 49 C18 49.99 18 50.98 18 52 C19.65 52 21.3 52 23 52 C22.896875 53.0725 22.79375 54.145 22.6875 55.25 C22.790625 56.4875 22.89375 57.725 23 59 C24.62935241 60.37868281 26.29749607 61.71274093 28 63 C29.1875 65.625 29.1875 65.625 29 69 C24.66468948 78.96959049 18.1482167 84.21253686 8.5546875 88.703125 C5.93943115 90.03074749 3.64277546 91.55813856 1.25 93.25 C-4.71895425 97.26756536 -4.71895425 97.26756536 -9 97 C-13.75894229 95.29228431 -17.23319922 93.5655516 -19.5 88.9375 C-19.665 87.638125 -19.83 86.33875 -20 85 C-20.14050781 84.02933594 -20.28101563 83.05867188 -20.42578125 82.05859375 C-21.56863024 72.65029144 -21.56863024 72.65029144 -18 68 C-17.34 68 -16.68 68 -16 68 C-15.01 66.02 -15.01 66.02 -14 64 C-13.34 64 -12.68 64 -12 64 C-11.9175 63.34 -11.835 62.68 -11.75 62 C-10.46497822 56.85991288 -7.92593596 52.38890394 -5 48 C-9.16434334 45.52045034 -9.16434334 45.52045034 -13.875 45.3125 C-14.926875 45.6528125 -14.926875 45.6528125 -16 46 C-15.505 47.98 -15.505 47.98 -15 50 C-16.98 50.66 -18.96 51.32 -21 52 C-20.34 54.31 -19.68 56.62 -19 59 C-19.68707031 59.4846875 -20.37414062 59.969375 -21.08203125 60.46875 C-29.91258308 68.12898773 -38.16587615 79.12106786 -39.01953125 91.0078125 C-39.00986328 91.99394531 -39.00986328 91.99394531 -39 93 C-36.36 93.33 -33.72 93.66 -31 94 C-31.495 95.485 -31.495 95.485 -32 97 C-31.34 97.33 -30.68 97.66 -30 98 C-30.56977449 101.98842143 -31.53156712 104.79103726 -34 108 C-36.26506572 109.55376446 -38.54201813 110.74782056 -41 112 C-40.94199219 112.7734375 -40.88398438 113.546875 -40.82421875 114.34375 C-40.54770957 120.72716186 -40.72396591 125.20819652 -44.5703125 130.4453125 C-47.09138423 133.18680581 -49.48689196 134.78384171 -53.1875 135.3125 C-54.0846875 135.6528125 -54.0846875 135.6528125 -55 136 C-56.3045656 138.99615946 -56.3045656 138.99615946 -57 142 C-58.65614657 142.38218767 -60.32457024 142.71395102 -62 143 C-63.98983893 141.01016107 -63.37391574 137.14457383 -63.5234375 134.4453125 C-64.07595776 131.61024952 -64.94817308 130.92015889 -67 129 C-67 128.01 -67 127.02 -67 126 C-67.66 126 -68.32 126 -69 126 C-69.433125 124.6696875 -69.433125 124.6696875 -69.875 123.3125 C-70.89297443 120.12818663 -70.89297443 120.12818663 -72.0625 117.6875 C-73.39606005 113.86462786 -73.66730033 110.01866184 -74 106 C-74.6290625 106.60328125 -75.258125 107.2065625 -75.90625 107.828125 C-87.95429127 119.07780209 -87.95429127 119.07780209 -95.25 118.9375 C-98.12924728 117.95593843 -99.92485147 117.23477534 -102 115 C-102.25 112.3125 -102.25 112.3125 -102 110 C-100.515 109.505 -100.515 109.505 -99 109 C-99 108.34 -99 107.68 -99 107 C-100.32 106.67 -101.64 106.34 -103 106 C-101.84826645 103.53199953 -100.95216435 101.95216435 -99 100 C-100.32 99.34 -101.64 98.68 -103 98 C-102.25 91.375 -102.25 91.375 -100 88 C-99.96390625 87.05640625 -99.9278125 86.1128125 -99.890625 85.140625 C-98.69771559 80.93404972 -96.79847026 80.11778499 -93.11328125 78.015625 C-92.33339844 77.59796875 -91.55351562 77.1803125 -90.75 76.75 C-89.98558594 76.316875 -89.22117188 75.88375 -88.43359375 75.4375 C-78.71657986 70 -78.71657986 70 -74 70 C-74 69.29875 -74 68.5975 -74 67.875 C-72.64024959 63.96571758 -70.31748545 62.7938249 -67.0078125 60.46875 C-63.30828867 57.76248354 -61.2542791 55.41266168 -60.4375 50.875 C-60.293125 49.92625 -60.14875 48.9775 -60 48 C-58.5625 46.4375 -58.5625 46.4375 -57 45 C-56.731875 44.2575 -56.46375 43.515 -56.1875 42.75 C-54.10865883 37.93584151 -50.3949498 34.36212745 -46.67578125 30.73046875 C-44.68801521 28.70207684 -42.86867388 26.69875462 -41.0625 24.51953125 C-40.55976563 23.91302734 -40.05703125 23.30652344 -39.5390625 22.68164062 C-38.50725949 21.42854991 -37.48126067 20.17065883 -36.4609375 18.90820312 C-33.55810771 15.42852896 -31.47582953 13.3238369 -27 12 C-25.07612355 10.31660811 -23.53412917 8.45191667 -21.875 6.5 C-18.21387741 3.31641514 -14.62488929 2.23934942 -10 1 C-9.01 2.485 -9.01 2.485 -8 4 C-7.67 3.01 -7.34 2.02 -7 1 C-5.824375 1.309375 -5.824375 1.309375 -4.625 1.625 C-3.75875 1.74875 -2.8925 1.8725 -2 2 C-1.34 1.34 -0.68 0.68 0 0 Z " fill="#009BC5" transform="translate(303,30)"/>
<path d="M0 0 C-1.68152073 3.74020498 -3.69039473 5.56134348 -7 8 C-3.7 8.33 -0.4 8.66 3 9 C1.92317477 13.30730091 1.13219986 14.15962192 -2 17.0625 C-5.23360858 20.03378739 -5.23360858 20.03378739 -7 24 C-5.35 24.99 -3.7 25.98 -2 27 C-2.33 29.97 -2.66 32.94 -3 36 C-2.34 36 -1.68 36 -1 36 C-1 37.32 -1 38.64 -1 40 C-0.01 40.33 0.98 40.66 2 41 C3.64577582 43.99231966 4.22019106 46.03430492 3.453125 49.3984375 C2.70541386 51.63451704 1.90050802 53.82135157 1 56 C1.9075 55.938125 2.815 55.87625 3.75 55.8125 C7.28982642 56.01672076 8.44931155 56.64551835 11 59 C10.63165987 61.65204896 10.3132309 62.73840056 8.22265625 64.484375 C7.50980469 64.90203125 6.79695313 65.3196875 6.0625 65.75 C5.35222656 66.17796875 4.64195312 66.6059375 3.91015625 67.046875 C2 68 2 68 0 68 C0 68.66 0 69.32 0 70 C1.32 70.33 2.64 70.66 4 71 C3 74 3 74 1.265625 75.1796875 C-1.38319681 76.13874367 -3.44065467 76.19893014 -6.25 76.125 C-7.14203125 76.10695313 -8.0340625 76.08890625 -8.953125 76.0703125 C-9.62859375 76.04710937 -10.3040625 76.02390625 -11 76 C-11.495 77.485 -11.495 77.485 -12 79 C-14 78 -16 77 -18 76 C-19.11375 76.165 -20.2275 76.33 -21.375 76.5 C-25 77 -25 77 -27.125 76.4375 C-29.0949403 75.78001331 -29.0949403 75.78001331 -31.19140625 76.96484375 C-34.5593104 78.20614361 -37.23413459 78.19729021 -40.8125 78.125 C-41.97394531 78.10695313 -43.13539062 78.08890625 -44.33203125 78.0703125 C-45.21246094 78.04710937 -46.09289062 78.02390625 -47 78 C-47.33 77.01 -47.66 76.02 -48 75 C-47.16855469 74.67386719 -46.33710937 74.34773438 -45.48046875 74.01171875 C-44.39378906 73.57472656 -43.30710937 73.13773437 -42.1875 72.6875 C-40.56908203 72.04361328 -40.56908203 72.04361328 -38.91796875 71.38671875 C-36.24659065 70.11718833 -35.02393706 69.02999675 -33 67 C-29.9375 67.375 -29.9375 67.375 -27 68 C-26.01 67.505 -26.01 67.505 -25 67 C-27.96178773 65.32889958 -30.37071192 64.67317248 -33.75 64.375 C-34.54921875 64.30023438 -35.3484375 64.22546875 -36.171875 64.1484375 C-37.07679687 64.07496094 -37.07679687 64.07496094 -38 64 C-38.0625 61.75 -38.0625 61.75 -37 59 C-34.13325156 57.30699573 -31.12586629 56.13036377 -28 55 C-28.66 53.35 -29.32 51.7 -30 50 C-29.34 50 -28.68 50 -28 50 C-28.33 49.01 -28.66 48.02 -29 47 C-26.43386274 46.14462091 -25.06517464 45.98603401 -22.375 46.5625 C-21.59125 46.706875 -20.8075 46.85125 -20 47 C-19.34 46.34 -18.68 45.68 -18 45 C-18 43.88625 -18 42.7725 -18 41.625 C-18 38 -18 38 -16 34 C-20.455 34.495 -20.455 34.495 -25 35 C-25.66 34.01 -26.32 33.02 -27 32 C-26.34 31.01 -25.68 30.02 -25 29 C-26.32 29.33 -27.64 29.66 -29 30 C-27.80100302 26.9168649 -26.52299523 23.93720508 -25 21 C-26.65 21 -28.3 21 -30 21 C-29.875 18.75 -29.875 18.75 -29 16 C-25.9375 13.6875 -25.9375 13.6875 -23 12 C-23.495 11.38125 -23.99 10.7625 -24.5 10.125 C-26 8 -26 8 -26 6 C-24.7625 6.4640625 -24.7625 6.4640625 -23.5 6.9375 C-20.06054719 7.38442944 -20.06054719 7.38442944 -18.2421875 5.5078125 C-17.31792969 4.54488281 -17.31792969 4.54488281 -16.375 3.5625 C-11.45112511 -1.26557965 -6.53986096 -0.6866854 0 0 Z " fill="#009BC5" transform="translate(156,137)"/>
<path d="M0 0 C0.33 1.98 0.66 3.96 1 6 C1.99 5.34 2.98 4.68 4 4 C6.4453125 4.20703125 6.4453125 4.20703125 9.125 4.8125 C10.45917969 5.10060547 10.45917969 5.10060547 11.8203125 5.39453125 C14 6 14 6 15 7 C15.886875 6.5875 16.77375 6.175 17.6875 5.75 C21 5 21 5 23.875 6.125 C26.82967269 10.12249834 26.560397 13.36116924 26.56640625 18.22265625 C26 21 26 21 24.29296875 22.73828125 C15.20506463 27.73895081 4.33053664 30.07057912 -6 29 C-8.72339401 27.49011832 -10.41100676 26.02260423 -12.421875 23.6640625 C-14.2385293 21.74848148 -15.42897071 21.39124359 -18 21 C-17.67 19.68 -17.34 18.36 -17 17 C-16.360625 16.896875 -15.72125 16.79375 -15.0625 16.6875 C-14.0415625 16.3471875 -14.0415625 16.3471875 -13 16 C-12.67 15.01 -12.34 14.02 -12 13 C-13.65 12.67 -15.3 12.34 -17 12 C-17 11.01 -17 10.02 -17 9 C-13.71303767 8.20046862 -12.28976808 7.90341064 -9 9 C-9 8.34 -9 7.68 -9 7 C-10.32 6.67 -11.64 6.34 -13 6 C-13 5.01 -13 4.02 -13 3 C-8.63192098 -0.15472374 -5.21416565 -1.67598181 0 0 Z " fill="#009BC5" transform="translate(110,53)"/>
<path d="M0 0 C0 0.66 0 1.32 0 2 C1.98 2 3.96 2 6 2 C7.37353255 9.93596585 7.37353255 9.93596585 6 13 C5.0409375 13.8971875 5.0409375 13.8971875 4.0625 14.8125 C1.71804582 16.94454167 1.71804582 16.94454167 1.125 20.4375 C-0.25186426 24.79757015 -2.03801649 26.90788878 -6 29 C-13.47878136 31.71856432 -23.692214 34.34008808 -31.3125 30.98046875 C-31.869375 30.65691406 -32.42625 30.33335937 -33 30 C-33 27.69 -33 25.38 -33 23 C-32.01 23 -31.02 23 -30 23 C-30.33 22.01 -30.66 21.02 -31 20 C-30.01 19.34 -29.02 18.68 -28 18 C-27.01 18.33 -26.02 18.66 -25 19 C-25.33 17.02 -25.66 15.04 -26 13 C-24.35 12.67 -22.7 12.34 -21 12 C-21.66 10.68 -22.32 9.36 -23 8 C-21 6 -21 6 -19.125 5.8046875 C-18.42375 5.82789063 -17.7225 5.85109375 -17 5.875 C-15.948125 5.90207031 -15.948125 5.90207031 -14.875 5.9296875 C-14.25625 5.95289063 -13.6375 5.97609375 -13 6 C-12.34 6 -11.68 6 -11 6 C-11 5.01 -11 4.02 -11 3 C-7.14243493 0.84694043 -4.44870215 -0.39253254 0 0 Z " fill="#009BC5" transform="translate(120,163)"/>
<path d="M0 0 C-0.22736293 2.96170129 -0.48068985 5.91707687 -0.75 8.875 C-0.8428125 10.13763672 -0.8428125 10.13763672 -0.9375 11.42578125 C-1.05351562 12.63427734 -1.05351562 12.63427734 -1.171875 13.8671875 C-1.2347168 14.61081543 -1.29755859 15.35444336 -1.36230469 16.12060547 C-2 18 -2 18 -3.76269531 19.34887695 C-6.64955298 20.18903948 -7.8648529 19.6895105 -10.625 18.55078125 C-11.93210938 18.02000977 -11.93210938 18.02000977 -13.265625 17.47851562 C-14.61914062 16.90133789 -14.61914062 16.90133789 -16 16.3125 C-16.90234375 15.94705078 -17.8046875 15.58160156 -18.734375 15.20507812 C-22.90108929 13.48230202 -26.45877918 11.8312586 -30 9 C-29.67 7.02 -29.34 5.04 -29 3 C-24.41806941 1.21073155 -20.71498662 0.80613648 -15.8125 0.9375 C-10.32620213 1.07188216 -5.45728371 -0.12127297 0 0 Z " fill="#009BC5" transform="translate(250,350)"/>
<path d="M0 0 C3.16492205 3.75471067 3.28301994 6.09432112 3 11 C2.34 11 1.68 11 1 11 C1.3403125 12.8253125 1.3403125 12.8253125 1.6875 14.6875 C2.07350397 17.79758913 2.02745669 18.93208081 0.8125 21.9375 C-1.20908952 24.23792945 -2.05680208 24.54012532 -5 25 C-5.99 25.66 -6.98 26.32 -8 27 C-8.99 27 -9.98 27 -11 27 C-10.93941406 26.40574219 -10.87882813 25.81148438 -10.81640625 25.19921875 C-10.73261719 24.37035156 -10.64882812 23.54148437 -10.5625 22.6875 C-10.40974609 21.32431641 -10.40974609 21.32431641 -10.25390625 19.93359375 C-9.95366379 17.00879478 -9.95366379 17.00879478 -10.02734375 14.09765625 C-9.95861932 6.94049797 -9.95861932 6.94049797 -6.93359375 3.97265625 C-4.67615497 2.47122983 -2.44371574 1.17002147 0 0 Z " fill="#009BC5" transform="translate(197,316)"/>
<path d="M0 0 C0.66 0.33 1.32 0.66 2 1 C2.59068344 13.29496652 2.59068344 13.29496652 -1 18 C-3.6875 18.875 -3.6875 18.875 -6 19 C-8.21108422 16.08136883 -8.98245946 14.31572977 -9.1875 10.625 C-7.51190857 5.51003667 -4.21713657 3.16045087 0 0 Z " fill="#009BC5" transform="translate(200,296)"/>
<path d="M0 0 C1.2065625 0.0309375 1.2065625 0.0309375 2.4375 0.0625 C1.5625 4.9375 1.5625 4.9375 0.4375 6.0625 C-1.56208364 6.10330783 -3.56295254 6.10504356 -5.5625 6.0625 C-3.26136364 0.07954545 -3.26136364 0.07954545 0 0 Z " fill="#009BC5" transform="translate(138.5625,133.9375)"/>
</svg>
