<?xml version="1.0" encoding="UTF-8"?>
<svg version="1.1" xmlns="http://www.w3.org/2000/svg" width="400" height="400">
<path d="M0 0 C1.42689772 0.21037595 2.84261313 0.49697294 4.25 0.8125 C8.36863904 1.70939561 12.44142741 2.30540029 16.625 2.8125 C21.85937249 3.56290358 25.0697727 4.98923406 29.31640625 8.03515625 C31.95009157 9.54448403 34.10087885 8.57982423 37 8 C40.41504341 8.76632751 43.69824648 9.84503879 47 11 C47 12.32 47 13.64 47 15 C47.56847656 15.07476562 48.13695312 15.14953125 48.72265625 15.2265625 C54.27916279 16.17274558 57.53487918 17.73939855 61.58984375 21.66015625 C62.98020246 23.11171634 62.98020246 23.11171634 65 24 C65.433125 23.071875 65.433125 23.071875 65.875 22.125 C67 20 67 20 69 18 C70.87890625 18.06640625 70.87890625 18.06640625 73 19 C75.15864559 21.43330427 76.9959878 24.01831316 78.90234375 26.65234375 C81.19046399 29.21316361 82.83664536 29.837845 86 31 C86.99 32.485 86.99 32.485 88 34 C85.69 34 83.38 34 81 34 C81.01160156 34.60328125 81.02320313 35.2065625 81.03515625 35.828125 C81.04417969 36.62734375 81.05320313 37.4265625 81.0625 38.25 C81.07410156 39.03890625 81.08570313 39.8278125 81.09765625 40.640625 C81.00385306 42.90691002 80.63241063 44.8288895 80 47 C79.34 47 78.68 47 78 47 C78.52718838 50.9201187 79.26374348 54.42930579 81 58 C83.47884095 59.63104291 85.73319976 60.39537094 88.5703125 61.23828125 C91.64090305 62.2009262 93.54939159 63.95782633 96 66 C103.64476735 69.73349103 112.19051087 67.16930253 120 65 C120 64.01 120 63.02 120 62 C120.94875 61.9175 121.8975 61.835 122.875 61.75 C123.90625 61.5025 124.9375 61.255 126 61 C127.18330183 59.13355094 127.18330183 59.13355094 128 57 C130.33222353 54.74819797 131.41597176 54.0271641 134.6875 53.875 C135.450625 53.91625 136.21375 53.9575 137 54 C137.33 53.67 137.66 53.34 138 53 C139.51928038 52.92820036 141.04167482 52.91607993 142.5625 52.9375 C143.38878906 52.94652344 144.21507812 52.95554688 145.06640625 52.96484375 C145.70449219 52.97644531 146.34257812 52.98804688 147 53 C147.33 53.99 147.66 54.98 148 56 C149.134375 56.144375 150.26875 56.28875 151.4375 56.4375 C155 57 155 57 156 58 C157.299375 58.103125 158.59875 58.20625 159.9375 58.3125 C162.14453125 58.5546875 162.14453125 58.5546875 164 59 C165.125 60.9375 165.125 60.9375 166 63 C167.98248715 63.71706982 169.98415349 64.38290413 172 65 C172.474375 65.515625 172.94875 66.03125 173.4375 66.5625 C175.92448594 68.85052707 178.738099 68.69227349 182 69 C185.17451783 76.10231109 185.46844361 82.37071778 184 90 C183.33432337 91.33382789 182.66776564 92.66721672 182 94 C182 95.32 182 96.64 182 98 C182.99 98.66 183.98 99.32 185 100 C184.773125 100.86625 184.54625 101.7325 184.3125 102.625 C183.92951387 106.76125018 185.07930632 108.38023114 187 112 C187.6875 115.875 187.6875 115.875 188 119 C188.56589844 119.15855469 189.13179688 119.31710938 189.71484375 119.48046875 C195.61424848 121.3570808 195.61424848 121.3570808 197.3125 124.1875 C196.89942378 127.905186 195.23827524 130.07093352 193.03125 133.03515625 C191.81876662 134.92210141 191.81876662 134.92210141 192.15234375 136.96484375 C195.01145179 143.82933817 199.61933621 148.19948671 206.33203125 151.04296875 C208 152 208 152 209.5 155 C210 158 210 158 210 162 C211.32 162 212.64 162 214 162 C214 164.31 214 166.62 214 169 C211.69 169.33 209.38 169.66 207 170 C206.67 170.99 206.34 171.98 206 173 C205.01 173 204.02 173 203 173 C202.67 176.63 202.34 180.26 202 184 C198.46168121 184.8845797 197.17749316 185.07207049 193.8046875 184.51171875 C193.01054443 184.38321533 192.21640137 184.25471191 191.39819336 184.12231445 C190.56553955 183.97882568 189.73288574 183.83533691 188.875 183.6875 C187.59991577 183.47710083 187.59991577 183.47710083 186.29907227 183.26245117 C181.08265685 182.39097008 175.88482444 181.44961934 170.71484375 180.33203125 C168.96385991 179.93663619 168.96385991 179.93663619 167 180 C167 179.34 167 178.68 167 178 C166.401875 177.979375 165.80375 177.95875 165.1875 177.9375 C163 177 163 177 161.3125 173.6875 C160.39516953 171.11023819 159.53478655 168.67393273 159 166 C157.68 165.67 156.36 165.34 155 165 C155 165.66 155 166.32 155 167 C151.07264093 169.19201436 148.48319869 170.23595783 144 170 C143.319375 170.20625 142.63875 170.4125 141.9375 170.625 C139.3702365 171.12188971 138.18530823 170.32679428 136 169 C136 169.66 136 170.32 136 171 C135.34 171 134.68 171 134 171 C134 170.34 134 169.68 134 169 C131.69 168.67 129.38 168.34 127 168 C126.67 167.01 126.34 166.02 126 165 C123.99983534 163.79117904 123.99983534 163.79117904 122 163 C122 162.01 122 161.02 122 160 C121.32453125 159.84144531 120.6490625 159.68289062 119.953125 159.51953125 C114.42497013 158.07358323 111.03495664 157.13608047 108 152 C107.66613281 151.43796875 107.33226562 150.8759375 106.98828125 150.296875 C105.96413965 148.5455548 104.97861542 146.77706732 104 145 C101.93624964 141.38843687 99.65520271 138.20455499 97 135 C96.01 135.33 95.02 135.66 94 136 C91.8125 135.0625 91.8125 135.0625 90 134 C89.54625 134.495 89.0925 134.99 88.625 135.5 C87 137 87 137 85 137 C84.67 137.99 84.34 138.98 84 140 C83.34 140.33 82.68 140.66 82 141 C82.5775 141.845625 83.155 142.69125 83.75 143.5625 C90.33275043 153.49519104 90.33275043 153.49519104 91 159 C91.5775 159.12375 92.155 159.2475 92.75 159.375 C95.10280066 160.02855574 96.95342262 160.65913896 99 162 C99.3721042 163.32303717 99.70630173 164.65737935 100 166 C100.99 166.66 101.98 167.32 103 168 C103.66015625 170.3125 103.66015625 170.3125 104.0625 173 C104.57245397 176.95420137 104.57245397 176.95420137 107 180 C107.45375 179.030625 107.9075 178.06125 108.375 177.0625 C110 174 110 174 112 173 C114.52284412 174.55524728 115.81312063 175.37599476 116.6796875 178.26953125 C117.06980655 183.34888127 117.13497867 187.22769473 115 192 C115.99 191.67 116.98 191.34 118 191 C118.33 192.32 118.66 193.64 119 195 C119.969375 194.505 120.93875 194.01 121.9375 193.5 C126.32498258 191.59549438 130.30330814 191.85848009 135 192 C137.76912793 192.03182652 137.76912793 192.03182652 140 191 C142.11586085 188.32808239 142.11586085 188.32808239 144 185 C144.84052707 183.76146634 145.69494617 182.53225479 146.5625 181.3125 C146.95566406 180.75175781 147.34882813 180.19101563 147.75390625 179.61328125 C149 178 149 178 150.578125 176.4296875 C152.22108509 174.77770015 153.05229949 173.11410114 154 171 C154.99 171.33 155.98 171.66 157 172 C156.9071875 173.423125 156.9071875 173.423125 156.8125 174.875 C156.82472644 180.89041023 158.50637805 186.60881868 161.68359375 191.6953125 C164.62300605 194.61985425 166.77472269 194.96256781 170.8125 195.75 C177.28737782 197.37712402 180.09587631 199.32356092 183.5703125 204.9765625 C185.18783014 207.2658361 186.52872674 207.80025323 189 209 C190 212 190 212 189.14453125 214.26953125 C186.64919323 219.03335838 184.11662288 223.61364188 181 228 C181.66 228 182.32 228 183 228 C182.67 229.65 182.34 231.3 182 233 C181.01 233.33 180.02 233.66 179 234 C179 233.34 179 232.68 179 232 C177.68 231.67 176.36 231.34 175 231 C174.37470103 236.0247239 173.86987908 240.92528427 174 246 C171.36 246.33 168.72 246.66 166 247 C165.71125 248.11375 165.4225 249.2275 165.125 250.375 C164 254 164 254 162 256 C160.865625 256.226875 159.73125 256.45375 158.5625 256.6875 C154.6543923 257.6552732 154.6543923 257.6552732 153.3125 261.5625 C152.879375 262.696875 152.44625 263.83125 152 265 C150.25 265.875 150.25 265.875 148 266 C141.24491685 266.5629236 134.79927393 268.40426577 129 272 C128.25248627 275.48254713 128.25248627 275.48254713 128 279 C122.91241334 283.8155232 115.22691235 285.17955388 108.67578125 287.04638672 C104.85386487 288.20039515 102.10113578 289.23361245 99.4375 292.25 C96.33684739 295.74817218 94.5282611 295.51482917 90 296 C89.13375 296.61875 88.2675 297.2375 87.375 297.875 C83.07848748 300.58021159 78.96569608 301.30982712 74.0234375 302.2890625 C71.33528928 302.92115937 69.29479663 303.48090927 67 305 C66.67 305.99 66.34 306.98 66 308 C64.43867691 308.1970602 62.87584736 308.38220155 61.3125 308.5625 C60.44238281 308.66691406 59.57226562 308.77132813 58.67578125 308.87890625 C55.92938525 309.0031957 53.66205127 308.64752598 51 308 C50.81824219 307.18917969 50.63648438 306.37835938 50.44921875 305.54296875 C49.17496776 299.92972976 47.87321241 294.32437319 46.4375 288.75 C46.20933594 287.85796875 45.98117188 286.9659375 45.74609375 286.046875 C45.19714006 283.81224152 45.19714006 283.81224152 43 283 C43.185625 281.845 43.37125 280.69 43.5625 279.5 C44.24387474 274.0969862 43.73156552 269.19469655 42 264 C41.34 264 40.68 264 40 264 C39.608125 263.13375 39.21625 262.2675 38.8125 261.375 C37.21152918 258.39388191 35.46699804 256.16219386 33.2578125 253.62890625 C30.99583227 250.69957161 29.58339238 247.32769862 28 244 C24.95320672 237.89402809 21.42540342 234.6977824 15.875 230.8125 C12.09868171 227.62835502 10.96830871 223.7356348 10 219 C9.87389446 217.39740873 9.77009405 215.79292194 9.6875 214.1875 C9.16451794 207.75079771 6.65708619 202.28158585 3 197 C0.99292066 195.39054959 -0.9516974 194.24605133 -3.234375 193.07421875 C-6.06449943 191.35235101 -6.90434054 189.02917615 -8 186 C-8.11867432 185.38906494 -8.23734863 184.77812988 -8.35961914 184.14868164 C-9.21138943 181.29072118 -10.66502375 179.17009802 -12.30859375 176.68359375 C-13.30536133 175.16668945 -13.30536133 175.16668945 -14.32226562 173.61914062 C-15.02029297 172.56919922 -15.71832031 171.51925781 -16.4375 170.4375 C-17.13166016 169.38369141 -17.82582031 168.32988281 -18.54101562 167.24414062 C-21.01657284 163.48886652 -23.50505653 159.7424152 -26 156 C-28.58380177 155.74969023 -28.58380177 155.74969023 -31 156 C-30.84660156 155.12601563 -30.69320312 154.25203125 -30.53515625 153.3515625 C-29.35004716 144.00780984 -30.60480546 137.67936969 -34.72290039 129.16845703 C-35.67739811 127.10250697 -36.49771255 125.22060941 -37 123 C-35.8359375 119.92578125 -35.8359375 119.92578125 -34 117 C-33.27474665 114.60026464 -32.61041449 112.1814844 -32 109.75 C-30.66114914 104.50675836 -29.23480655 99.31195383 -27.61328125 94.1484375 C-26.2953303 89.53141189 -25.92574979 85.73962045 -26.375 80.9375 C-26.46523437 79.91527344 -26.55546875 78.89304687 -26.6484375 77.83984375 C-26.9413558 75.4737148 -27.35220099 73.28925581 -28 71 C-27.01 70.67 -26.02 70.34 -25 70 C-25 69.34 -25 68.68 -25 68 C-25.55171875 68.50144531 -26.1034375 69.00289063 -26.671875 69.51953125 C-29.56823776 71.36134582 -30.90169799 71.17212266 -34.25 70.6875 C-35.14203125 70.56761719 -36.0340625 70.44773437 -36.953125 70.32421875 C-37.96632812 70.16373047 -37.96632812 70.16373047 -39 70 C-39.37898438 70.95132813 -39.37898438 70.95132813 -39.765625 71.921875 C-41 74 -41 74 -44.75 75.25 C-48.2669862 75.94197021 -51.42336459 76.54427061 -55 76 C-56.45406977 74.80443152 -57.90480924 73.60085239 -59.27734375 72.3125 C-62.4261019 69.91344617 -66.22458793 69.03194597 -70 68 C-70 69.65 -70 71.3 -70 73 C-74.46236469 74.80619523 -77.31034294 75.11658501 -82 74 C-82.33 73.01 -82.66 72.02 -83 71 C-87.97906259 70.24572703 -87.97906259 70.24572703 -93 70 C-94.66666667 70 -96.33333333 70 -98 70 C-98 68 -98 68 -97 67 C-97.99 66.67 -98.98 66.34 -100 66 C-99.67 65.01 -99.34 64.02 -99 63 C-99.66 62.34 -100.32 61.68 -101 61 C-101 59.68 -101 58.36 -101 57 C-104.465 55.515 -104.465 55.515 -108 54 C-108 52.35 -108 50.7 -108 49 C-106.68 48.34 -105.36 47.68 -104 47 C-104.495 46.0409375 -104.495 46.0409375 -105 45.0625 C-106 43 -106 43 -106 42 C-107.65 42 -109.3 42 -111 42 C-109.10098522 33.77093596 -109.10098522 33.77093596 -105 31 C-101.5 30.75 -101.5 30.75 -98 31 C-96.68 31 -95.36 31 -94 31 C-92.32774271 31.30404678 -90.65919896 31.63128912 -89 32 C-87.87483915 30.16715557 -87.87483915 30.16715557 -87 28 C-87.33 27.01 -87.66 26.02 -88 25 C-87.34 24.34 -86.68 23.68 -86 23 C-82.64309937 23.15648149 -79.3608884 23.47633541 -76.02929688 23.8984375 C-72.28608327 24.25856166 -70.39756169 24.2626249 -67.21484375 22.16015625 C-66.48394531 21.44730469 -65.75304687 20.73445313 -65 20 C-56.82151542 14.37505973 -46.52294104 15.19375262 -37 15 C-37 15.99 -37 16.98 -37 18 C-35.88625 18.103125 -34.7725 18.20625 -33.625 18.3125 C-32.42875 18.539375 -31.2325 18.76625 -30 19 C-29.01 20.485 -29.01 20.485 -28 22 C-27.29875 22 -26.5975 22 -25.875 22 C-23 22 -23 22 -19.4453125 23.46875 C-14.61283449 25.33867533 -10.13886233 25.51557231 -5 25.5 C-4.14921875 25.52835938 -3.2984375 25.55671875 -2.421875 25.5859375 C3.99168611 25.605611 7.93981401 23.89408167 13 20 C12.28263925 14.71989182 12.28263925 14.71989182 10 10 C7.38622957 8.22289539 7.38622957 8.22289539 4.375 6.75 C3.37210937 6.22921875 2.36921875 5.7084375 1.3359375 5.171875 C0.56507813 4.78515625 -0.20578125 4.3984375 -1 4 C-1 1 -1 1 0 0 Z " fill="#009BC5" transform="translate(140,46)"/>
<path d="M0 0 C0 0.66 0 1.32 0 2 C-0.66 2.45375 -1.32 2.9075 -2 3.375 C-2.99 4.179375 -2.99 4.179375 -4 5 C-4 6.32 -4 7.64 -4 9 C-6.90600261 10.25664978 -8.79604584 11 -12 11 C-12 11.66 -12 12.32 -12 13 C-16.35535069 11.83857315 -18.64619703 10.92300495 -21 7 C-17.1895803 4.53910394 -14.29739222 2.82131813 -9.75 2.375 C-5.75875628 1.97587563 -3.90383779 0 0 0 Z " fill="#009BC5" transform="translate(104,124)"/>
<path d="M0 0 C1.23556641 0.01740234 1.23556641 0.01740234 2.49609375 0.03515625 C3.32238281 0.04417969 4.14867187 0.05320312 5 0.0625 C5.63808594 0.07410156 6.27617187 0.08570313 6.93359375 0.09765625 C6.93359375 1.41765625 6.93359375 2.73765625 6.93359375 4.09765625 C4.29359375 4.42765625 1.65359375 4.75765625 -1.06640625 5.09765625 C-1.72640625 3.77765625 -2.38640625 2.45765625 -3.06640625 1.09765625 C-2.06640625 0.09765625 -2.06640625 0.09765625 0 0 Z " fill="#009BC5" transform="translate(281.06640625,352.90234375)"/>
<path d="M0 0 C0.66 0 1.32 0 2 0 C3.625 2.5 3.625 2.5 5 5 C3.35 4.67 1.7 4.34 0 4 C0 2.68 0 1.36 0 0 Z " fill="#009BC5" transform="translate(176,310)"/>
<path d="M0 0 C0.66 0 1.32 0 2 0 C2.625 2.375 2.625 2.375 3 5 C2.34 5.66 1.68 6.32 1 7 C0.67 4.69 0.34 2.38 0 0 Z " fill="#009BC5" transform="translate(245,218)"/>
<path d="M0 0 C0.99 0.33 1.98 0.66 3 1 C3 1.66 3 2.32 3 3 C2.01 2.67 1.02 2.34 0 2 C0 1.34 0 0.68 0 0 Z " fill="#009BC5" transform="translate(268,357)"/>
<path d="M0 0 C0.99 0.495 0.99 0.495 2 1 C2 1.66 2 2.32 2 3 C1.34 3 0.68 3 0 3 C0 2.01 0 1.02 0 0 Z " fill="#009BC5" transform="translate(185,339)"/>
</svg>
