<?xml version="1.0" encoding="UTF-8"?>
<svg version="1.1" xmlns="http://www.w3.org/2000/svg" width="400" height="400">
<path d="M0 0 C2.52234319 0.08781267 5.0415165 0.19478007 7.5625 0.3125 C8.61920898 0.34633789 8.61920898 0.34633789 9.69726562 0.38085938 C14.75204942 0.63709265 18.53782526 1.54950812 23 4 C23.72302235 5.87328518 24.43181724 7.75653623 24.99609375 9.68359375 C26.73271814 13.69066871 29.8673083 16.52137686 32.8359375 19.6640625 C39 26.31768953 39 26.31768953 39 30 C40.98 29.34 42.96 28.68 45 28 C45 28.99 45 29.98 45 31 C47.31 30.67 49.62 30.34 52 30 C52 30.66 52 31.32 52 32 C53.98 31.67 55.96 31.34 58 31 C58.495 32.485 58.495 32.485 59 34 C59.99 34 60.98 34 62 34 C62 34.66 62 35.32 62 36 C62.845625 36.0825 63.69125 36.165 64.5625 36.25 C68.72113491 37.15733853 71.39582699 38.76541273 75 41 C75 39.68 75 38.36 75 37 C75.66 36.67 76.32 36.34 77 36 C76.34 35.67 75.68 35.34 75 35 C75 32.69 75 30.38 75 28 C74.01 28.66 73.02 29.32 72 30 C68.8125 30.125 68.8125 30.125 66 30 C65.0625 27.5625 65.0625 27.5625 65 24 C66.87917984 20.57063619 69.02265948 17.54715443 72 15 C74.93167018 14.51519963 76.40691434 14.67879307 79.01953125 16.09375 C79.61121094 16.5578125 80.20289063 17.021875 80.8125 17.5 C81.41707031 17.9640625 82.02164063 18.428125 82.64453125 18.90625 C83.09183594 19.2671875 83.53914062 19.628125 84 20 C83.67 20.99 83.34 21.98 83 23 C87.4702578 25.33106329 87.4702578 25.33106329 92.3125 25.8125 C94.20401105 25.01622257 94.20401105 25.01622257 96 23 C98.125 23.375 98.125 23.375 100 24 C99.67 24.99 99.34 25.98 99 27 C99.23893166 30.14024464 99.8619843 33.06194985 101 36 C103.44209319 38.12112985 103.44209319 38.12112985 106 39 C105.67 40.32 105.34 41.64 105 43 C104.34 43 103.68 43 103 43 C103 44.32 103 45.64 103 47 C100.69 46.67 98.38 46.34 96 46 C98.5550839 48.98093122 101.38281401 50.52359755 105 52 C106.32 51.67 107.64 51.34 109 51 C109 48.03 109 45.06 109 42 C111.74148672 42.37047118 113.58593199 42.68587944 115.8125 44.375 C117 46 117 46 117 49 C117.33 48.34 117.66 47.68 118 47 C117.24849977 43.72226496 117.24849977 43.72226496 114 42 C113.19905967 38.99647377 112.83968651 36.74144989 113.5 33.6875 C114.2485134 29.66424047 113.5436799 26.04739481 113 22 C115.97 22 118.94 22 122 22 C121.67 23.65 121.34 25.3 121 27 C120.01 27 119.02 27 118 27 C118.39971031 29.87791422 118.71549082 31.64720862 120.5625 33.9375 C122.48599498 36.69729715 122.22407551 38.71355915 122 42 C122.99 42 123.98 42 125 42 C125.33 42.99 125.66 43.98 126 45 C126.33 44.34 126.66 43.68 127 43 C128.8125 43.125 128.8125 43.125 131 44 C132.75 47.0625 132.75 47.0625 134 50 C134.5745952 46.26513121 135 42.78706732 135 39 C132.36 38.67 129.72 38.34 127 38 C126.67 36.35 126.34 34.7 126 33 C125.34 33 124.68 33 124 33 C123.91868537 31.56344146 123.86066441 30.1255517 123.8125 28.6875 C123.77769531 27.88699219 123.74289063 27.08648437 123.70703125 26.26171875 C124 24 124 24 125.36328125 22.17578125 C125.90339844 21.78777344 126.44351563 21.39976563 127 21 C127.78375 21.165 128.5675 21.33 129.375 21.5 C132.08335053 22.32542267 132.08335053 22.32542267 134.375 20.5 C137 19 137 19 140.375 19 C144.20832479 20.05746891 146.23591076 21.45725306 149.296875 23.86328125 C151.72462349 25.48363632 154.14224511 25.66770292 157 26 C157.99 26.99 157.99 26.99 159 28 C160.32 28 161.64 28 163 28 C163.99 28 164.98 28 166 28 C166 28.99 166 29.98 166 31 C166.99 31 167.98 31 169 31 C168.67 31.99 168.34 32.98 168 34 C169.89248819 34.67610423 171.7891602 35.34050439 173.6875 36 C174.74324219 36.37125 175.79898438 36.7425 176.88671875 37.125 C179.78362056 37.9391857 182.01700623 38.17709796 185 38 C185.2165625 39.60875 185.2165625 39.60875 185.4375 41.25 C185.83749442 43.91662949 186.27591924 46.41399729 187 49 C183.28111761 48.49287967 180.26545761 47.88391785 177 46 C177 46.66 177 47.32 177 48 C177.68707031 48.30292969 178.37414062 48.60585937 179.08203125 48.91796875 C188.21915319 53.16627294 188.21915319 53.16627294 190 58 C190 58.99 190 59.98 190 61 C187.03 60.505 187.03 60.505 184 60 C185.44197868 61.44197868 187.17691571 62.11786244 189 63 C189 63.66 189 64.32 189 65 C184.05 65 179.1 65 174 65 C174 64.34 174 63.68 174 63 C168.42259303 61.76057623 163.623173 62.13489646 158 63 C158 61.02 158 59.04 158 57 C159.65 56.34 161.3 55.68 163 55 C162.67421616 52.99875639 162.33944795 50.99897128 162 49 C161.8453125 47.6696875 161.8453125 47.6696875 161.6875 46.3125 C160.79011054 43.29400817 159.65859415 42.62469642 157 41 C156.195625 40.46375 155.39125 39.9275 154.5625 39.375 C149.46225976 36.63828572 145.63802836 37.00505382 140 38 C140 38.66 140 39.32 140 40 C140.61875 40.04125 141.2375 40.0825 141.875 40.125 C144 41 144 41 145.1875 43.75 C145.5896875 45.35875 145.5896875 45.35875 146 47 C146.37125 48.3303125 146.37125 48.3303125 146.75 49.6875 C147 52 147 52 145 55 C144.01 55 143.02 55 142 55 C142 55.99 142 56.98 142 58 C140.68 58 139.36 58 138 58 C138.04125 59.2375 138.0825 60.475 138.125 61.75 C138.13658291 65.01637962 137.8568702 67.2146947 136 70 C134.68 70 133.36 70 132 70 C131.938125 71.051875 131.87625 72.10375 131.8125 73.1875 C130.83997309 77.7508955 129.27414484 78.80381099 126 82 C123.31599243 86.95751987 122.65205034 91.4328055 123 97 C124.175625 97.37125 124.175625 97.37125 125.375 97.75 C128 99 128 99 129.3125 100.9375 C130 103 130 103 130 106 C131.50433594 105.64615234 131.50433594 105.64615234 133.0390625 105.28515625 C137.71123446 104.94879673 140.41273823 106.25663658 144.375 108.4375 C150.25911476 111.45562938 154.28616639 112.68276274 161 112 C163 113 163 113 163.7109375 115.03125 C164.15329634 116.67578406 164.59080781 118.32162974 165.0234375 119.96875 C165.80982055 122.20589028 165.80982055 122.20589028 168.1015625 122.78125 C169.04128906 122.88953125 169.04128906 122.88953125 170 123 C170 124.32 170 125.64 170 127 C171.4166747 128.7511573 171.4166747 128.7511573 173 130 C173.99 129.67 174.98 129.34 176 129 C175.55946901 123.49336268 174.17541154 120.46542248 171 116 C170 113.9375 170 113.9375 170 112 C171.27358732 110.28724465 172.61423077 108.62332967 174 107 C175.72837928 104.72183194 175.72837928 104.72183194 176 102 C174.20509925 98.13668981 172.09452099 95.48645377 168.1875 93.75 C166 92 166 92 165.6875 89.37890625 C165.6875 86.56911941 165.78599506 83.80108687 166 81 C165.34 81 164.68 81 164 81 C162.12874871 77.14742381 162.00969769 75.12048864 163 71 C175.3158834 69.34592504 175.3158834 69.34592504 181 73 C182.0725 73.28875 183.145 73.5775 184.25 73.875 C187 75 187 75 188.25 77.5625 C188.4975 78.366875 188.745 79.17125 189 80 C189.66 80.33 190.32 80.66 191 81 C191 81.66 191 82.32 191 83 C193.97 83.495 193.97 83.495 197 84 C198.0070238 78.96488101 197.97387813 75.76052962 196 71 C200.21296303 71.67407408 203.42592112 73.77463013 207 76 C207.33 76.66 207.66 77.32 208 78 C208.99 78.33 209.98 78.66 211 79 C211.33 79.66 211.66 80.32 212 81 C214.01669827 82.13350534 214.01669827 82.13350534 216 83 C216 83.99 216 84.98 216 86 C216.969375 86.309375 217.93875 86.61875 218.9375 86.9375 C222 88 222 88 223 89 C224.91424457 88.8981629 224.91424457 88.8981629 227.0625 88.5625 C228.361875 88.376875 229.66125 88.19125 231 88 C231 88.99 231 89.98 231 91 C231.886875 90.731875 232.77375 90.46375 233.6875 90.1875 C237 90 237 90 239.8125 92.125 C241.96472514 94.95363875 242.70118318 96.51380377 243 100 C243.99 100 244.98 100 246 100 C246.66 101.98 247.32 103.96 248 106 C251.37817425 106.84454356 253.67465243 107.10844919 257 106 C257.33 107.32 257.66 108.64 258 110 C258.66 110 259.32 110 260 110 C260.33 110.66 260.66 111.32 261 112 C262.32 112 263.64 112 265 112 C265.33 114.31 265.66 116.62 266 119 C262.125 118.125 262.125 118.125 261 117 C260.34 118.32 259.68 119.64 259 121 C258.34 121 257.68 121 257 121 C257 120.34 257 119.68 257 119 C256.07767578 119.54140625 256.07767578 119.54140625 255.13671875 120.09375 C253.92435547 120.78984375 253.92435547 120.78984375 252.6875 121.5 C251.88699219 121.9640625 251.08648437 122.428125 250.26171875 122.90625 C248 124 248 124 245 124 C245 122.68 245 121.36 245 120 C244.34 120 243.68 120 243 120 C243.02320313 119.43152344 243.04640625 118.86304688 243.0703125 118.27734375 C243.19191688 113.07441352 242.67723492 108.92687757 241 104 C238.87261056 106.84413679 238.87261056 106.84413679 238.20703125 109.95703125 C236.70145075 113.7526533 235.17904962 114.66060584 231.6875 116.6875 C230.27017578 117.52861328 230.27017578 117.52861328 228.82421875 118.38671875 C226.95690286 119.45338744 225.08061193 120.504511 223.1953125 121.5390625 C220.73762435 122.8385525 220.73762435 122.8385525 220.1875 125.6875 C220.125625 126.450625 220.06375 127.21375 220 128 C220.556875 127.484375 221.11375 126.96875 221.6875 126.4375 C224 125 224 125 226.75 125.3125 C227.4925 125.539375 228.235 125.76625 229 126 C230.125 129.75 230.125 129.75 229 132 C229.66 132.33 230.32 132.66 231 133 C232 134.66666667 233 136.33333333 234 138 C234.66 138.33 235.32 138.66 236 139 C236.33 137.68 236.66 136.36 237 135 C238.32 134.67 239.64 134.34 241 134 C241 134.99 241 135.98 241 137 C241.66 137 242.32 137 243 137 C243 135.02 243 133.04 243 131 C243.99 130.67 244.98 130.34 246 130 C246 130.66 246 131.32 246 132 C246.99 132 247.98 132 249 132 C249 132.99 249 133.98 249 135 C248.01 135 247.02 135 246 135 C246.268125 135.70125 246.53625 136.4025 246.8125 137.125 C247 140 247 140 244.625 143.1875 C243.75875 144.115625 242.8925 145.04375 242 146 C241.67 146.66 241.34 147.32 241 148 C240.34 148 239.68 148 239 148 C238.34 150.31 237.68 152.62 237 155 C236.01 155 235.02 155 234 155 C233.34 152.69 232.68 150.38 232 148 C231.01 148.33 230.02 148.66 229 149 C228.67 150.65 228.34 152.3 228 154 C227.34 154 226.68 154 226 154 C225.87625 154.639375 225.7525 155.27875 225.625 155.9375 C225.41875 156.618125 225.2125 157.29875 225 158 C224.34 158.33 223.68 158.66 223 159 C222.53248212 161.35599235 222.53248212 161.35599235 222.375 164.0625 C222.30023438 164.98160156 222.22546875 165.90070313 222.1484375 166.84765625 C222.09945313 167.55792969 222.05046875 168.26820313 222 169 C223.32 169.33 224.64 169.66 226 170 C226 170.66 226 171.32 226 172 C223.45625453 173.75639568 220.88273414 175.44530895 218.265625 177.08984375 C216.33889751 178.37358424 216.33889751 178.37358424 214 181 C213.53020118 183.80259297 213.76474109 186.12984128 214 189 C213.67 189.66 213.34 190.32 213 191 C212.34 191 211.68 191 211 191 C211.33 191.66 211.66 192.32 212 193 C212.039992 194.99960012 212.04346799 197.00047242 212 199 C210.68 198.67 209.36 198.34 208 198 C209.11854586 201.72614153 209.11854586 201.72614153 212 204 C212.484375 205.99609375 212.484375 205.99609375 212.75 208.4375 C212.84796875 209.24058594 212.9459375 210.04367188 213.046875 210.87109375 C213 213 213 213 211 215 C210.70609375 215.61617187 210.4121875 216.23234375 210.109375 216.8671875 C208.80528559 219.37434531 207.19711458 221.079775 205.25 223.125 C197.87351044 230.92991671 197.87351044 230.92991671 195.09375 240.77734375 C196.47570042 245.69160711 198.8352783 250.04222987 201.20507812 254.546875 C203.7546342 259.65520796 204.58170324 263.2809387 204 269 C203.34 269.99 202.68 270.98 202 272 C199 272 199 272 196.875 270.1875 C195 268 195 268 194 265 C193.01 264.67 192.02 264.34 191 264 C191 262.35 191 260.7 191 259 C190.34 259 189.68 259 189 259 C188.731875 258.05125 188.46375 257.1025 188.1875 256.125 C187.25013412 252.74732727 187.25013412 252.74732727 184 251 C181.99715841 251.01042407 181.99715841 251.01042407 179.9375 251.4375 C176 252 176 252 174 251 C168.59513542 250.6694867 163.30735995 250.88266106 158 252 C158 253.32 158 254.64 158 256 C158.66 256 159.32 256 160 256 C160 256.99 160 257.98 160 259 C159.195625 258.814375 158.39125 258.62875 157.5625 258.4375 C156.716875 258.293125 155.87125 258.14875 155 258 C154.67 258.33 154.34 258.66 154 259 C151.45253973 259.14152557 149.28943001 259.07442486 146.8125 258.4375 C141.99244666 257.68771392 136.49763281 257.50790767 132.1953125 260.078125 C130.74397423 261.32642631 129.36946227 262.66238569 128 264 C126.3497306 265.0268343 124.68756133 266.03567924 123 267 C121.72338547 268.04713225 121.72338547 268.04713225 121.9375 270.3984375 C121.97905735 272.37760646 122.02072344 274.35677315 122.0625 276.3359375 C122 279 122 279 121 282 C120.34 282 119.68 282 119 282 C118.71059654 290.91362659 119.19542877 298.16517428 124.125 305.8125 C124.49101318 306.39209473 124.85702637 306.97168945 125.23413086 307.56884766 C128.28283443 311.91673308 131.06660672 313.48502096 136 315 C138.35342202 314.99115396 138.35342202 314.99115396 140.4375 314.25 C144.64091137 313.07997828 148.66265798 312.47316458 153 312 C153.17015625 311.32453125 153.3403125 310.6490625 153.515625 309.953125 C156.03520857 300.67891313 156.03520857 300.67891313 160 298 C165.0776979 295.46115105 169.35721884 294.64732618 175 295 C174.690625 295.969375 174.38125 296.93875 174.0625 297.9375 C172.98329259 301.63548344 172.60774387 305.24752024 172.34375 309.08203125 C172 311 172 311 170 313 C169.57812196 314.90580868 169.57812196 314.90580868 169.4375 317 C169.22315216 319.37969847 169.07661332 320.84677336 168 323 C169.58367747 322.85795259 171.16693318 322.71119847 172.75 322.5625 C173.63171875 322.48128906 174.5134375 322.40007812 175.421875 322.31640625 C177.69820685 322.03703825 179.78289156 321.56117683 182 321 C186.80378214 320.73312321 190.55700776 321.09586047 195 323 C196.14358358 325.28716715 196.13384847 326.58548877 196.125 329.125 C196.12628906 329.929375 196.12757813 330.73375 196.12890625 331.5625 C196.00677495 333.87189191 195.58420409 335.8803572 195.0625 338.125 C194.9931294 342.42597701 195.29574835 342.97841596 198.0625 346 C200.4226714 348.02565892 201.7787819 348.94100851 204.8125 349.75 C207.93885677 349.01438664 210.01599465 347.96953611 212.8125 346.4375 C217.28323428 344.04318845 220.21827332 343.62040415 225.1875 344.41015625 C227 345 227 345 229 347 C228.625 349.625 228.625 349.625 228 352 C226.35 352.33 224.7 352.66 223 353 C222.67 352.01 222.34 351.02 222 350 C220.35 350 218.7 350 217 350 C215.79371992 352.33214148 214.8345262 354.49642139 214 357 C213.21496094 356.9278125 212.42992187 356.855625 211.62109375 356.78125 C204.81871995 356.13718576 204.81871995 356.13718576 198 356.1875 C194.16168057 355.94760504 193.64373524 354.64373524 191 352 C188.30265262 351.34783671 185.78583407 351.18572227 183 351 C182.92910156 350.24074219 182.85820312 349.48148437 182.78515625 348.69921875 C181.77414365 345.22354858 180.51398768 344.60832144 177.4375 342.8125 C175.93004548 341.92119694 174.44215915 340.99348742 173 340 C173 339.34 173 338.68 173 338 C172.09378906 338.03480469 171.18757812 338.06960938 170.25390625 338.10546875 C161.78956249 338.29356528 154.81909999 338.16032332 147.60546875 333.4296875 C141.81482478 329.69658869 137.92801373 328.7150794 131.125 329.5625 C115.35021395 331.38129463 96.82573183 323.12203857 84.31176758 313.73339844 C81.02757946 311.07853642 78.94431208 309.19694258 78 305 C78.20625 304.236875 78.4125 303.47375 78.625 302.6875 C79.2197401 298.42519595 77.40279053 295.4608375 75 292 C73.30166287 290.35277024 71.53476656 288.90218924 69.671875 287.4453125 C67.23008954 285.3344232 65.72196174 282.70593988 64 280 C63.01 279.34 62.02 278.68 61 278 C60.690625 277.05125 60.38125 276.1025 60.0625 275.125 C58.90700762 271.72649301 57.52935106 270.44503936 55 268 C55 267.01 55 266.02 55 265 C54.13375 264.6596875 54.13375 264.6596875 53.25 264.3125 C50.21593608 262.54262938 48.87625552 261.00200884 47 258 C46.63763196 256.3434604 46.32914258 254.67461511 46.0625 253 C45.25795002 248.05460107 43.89823185 246.07755146 40 243 C40.21788357 249.75439074 41.66685719 253.6843895 45.3125 259.328125 C49.65675846 266.20653423 52.92331348 273.38545344 55.27734375 281.15234375 C56.28642903 283.73232936 57.85308228 285.29727215 60 287 C59.67 287.99 59.34 288.98 59 290 C57.68 290 56.36 290 55 290 C52.5 287.25 52.5 287.25 51.234375 285.5703125 C49.95407136 283.82934857 49.95407136 283.82934857 47.75 282.125 C45.77629907 279.72836316 45.76426854 278.93130894 45.5625 275.9375 C45.45976369 271.94907807 45.45976369 271.94907807 42.8125 270.3125 C41.884375 269.879375 40.95625 269.44625 40 269 C37.85947766 267.4423429 35.96804988 265.78497548 34 264 C34 263.34 34 262.68 34 262 C35.32 262 36.64 262 38 262 C37.5875 260.96875 37.175 259.9375 36.75 258.875 C36.51796875 258.29492188 36.2859375 257.71484375 36.046875 257.1171875 C34.98359518 254.8210795 34.98359518 254.8210795 33.05078125 252.29296875 C30.64253847 248.42601892 29.5718951 244.81084136 28.4375 240.4375 C27.12697648 235.45924068 25.8117213 231.37650533 23 227 C23 226.34 23 225.68 23 225 C22.21625 224.690625 21.4325 224.38125 20.625 224.0625 C18 223 18 223 16 222 C13.72813885 216.35351298 11.67692815 210.45293218 11.9375 204.3125 C11.958125 203.219375 11.97875 202.12625 12 201 C11.01 200.34 10.02 199.68 9 199 C6.66911501 192.11626489 6.67422758 186.17256115 9.15234375 179.4140625 C9.9978448 177.00613786 10.42299149 174.76745501 10.8125 172.25 C11.61886179 167.82891293 13.20487526 164.08677442 15.0625 160 C18.309122 152.74842092 19 146.82469593 19 139 C18.34 139 17.68 139 17 139 C16.16209211 137.21046815 15.32980604 135.41830305 14.5 133.625 C14.0359375 132.62726563 13.571875 131.62953125 13.09375 130.6015625 C12 128 12 128 12 126 C13.65 126.33 15.3 126.66 17 127 C16.67 126.67 16.34 126.34 16 126 C16.09031574 123.64305046 16.24688128 121.28846418 16.4375 118.9375 C16.53933594 117.64714844 16.64117187 116.35679687 16.74609375 115.02734375 C16.87177734 113.52880859 16.87177734 113.52880859 17 112 C15.515 111.505 15.515 111.505 14 111 C13.85714286 103.57142857 13.85714286 103.57142857 15 100 C14.195625 100.185625 13.39125 100.37125 12.5625 100.5625 C11.2940625 100.7790625 11.2940625 100.7790625 10 101 C8.12356239 99.12356239 8.82015013 96.50194299 8.76953125 94.0078125 C9 92 9 92 11 89 C10.67 88.67 10.34 88.34 10 88 C10 86.68 10 85.36 10 84 C9.01 84 8.02 84 7 84 C7.226875 83.46375 7.45375 82.9275 7.6875 82.375 C8.24843556 79.82594926 8.24843556 79.82594926 6.5625 77.125 C4.87460608 73.74921217 4.73469888 71.71421564 5 68 C4.34 68 3.68 68 3 68 C-1.64009624 63.83581106 -4.49466203 60.02135187 -6 54 C-6.99 53.505 -6.99 53.505 -8 53 C-8.33 53.99 -8.66 54.98 -9 56 C-12.3 56 -15.6 56 -19 56 C-18.7215625 54.7934375 -18.7215625 54.7934375 -18.4375 53.5625 C-18.293125 52.716875 -18.14875 51.87125 -18 51 C-18.33 50.67 -18.66 50.34 -19 50 C-20.32 50 -21.64 50 -23 50 C-23.33 51.32 -23.66 52.64 -24 54 C-28.63653986 55.0750042 -33.26491866 55.47043649 -38 55.8125 C-38.7940625 55.88919922 -39.588125 55.96589844 -40.40625 56.04492188 C-44.61576971 56.33608032 -46.41295999 56.38112674 -50.0625 54.01171875 C-50.701875 53.34785156 -51.34125 52.68398437 -52 52 C-51.67 51.01 -51.34 50.02 -51 49 C-50.1646875 49.5259375 -50.1646875 49.5259375 -49.3125 50.0625 C-46.40793638 51.24002579 -45.02618464 50.64846814 -42 50 C-38.6875 50.4375 -38.6875 50.4375 -36 51 C-34.46309255 48.58959839 -33.90247864 47.49917715 -34.4609375 44.640625 C-34.76257813 43.85171875 -35.06421875 43.0628125 -35.375 42.25 C-35.67148437 41.45078125 -35.96796875 40.6515625 -36.2734375 39.828125 C-36.51320313 39.22484375 -36.75296875 38.6215625 -37 38 C-36.34 37.34 -35.68 36.68 -35 36 C-35.226875 35.13375 -35.45375 34.2675 -35.6875 33.375 C-36.08630651 29.06788968 -34.93257036 27.19161164 -32.52734375 23.70703125 C-30.26152253 21.17464283 -28.3285834 20.48541841 -25 20 C-22.4375 20.3125 -22.4375 20.3125 -20 21 C-19.071875 21.185625 -18.14375 21.37125 -17.1875 21.5625 C-16.465625 21.706875 -15.74375 21.85125 -15 22 C-14.34 21.01 -13.68 20.02 -13 19 C-13.99 18.67 -14.98 18.34 -16 18 C-18 15 -18 15 -17.75 13.0625 C-17 11 -17 11 -15 7 C-12.03 7.33 -9.06 7.66 -6 8 C-5.505 10.475 -5.505 10.475 -5 13 C-2.57101579 10.57101579 -2.60536959 9.32953274 -2 6 C-1.34816603 3.99511673 -0.68317226 1.99442225 0 0 Z M79 44 C78.61781233 45.65614657 78.28604898 47.32457024 78 49 C79.03406673 50.25949049 79.03406673 50.25949049 81.28515625 50.09765625 C82.20167969 50.08605469 83.11820313 50.07445312 84.0625 50.0625 C84.98160156 50.05347656 85.90070313 50.04445313 86.84765625 50.03515625 C87.55792969 50.02355469 88.26820313 50.01195312 89 50 C89.33 50.66 89.66 51.32 90 52 C90.66 50.02 91.32 48.04 92 46 C91.09507812 46.16048828 91.09507812 46.16048828 90.171875 46.32421875 C83.5626072 47.31560892 83.5626072 47.31560892 80.4375 45.5625 C79.963125 45.046875 79.48875 44.53125 79 44 Z M90 54 C91 56 91 56 91 56 Z M13 91 C12.34 91.66 11.68 92.32 11 93 C11.33 93.99 11.66 94.98 12 96 C12.66 96 13.32 96 14 96 C14 94.35 14 92.7 14 91 C13.67 91 13.34 91 13 91 Z M242 100 C243 102 243 102 243 102 Z M218 129 C219 131 219 131 219 131 Z M233 145 C234 147 234 147 234 147 Z " fill="#009BC5" transform="translate(74,43)"/>
<path d="M0 0 C7.4 1.4 7.4 1.4 10 4 C11.99172182 4.69100553 13.99161804 5.35902703 16 6 C16.495 6.495 16.495 6.495 17 7 C18.68183948 7.23287008 20.3712416 7.41264166 22.0625 7.5625 C22.98160156 7.64628906 23.90070313 7.73007813 24.84765625 7.81640625 C25.55792969 7.87699219 26.26820313 7.93757812 27 8 C27.495 9.485 27.495 9.485 28 11 C30.31 11 32.62 11 35 11 C35 11.66 35 12.32 35 13 C36.65 13 38.3 13 40 13 C40 13.66 40 14.32 40 15 C41.32 15 42.64 15 44 15 C44.495 17.475 44.495 17.475 45 20 C45 19.34 45 18.68 45 18 C46.98 18.495 46.98 18.495 49 19 C49 19.66 49 20.32 49 21 C49.9075 20.95875 50.815 20.9175 51.75 20.875 C54.8782046 20.99531556 56.38614006 21.3914708 59 23 C59 23.66 59 24.32 59 25 C59.598125 25.04125 60.19625 25.0825 60.8125 25.125 C63 26 63 26 64.6875 28.5625 C66.542614 33.42113192 67.69236616 37.92290152 66 43 C67.00659838 44.63223085 67.00659838 44.63223085 68.4375 46.3125 C72.32149217 52.03119566 71.41945318 58.36331862 71 65 C71.93585938 65.41958984 71.93585938 65.41958984 72.890625 65.84765625 C75.71197495 67.38894928 76.60718808 69.14473556 78 72 C78 72.99 78 73.98 78 75 C78.8971875 75.309375 78.8971875 75.309375 79.8125 75.625 C82.91064331 77.57240437 83.73689741 79.60956674 85 83 C84.6875 85.875 84.6875 85.875 84 88 C82.35 87.67 80.7 87.34 79 87 C79 87.99 79 88.98 79 90 C72.56128848 89.09938691 67.54279508 87.51671515 61.96484375 84.1640625 C59.72675174 82.83811534 57.4206708 81.94137198 55 81 C52.1875 79.5 52.1875 79.5 50 78 C50 77.34 50 76.68 50 76 C49.34 76 48.68 76 48 76 C48 75.01 48 74.02 48 73 C46.68 73 45.36 73 44 73 C42.25 71.6875 42.25 71.6875 41 70 C41 69.01 41 68.02 41 67 C41.66 66.67 42.32 66.34 43 66 C42.34 64.68 41.68 63.36 41 62 C40.443125 62.33 39.88625 62.66 39.3125 63 C36.69715478 64.1309601 34.8193354 64.15662974 32 64 C30 58.25 30 58.25 30 56 C28.515 55.505 28.515 55.505 27 55 C27 55.66 27 56.32 27 57 C23.12078079 56.44582583 21.67829872 54.75482154 19 52 C14.63893871 48.35851382 10.68831534 46.05339173 5 45 C1.42357594 45.32512946 0.04538882 45.96974078 -3 48 C-4.32 48 -5.64 48 -7 48 C-7 47.01 -7 46.02 -7 45 C-7.66 45 -8.32 45 -9 45 C-9 44.34 -9 43.68 -9 43 C-10.98 42.67 -12.96 42.34 -15 42 C-15.17942163 38.05272412 -15.09350689 35.4019487 -13 32 C-14.65 31.34 -16.3 30.68 -18 30 C-17.67 31.32 -17.34 32.64 -17 34 C-17.66 34 -18.32 34 -19 34 C-19.6814823 35.89179203 -19.6814823 35.89179203 -20 38 C-19.34 38.66 -18.68 39.32 -18 40 C-18.33333333 42 -18.66666667 44 -19 46 C-18.34 46.66 -17.68 47.32 -17 48 C-17.1875 50.0625 -17.1875 50.0625 -18 52 C-21.01490557 53.00496852 -23.04181692 53.10335303 -26.1875 53.0625 C-27.08855469 53.05347656 -27.98960937 53.04445312 -28.91796875 53.03515625 C-29.60503906 53.02355469 -30.29210937 53.01195312 -31 53 C-30.67 50.69 -30.34 48.38 -30 46 C-30.99 46 -31.98 46 -33 46 C-34.33981486 45.6937566 -35.67511887 45.36548445 -37 45 C-37 44.34 -37 43.68 -37 43 C-37.66 43 -38.32 43 -39 43 C-41.62248477 39.79474083 -42.03113289 38.37982123 -41.6875 34.1875 C-41.460625 33.135625 -41.23375 32.08375 -41 31 C-39.68 31.33 -38.36 31.66 -37 32 C-37.33 30.35 -37.66 28.7 -38 27 C-37.01 27 -36.02 27 -35 27 C-35 26.34 -35 25.68 -35 25 C-34.34 25 -33.68 25 -33 25 C-32.67 23.68 -32.34 22.36 -32 21 C-27.14730934 19.41544795 -23.1744687 18.68953188 -18 19 C-17.67 19.33 -17.34 19.66 -17 20 C-15.45833358 18.62514468 -15.45833358 18.62514468 -14 17 C-14 16.34 -14 15.68 -14 15 C-12.68 15 -11.36 15 -10 15 C-10 14.34 -10 13.68 -10 13 C-11.32 13 -12.64 13 -14 13 C-13.40140845 7.61267606 -13.40140845 7.61267606 -11.8125 5.1875 C-9.30877752 3.5471301 -6.9410233 3.32678037 -4 3 C-3.505 4.485 -3.505 4.485 -3 6 C-2.34 6 -1.68 6 -1 6 C-0.67 4.02 -0.34 2.04 0 0 Z M44 22 C45 24 45 24 45 24 Z M-17 23 C-17.33 23.66 -17.66 24.32 -18 25 C-17.34 25.66 -16.68 26.32 -16 27 C-16.33 25.68 -16.66 24.36 -17 23 Z M54 26 C54.33 26.66 54.66 27.32 55 28 C55.66 27.67 56.32 27.34 57 27 C57.33 27.99 57.66 28.98 58 30 C58.33 28.35 58.66 26.7 59 25 C56.78918149 24.89459074 56.78918149 24.89459074 54 26 Z M-35 34 C-34.01 34.495 -34.01 34.495 -33 35 C-32.67 35.66 -32.34 36.32 -32 37 C-32 36.01 -32 35.02 -32 34 C-32.99 34 -33.98 34 -35 34 Z M37 59 C38 61 38 61 38 61 Z " fill="#009BC5" transform="translate(226,0)"/>
<path d="M0 0 C3.60342315 0.94485646 7.22449331 1.67210685 10.8828125 2.3671875 C12.95502377 2.78012815 14.99396468 3.26700875 17.0390625 3.796875 C17.0390625 4.786875 17.0390625 5.776875 17.0390625 6.796875 C7.62903972 10.24106634 7.62903972 10.24106634 3.0390625 9.796875 C3.0390625 9.136875 3.0390625 8.476875 3.0390625 7.796875 C-2.68482511 5.90190948 -8.07836816 5.29052144 -14.0859375 4.984375 C-14.96636719 4.92056641 -15.84679687 4.85675781 -16.75390625 4.79101562 C-21.83762968 4.51881022 -24.7138858 4.69572593 -28.9609375 7.796875 C-29.9509375 7.796875 -30.9409375 7.796875 -31.9609375 7.796875 C-31.34375 5.47265625 -31.34375 5.47265625 -29.9609375 2.796875 C-19.54631832 -3.17751702 -11.20509285 -3.00693631 0 0 Z " fill="#009BC5" transform="translate(291.9609375,326.203125)"/>
<path d="M0 0 C-1 3 -1 3 -3.25 4.1875 C-5.99791147 4.99938294 -8.15447889 5.16260121 -11 5 C-11.268125 5.639375 -11.53625 6.27875 -11.8125 6.9375 C-13 9 -13 9 -16 10 C-16.845625 10.165 -17.69125 10.33 -18.5625 10.5 C-20.99414942 10.88942398 -20.99414942 10.88942398 -23 12 C-24.99960012 12.039992 -27.00047242 12.04346799 -29 12 C-29 11.01 -29 10.02 -29 9 C-26.69 8.01 -24.38 7.02 -22 6 C-22 5.34 -22 4.68 -22 4 C-22.99 3.67 -23.98 3.34 -25 3 C-24 1 -24 1 -21.99609375 0.1484375 C-14.09647931 -2.23953755 -7.91289578 -3.16515831 0 0 Z " fill="#009BC5" transform="translate(339,328)"/>
<path d="M0 0 C-0.061875 0.7425 -0.12375 1.485 -0.1875 2.25 C0.03094296 5.45383006 0.90250005 6.64031256 3 9 C3.66 7.68 4.32 6.36 5 5 C5.99 5.33 6.98 5.66 8 6 C8 6.99 8 7.98 8 9 C8.99 9 9.98 9 11 9 C10.67 10.65 10.34 12.3 10 14 C5.58774263 15.47075246 2.51718381 16.36884358 -2 15 C-2 14.34 -2 13.68 -2 13 C-2.99 13 -3.98 13 -5 13 C-4.37240135 10.07120629 -3.41377341 7.63904371 -2 5 C-2.99 5.66 -3.98 6.32 -5 7 C-6.32 7 -7.64 7 -9 7 C-9 5.68 -9 4.36 -9 3 C-5.69865082 0.43228397 -4.27125508 0 0 0 Z " fill="#009BC5" transform="translate(163,46)"/>
<path d="M0 0 C0.928125 0.33 1.85625 0.66 2.8125 1 C5.92029291 2.14967004 5.92029291 2.14967004 9 2 C9.99 3.485 9.99 3.485 11 5 C17.435 4.505 17.435 4.505 24 4 C24.66 5.32 25.32 6.64 26 8 C22.36750735 11.63249265 17.12179549 11.90804955 12.1875 12.3125 C9 12 9 12 7.1875 10.75 C6 9 6 9 5.0625 6.875 C4.15354435 4.79278299 4.15354435 4.79278299 1.875 4.25 C1.25625 4.1675 0.6375 4.085 0 4 C0 2.68 0 1.36 0 0 Z " fill="#009BC5" transform="translate(185,50)"/>
<path d="M0 0 C5.04930732 0.48088641 7.87830215 2.13273193 12 5 C14.22602615 5.76939681 14.22602615 5.76939681 16 6 C16 7.32 16 8.64 16 10 C10.25 10.125 10.25 10.125 8 9 C7.67 10.32 7.34 11.64 7 13 C1.125 12.125 1.125 12.125 0 11 C-0.07226502 9.14712498 -0.0838122 7.29166122 -0.0625 5.4375 C-0.05347656 4.42558594 -0.04445312 3.41367188 -0.03515625 2.37109375 C-0.02355469 1.58863281 -0.01195312 0.80617188 0 0 Z " fill="#009BC5" transform="translate(213,103)"/>
<path d="M0 0 C2.31 0 4.62 0 7 0 C7.24954005 1.43410368 7.47392642 2.87260072 7.6875 4.3125 C7.81511719 5.11300781 7.94273437 5.91351563 8.07421875 6.73828125 C8 9 8 9 6.51953125 10.79296875 C6.01808594 11.19128906 5.51664063 11.58960937 5 12 C1.72518425 11.02640613 0.23794891 10.30933359 -1.875 7.5625 C-3 5 -3 5 -2 2 C-1.34 2 -0.68 2 0 2 C0 1.34 0 0.68 0 0 Z " fill="#009BC5" transform="translate(179,66)"/>
<path d="M0 0 C4.875 0.875 4.875 0.875 6 2 C6.04080783 3.99958364 6.04254356 6.00045254 6 8 C4.35 7.67 2.7 7.34 1 7 C0.67 4.69 0.34 2.38 0 0 Z " fill="#009BC5" transform="translate(179,53)"/>
<path d="M0 0 C0.99 0.33 1.98 0.66 3 1 C3 1.66 3 2.32 3 3 C2.01 3 1.02 3 0 3 C-0.33 3.99 -0.66 4.98 -1 6 C-2.65 6 -4.3 6 -6 6 C-6.33 4.35 -6.66 2.7 -7 1 C-5.5459375 1.0309375 -5.5459375 1.0309375 -4.0625 1.0625 C-1.12534105 1.35618499 -1.12534105 1.35618499 0 0 Z " fill="#009BC5" transform="translate(48,98)"/>
<path d="M0 0 C-0.33 0.99 -0.66 1.98 -1 3 C-3.64 3.33 -6.28 3.66 -9 4 C-8.6875 2.0625 -8.6875 2.0625 -8 0 C-4.71023192 -1.09658936 -3.28696233 -0.79953138 0 0 Z " fill="#009BC5" transform="translate(302,343)"/>
<path d="M0 0 C4.75 0.75 4.75 0.75 7 3 C7 4.32 7 5.64 7 7 C4.08482708 5.92598892 2.22189824 5.22189824 0 3 C0 2.01 0 1.02 0 0 Z " fill="#009BC5" transform="translate(175,40)"/>
<path d="M0 0 C-0.625 1.9375 -0.625 1.9375 -2 4 C-5.125 4.75 -5.125 4.75 -8 5 C-8 4.01 -8 3.02 -8 2 C-4.91190305 0.23537317 -3.76687864 0 0 0 Z " fill="#009BC5" transform="translate(351,324)"/>
<path d="M0 0 C1.32 0.66 2.64 1.32 4 2 C3.34 3.98 2.68 5.96 2 8 C1.01 8 0.02 8 -1 8 C-1.04241723 5.66705225 -1.04092937 3.33297433 -1 1 C-0.67 0.67 -0.34 0.34 0 0 Z " fill="#009BC5" transform="translate(80,146)"/>
<path d="M0 0 C1.32 0 2.64 0 4 0 C4 1.65 4 3.3 4 5 C3.01 5.33 2.02 5.66 1 6 C0.67 4.02 0.34 2.04 0 0 Z " fill="#009BC5" transform="translate(228,86)"/>
<path d="M0 0 C0.99 0 1.98 0 3 0 C3 1.65 3 3.3 3 5 C1.68 4.67 0.36 4.34 -1 4 C-0.67 2.68 -0.34 1.36 0 0 Z " fill="#009BC5" transform="translate(187,57)"/>
<path d="M0 0 C0.99 0 1.98 0 3 0 C3 1.98 3 3.96 3 6 C2.01 6 1.02 6 0 6 C0 4.02 0 2.04 0 0 Z " fill="#009BC5" transform="translate(46,50)"/>
<path d="M0 0 C1.32 0.33 2.64 0.66 4 1 C4 2.32 4 3.64 4 5 C2.68 5 1.36 5 0 5 C0 3.35 0 1.7 0 0 Z " fill="#009BC5" transform="translate(183,42)"/>
<path d="M0 0 C1.65 0 3.3 0 5 0 C5 0.99 5 1.98 5 3 C3.02 3 1.04 3 -1 3 C-0.67 2.01 -0.34 1.02 0 0 Z " fill="#009BC5" transform="translate(303,162)"/>
<path d="M0 0 C1.32 0.33 2.64 0.66 4 1 C4 1.99 4 2.98 4 4 C2.68 4 1.36 4 0 4 C0 2.68 0 1.36 0 0 Z " fill="#009BC5" transform="translate(287,311)"/>
<path d="M0 0 C0.99 0 1.98 0 3 0 C2.34 1.65 1.68 3.3 1 5 C0.34 5 -0.32 5 -1 5 C-0.67 3.35 -0.34 1.7 0 0 Z " fill="#009BC5" transform="translate(223,116)"/>
<path d="M0 0 C1.32 0 2.64 0 4 0 C3.67 1.32 3.34 2.64 3 4 C2.01 3.67 1.02 3.34 0 3 C0 2.01 0 1.02 0 0 Z " fill="#009BC5" transform="translate(165,45)"/>
<path d="M0 0 C0.66 0 1.32 0 2 0 C1.67 1.65 1.34 3.3 1 5 C0.34 4.67 -0.32 4.34 -1 4 C-0.67 2.68 -0.34 1.36 0 0 Z " fill="#009BC5" transform="translate(375,348)"/>
<path d="M0 0 C0.99 0 1.98 0 3 0 C3 1.32 3 2.64 3 4 C2.01 3.67 1.02 3.34 0 3 C0 2.01 0 1.02 0 0 Z " fill="#009BC5" transform="translate(241,146)"/>
<path d="M0 0 C0.66 0 1.32 0 2 0 C1.67 1.32 1.34 2.64 1 4 C0.34 4 -0.32 4 -1 4 C-0.67 2.68 -0.34 1.36 0 0 Z " fill="#009BC5" transform="translate(370,323)"/>
<path d="M0 0 C0.99 0.33 1.98 0.66 3 1 C1.68 1.33 0.36 1.66 -1 2 C-0.67 1.34 -0.34 0.68 0 0 Z " fill="#009BC5" transform="translate(267,333)"/>
<path d="M0 0 C0.66 0 1.32 0 2 0 C1.67 0.99 1.34 1.98 1 3 C0.67 2.01 0.34 1.02 0 0 Z " fill="#009BC5" transform="translate(233,110)"/>
</svg>
