<?xml version="1.0" encoding="UTF-8"?>
<svg version="1.1" xmlns="http://www.w3.org/2000/svg" width="400" height="400">
<path d="M0 0 C1.875 0.1875 1.875 0.1875 4 1 C6.01247117 4.96575201 6.55213787 8.93419657 7.125 13.3125 C7.29257813 14.56675781 7.46015625 15.82101563 7.6328125 17.11328125 C7.75398437 18.06589844 7.87515625 19.01851562 8 20 C8.763125 19.9175 9.52625 19.835 10.3125 19.75 C13 20 13 20 14.7734375 21.64453125 C16.23170025 24.44495303 16.46551536 26.54397373 16.625 29.6875 C16.52924524 33.15553605 16.52924524 33.15553605 18 36 C18.20956883 37.78715644 18.36811616 39.58043769 18.5 41.375 C18.73236344 44.52020509 18.99875969 46.99627907 20 50 C21.65 50.33 23.3 50.66 25 51 C25 51.66 25 52.32 25 53 C25.94875 53.185625 26.8975 53.37125 27.875 53.5625 C31 55 31 55 32.3125 58.3125 C32.539375 59.529375 32.76625 60.74625 33 62 C33.20625 62.969375 33.4125 63.93875 33.625 64.9375 C33.810625 65.9584375 33.810625 65.9584375 34 67 C34.66 67 35.32 67 36 67 C36 67.99 36 68.98 36 70 C37.32 70 38.64 70 40 70 C40.33 73.63 40.66 77.26 41 81 C42.32 81.33 43.64 81.66 45 82 C48.91507309 88.23577253 48.44733962 94.83033966 48.375 102 C48.38660156 103.14984375 48.39820313 104.2996875 48.41015625 105.484375 C48.38809901 111.86626849 47.89923845 116.33101762 45 122 C44.43176354 124.0709062 43.9076131 126.15463874 43.4375 128.25 C42.63228591 131.83479495 42.06121737 133.90817394 40 137 C39.01 137 38.02 137 37 137 C37.33 138.32 37.66 139.64 38 141 C37.29875 141.309375 36.5975 141.61875 35.875 141.9375 C31.77291588 144.88029948 29.62399165 148.75236542 27 153 C26.34 153.99 25.68 154.98 25 156 C24.9175 156.78375 24.835 157.5675 24.75 158.375 C24 161 24 161 21 163.375 C17.25241146 166.65413997 17.41056101 168.15538012 17 173 C16.12781525 175.73156763 15.07418252 178.3378955 14 181 C9.71 181.33 5.42 181.66 1 182 C0.67 182.99 0.34 183.98 0 185 C-3 187 -3 187 -7 187 C-6.67 188.32 -6.34 189.64 -6 191 C-9.23490776 190.44225728 -10.97855006 189.62788492 -13 187 C-13 186.01 -13 185.02 -13 184 C-16.63 184.99 -20.26 185.98 -24 187 C-25.32 185.68 -26.64 184.36 -28 183 C-31.14481791 182.19684346 -31.14481791 182.19684346 -34 182 C-34 181.34 -34 180.68 -34 180 C-34.99 179.67 -35.98 179.34 -37 179 C-39.23601519 174.41028461 -39.14625911 170.15352229 -38.97265625 165.171875 C-38.84279678 162.9511412 -38.84279678 162.9511412 -40 161 C-42.02463255 160.34786708 -42.02463255 160.34786708 -44 160 C-44 160.66 -44 161.32 -44 162 C-47.3 162 -50.6 162 -54 162 C-54 159 -54 159 -52 157 C-52 155.68 -52 154.36 -52 153 C-50.35 152.67 -48.7 152.34 -47 152 C-47 150.02 -47 148.04 -47 146 C-47.78375 146.78375 -48.5675 147.5675 -49.375 148.375 C-50.91666667 149.91666667 -52.45833333 151.45833333 -54 153 C-56.625 152.625 -56.625 152.625 -59 152 C-59 151.01 -59 150.02 -59 149 C-58.34 149 -57.68 149 -57 149 C-57.4495045 147.68445015 -57.90989716 146.37261642 -58.375 145.0625 C-58.63023437 144.33160156 -58.88546875 143.60070312 -59.1484375 142.84765625 C-59.85271413 140.81317884 -59.85271413 140.81317884 -62 140 C-62.625 137.4375 -62.625 137.4375 -63 135 C-63.92232422 134.70996094 -63.92232422 134.70996094 -64.86328125 134.4140625 C-65.67152344 134.15367187 -66.47976562 133.89328125 -67.3125 133.625 C-68.11300781 133.36976563 -68.91351563 133.11453125 -69.73828125 132.8515625 C-72 132 -72 132 -75 130 C-80.8950619 129.07173872 -85.95943703 130.47700685 -91.5078125 132.34375 C-94.78517245 133.20675387 -97.74612442 133.04744836 -101.10546875 132.90625 C-103.75644935 133.03743254 -104.99954609 134.34445193 -107 136 C-110.25 136.1875 -110.25 136.1875 -113 136 C-113.061875 136.5775 -113.12375 137.155 -113.1875 137.75 C-114.37050817 141.02602263 -116.09691694 142.12947727 -119 144 C-122.15625 144.13671875 -122.15625 144.13671875 -125.5 143.6875 C-129.60507597 143.1647742 -133.00256579 142.7616644 -137 144 C-137.33 144.66 -137.66 145.32 -138 146 C-140.32156597 146.40729228 -142.6568787 146.74438677 -145 147 C-145.33 147.99 -145.66 148.98 -146 150 C-147.43739513 150.02712066 -148.87493863 150.04645067 -150.3125 150.0625 C-151.11300781 150.07410156 -151.91351563 150.08570313 -152.73828125 150.09765625 C-156.30730305 149.94355341 -157.90571396 149.0808166 -160.625 146.75 C-163.03560081 143.95877801 -164 142.66311414 -164 139 C-162.6875 137.1875 -162.6875 137.1875 -161 136 C-160.34 136 -159.68 136 -159 136 C-157.81220737 130.80160626 -158.04159844 126.04185781 -158.3125 120.75 C-158.36567383 119.39455078 -158.36567383 119.39455078 -158.41992188 118.01171875 C-158.7672277 110.80641879 -159.53114131 104.04652174 -162.6875 97.5 C-164.35056111 93.06517037 -164.05933374 89.57082891 -163 85 C-162.505 84.505 -162.505 84.505 -162 84 C-162 83.34 -162 82.68 -162 82 C-161.34 82 -160.68 82 -160 82 C-160.020625 80.783125 -160.04125 79.56625 -160.0625 78.3125 C-160.0625 75.06978605 -159.78982899 72.15931595 -159 69 C-158.855625 68.29875 -158.71125 67.5975 -158.5625 66.875 C-158 65 -158 65 -156 62 C-154.3125 61.4375 -154.3125 61.4375 -152 61 C-149.6652039 60.33847444 -147.33163378 59.67258667 -145 59 C-145 58.34 -145 57.68 -145 57 C-141.78548731 55.39274365 -138.56387464 55.94251815 -135 56 C-135 55.34 -135 54.68 -135 54 C-133.02 54 -131.04 54 -129 54 C-129 53.34 -129 52.68 -129 52 C-128.27554688 51.9484375 -127.55109375 51.896875 -126.8046875 51.84375 C-120.86798243 51.23571478 -120.86798243 51.23571478 -116.00390625 48.0859375 C-114.42311318 45.91419071 -114.42311318 45.91419071 -113.12109375 43.6796875 C-112.75113281 43.12539062 -112.38117188 42.57109375 -112 42 C-111.34 42 -110.68 42 -110 42 C-110.0825 41.0925 -110.165 40.185 -110.25 39.25 C-110 36 -110 36 -108.5 33.6875 C-104.98831667 31.31711375 -102.20648707 31.28043247 -98 31 C-97.731875 30.030625 -97.46375 29.06125 -97.1875 28.0625 C-96.795625 27.051875 -96.40375 26.04125 -96 25 C-95.01 24.67 -94.02 24.34 -93 24 C-92.26676204 21.98491642 -92.26676204 21.98491642 -92 20 C-90.68 20 -89.36 20 -88 20 C-88 19.01 -88 18.02 -88 17 C-81.05825243 15.58009709 -81.05825243 15.58009709 -78 17 C-77.71125 17.639375 -77.4225 18.27875 -77.125 18.9375 C-76.09494127 21.34703737 -76.09494127 21.34703737 -72.875 22.25 C-71.92625 22.4975 -70.9775 22.745 -70 23 C-70 21.02 -70 19.04 -70 17 C-69.360625 16.7525 -68.72125 16.505 -68.0625 16.25 C-65.82123176 15.20265017 -65.82123176 15.20265017 -65.375 13 C-65.189375 12.01 -65.189375 12.01 -65 11 C-64.34 10.34 -63.68 9.68 -63 9 C-62.01 9 -61.02 9 -60 9 C-60 8.34 -60 7.68 -60 7 C-61.65 6.67 -63.3 6.34 -65 6 C-64.67 4.68 -64.34 3.36 -64 2 C-49.78225765 1.46757414 -49.78225765 1.46757414 -43 5 C-40.05270463 6.15811388 -40.05270463 6.15811388 -37 6 C-35.00266706 4.86286297 -33.28633082 3.5925302 -31.515625 2.12890625 C-30 1 -30 1 -28 1 C-28.33 2.98 -28.66 4.96 -29 7 C-28.34 7 -27.68 7 -27 7 C-27.52268466 9.76276177 -28.10869587 12.3260876 -29 15 C-29.66 15.33 -30.32 15.66 -31 16 C-30.01 16.33 -29.02 16.66 -28 17 C-28 18.65 -28 20.3 -28 22 C-29.98 21.67 -31.96 21.34 -34 21 C-33.7834375 21.86625 -33.7834375 21.86625 -33.5625 22.75 C-33 25 -33 25 -32.8125 27.125 C-32.4103125 28.053125 -32.4103125 28.053125 -32 29 C-29.27564363 30.07585059 -29.27564363 30.07585059 -26 31 C-23.59958471 32.23861429 -21.3182426 33.60905444 -19 35 C-19 34.34 -19 33.68 -19 33 C-17.68 33 -16.36 33 -15 33 C-15 34.98 -15 36.96 -15 39 C-13.35 39 -11.7 39 -10 39 C-6.86686188 29.20757225 -6.86686188 29.20757225 -6.0546875 19.02368164 C-5.90132251 13.3484922 -3.58627416 7.43865425 -2 2 C-1.34 2 -0.68 2 0 2 C0 1.34 0 0.68 0 0 Z M-56 5 C-56.33 5.66 -56.66 6.32 -57 7 C-55.68 7 -54.36 7 -53 7 C-53 6.34 -53 5.68 -53 5 C-53.99 5 -54.98 5 -56 5 Z M-103 35 C-102 37 -102 37 -102 37 Z M-44 154 C-43 156 -43 156 -43 156 Z M-49 156 C-48.01 156.33 -47.02 156.66 -46 157 C-45.67 157.66 -45.34 158.32 -45 159 C-44.67 158.01 -44.34 157.02 -44 156 C-45.65 156 -47.3 156 -49 156 Z " fill="#009BC5" transform="translate(201,92)"/>
<path d="M0 0 C2.0625 0.4375 2.0625 0.4375 4 1 C4 1.99 4 2.98 4 4 C4.99 4.33 5.98 4.66 7 5 C7 6.32 7 7.64 7 9 C7.66 9 8.32 9 9 9 C9 11.97 9 14.94 9 18 C10.32 18 11.64 18 13 18 C13.12375 19.19625 13.2475 20.3925 13.375 21.625 C13.82325054 25.27596813 14.70446837 28.54524899 16 32 C16.7425 31.67 17.485 31.34 18.25 31 C21 30 21 30 25 30 C25.495 31.98 25.495 31.98 26 34 C24.515 34.495 24.515 34.495 23 35 C23 36.65 23 38.3 23 40 C21.68 40.33 20.36 40.66 19 41 C19 42.32 19 43.64 19 45 C17.35 45.33 15.7 45.66 14 46 C13.67 47.65 13.34 49.3 13 51 C12.34 51 11.68 51 11 51 C10.72929687 51.58652344 10.45859375 52.17304688 10.1796875 52.77734375 C7.66623914 57.51294679 3.65079823 62.27367 -1 65 C-1.99 65 -2.98 65 -4 65 C-4 64.34 -4 63.68 -4 63 C-4.66 63 -5.32 63 -6 63 C-6.226875 63.7425 -6.45375 64.485 -6.6875 65.25 C-8.28578576 68.59878921 -10.07409441 69.72429565 -13 72 C-14.30110788 73.30380728 -15.57046712 74.639798 -16.8125 76 C-17.71935547 76.99 -17.71935547 76.99 -18.64453125 78 C-20.37401792 80.14919013 -20.37401792 80.14919013 -20 84 C-23.87684087 85.19287411 -26.91621923 86 -31 86 C-31.103125 86.7425 -31.20625 87.485 -31.3125 88.25 C-32.05913439 91.23653754 -33.16412153 92.57664043 -35 95 C-35.2475 96.03125 -35.495 97.0625 -35.75 98.125 C-36.1625 99.07375 -36.575 100.0225 -37 101 C-39.31029085 101.74259349 -41.645752 102.411438 -44 103 C-45.43637698 104.95163118 -45.43637698 104.95163118 -46 107 C-47 108 -47 108 -50.5625 108.0625 C-51.696875 108.041875 -52.83125 108.02125 -54 108 C-54 108.99 -54 109.98 -54 111 C-57.465 111.495 -57.465 111.495 -61 112 C-61 110.68 -61 109.36 -61 108 C-60.34 108 -59.68 108 -59 108 C-59 106.68 -59 105.36 -59 104 C-58.01 103.505 -58.01 103.505 -57 103 C-58.32 102.67 -59.64 102.34 -61 102 C-61.495 99.03 -61.495 99.03 -62 96 C-61.34 96 -60.68 96 -60 96 C-59.67 94.68 -59.34 93.36 -59 92 C-58.01 92 -57.02 92 -56 92 C-56 91.01 -56 90.02 -56 89 C-55.34 89 -54.68 89 -54 89 C-53.979375 88.4225 -53.95875 87.845 -53.9375 87.25 C-52.46347468 83.71233923 -49.30892977 82.56294129 -46 81 C-44.700625 80.505 -44.700625 80.505 -43.375 80 C-40.45394608 78.77008256 -38.43615066 77.0202225 -36 75 C-32.97477912 72.88234538 -30.50528017 71.16842672 -27 70 C-26.71125 68.9275 -26.4225 67.855 -26.125 66.75 C-24.83522586 62.45075286 -23.28202888 60.9694547 -20 58 C-18.948125 56.6078125 -18.948125 56.6078125 -17.875 55.1875 C-17.25625 54.465625 -16.6375 53.74375 -16 53 C-15.01 53 -14.02 53 -13 53 C-12.34 53.66 -11.68 54.32 -11 55 C-10.01 54.67 -9.02 54.34 -8 54 C-7.01 54.495 -7.01 54.495 -6 55 C-5.67 55.99 -5.34 56.98 -5 58 C-3.3516367 56.24755753 -3.3516367 56.24755753 -2 54 C-2.17006022 51.27903644 -2.86982358 50.15521035 -4.625 48.0625 C-6 46 -6 46 -5.6875 43.25 C-5.460625 42.5075 -5.23375 41.765 -5 41 C-2.525 40.505 -2.525 40.505 0 40 C0.185625 38.2984375 0.185625 38.2984375 0.375 36.5625 C0.58125 35.386875 0.7875 34.21125 1 33 C1.66 32.67 2.32 32.34 3 32 C3 28.37 3 24.74 3 21 C2.34 21 1.68 21 1 21 C1 17.7 1 14.4 1 11 C0.34 11 -0.32 11 -1 11 C-1.02688151 9.35425434 -1.04634123 7.70838587 -1.0625 6.0625 C-1.07410156 5.14597656 -1.08570313 4.22945313 -1.09765625 3.28515625 C-1 1 -1 1 0 0 Z M-55 104 C-54 106 -54 106 -54 106 Z " fill="#009BC5" transform="translate(338,253)"/>
<path d="M0 0 C1.60568666 0.28317926 3.20952047 0.57687791 4.8125 0.875 C5.70582031 1.03742187 6.59914062 1.19984375 7.51953125 1.3671875 C10 2 10 2 13 4 C13 4.66 13 5.32 13 6 C15.475 6.99 15.475 6.99 18 8 C18 9.98 18 11.96 18 14 C16.68 14 15.36 14 14 14 C13.9071875 15.1446875 13.9071875 15.1446875 13.8125 16.3125 C13 19 13 19 10.5 20.75 C9.2625 21.36875 9.2625 21.36875 8 22 C7.505 22.495 7.505 22.495 7 23 C0.47972945 23.75681712 -4.97142536 22.39432752 -11 20 C-10.773125 20.598125 -10.54625 21.19625 -10.3125 21.8125 C-10.1578125 22.8953125 -10.1578125 22.8953125 -10 24 C-11.4375 25.75 -11.4375 25.75 -13 27 C-12.36771484 27.72316406 -12.36771484 27.72316406 -11.72265625 28.4609375 C-11.17480469 29.09257813 -10.62695312 29.72421875 -10.0625 30.375 C-9.51722656 31.00148438 -8.97195312 31.62796875 -8.41015625 32.2734375 C-7 34 -7 34 -6 36 C-5.01 36 -4.02 36 -3 36 C-3 37.32 -3 38.64 -3 40 C-2.34 40 -1.68 40 -1 40 C-1 39.34 -1 38.68 -1 38 C1.97 38.495 1.97 38.495 5 39 C5 39.66 5 40.32 5 41 C5.99 41 6.98 41 8 41 C7.67 41.99 7.34 42.98 7 44 C5.68 44 4.36 44 3 44 C3 45.32 3 46.64 3 48 C1.68 48 0.36 48 -1 48 C-1 47.34 -1 46.68 -1 46 C-1.9590625 45.814375 -1.9590625 45.814375 -2.9375 45.625 C-3.948125 45.41875 -4.95875 45.2125 -6 45 C-6.70125 44.90074219 -7.4025 44.80148438 -8.125 44.69921875 C-14.25063824 43.67482992 -17.15576267 41.92850939 -21 37 C-21 35.68 -21 34.36 -21 33 C-21.78375 33.04125 -22.5675 33.0825 -23.375 33.125 C-26 33 -26 33 -28 31 C-29.32 31 -30.64 31 -32 31 C-32.0825 31.7425 -32.165 32.485 -32.25 33.25 C-33.16052474 36.58859072 -34.31767527 37.85414021 -37 40 C-39.1875 40.8125 -39.1875 40.8125 -41 41 C-41.33 40.67 -41.66 40.34 -42 40 C-44.32817964 39.63239269 -46.6618385 39.29758419 -49 39 C-49.02493556 35.01644868 -49.04297028 31.03292833 -49.05493164 27.04931641 C-49.06236421 25.03676759 -49.07507829 23.02424051 -49.08789062 21.01171875 C-49.10405483 14.57836629 -49.02960975 8.3560161 -48 2 C-46.56208484 2.14168137 -45.1246763 2.28851043 -43.6875 2.4375 C-42.88699219 2.51871094 -42.08648437 2.59992187 -41.26171875 2.68359375 C-39 3 -39 3 -36 4 C-36 4.66 -36 5.32 -36 6 C-35.195625 6.0825 -34.39125 6.165 -33.5625 6.25 C-29.68242916 7.06685702 -26.51348891 8.45868982 -22.953125 10.16015625 C-21.04811649 11.13167592 -21.04811649 11.13167592 -19 11 C-19.33 12.65 -19.66 14.3 -20 16 C-19.01 16 -18.02 16 -17 16 C-12 16 -7 16 -2 16 C-1.67 15.01 -1.34 14.02 -1 13 C0.32 13 1.64 13 3 13 C3 14.32 3 15.64 3 17 C4.32 16.67 5.64 16.34 7 16 C7.103125 15.05125 7.20625 14.1025 7.3125 13.125 C8 10 8 10 11 8 C9.68 7.34 8.36 6.68 7 6 C7 5.34 7 4.68 7 4 C5.02 4 3.04 4 1 4 C0.505 2.02 0.505 2.02 0 0 Z " fill="#009BC5" transform="translate(244,45)"/>
<path d="M0 0 C1.32 0 2.64 0 4 0 C4 1.98 4 3.96 4 6 C4.66 6 5.32 6 6 6 C6.433125 6.969375 6.86625 7.93875 7.3125 8.9375 C8.7014861 12.27731765 8.7014861 12.27731765 12 13 C14.06618749 12.90731495 14.06618749 12.90731495 16.1875 12.5625 C17.445625 12.376875 18.70375 12.19125 20 12 C20 9.03 20 6.06 20 3 C21.65 3.66 23.3 4.32 25 5 C25 7.31 25 9.62 25 12 C24.01 12 23.02 12 22 12 C21.90912109 12.88751953 21.90912109 12.88751953 21.81640625 13.79296875 C21.37987629 17.90978208 20.91328654 21.95544533 20 26 C19.34 26 18.68 26 18 26 C17.34 28.31 16.68 30.62 16 33 C15.0409375 33.185625 15.0409375 33.185625 14.0625 33.375 C13.381875 33.58125 12.70125 33.7875 12 34 C11.67 34.66 11.34 35.32 11 36 C10.01 36 9.02 36 8 36 C8 36.66 8 37.32 8 38 C7.34 38 6.68 38 6 38 C6 37.34 6 36.68 6 36 C4.35 35.67 2.7 35.34 1 35 C0.03128069 25.75990816 -0.98887959 15.96663877 2 7 C1.01 6.67 0.02 6.34 -1 6 C-0.67 4.02 -0.34 2.04 0 0 Z " fill="#009BC5" transform="translate(177,283)"/>
<path d="M0 0 C0.99 0 1.98 0 3 0 C3.66 1.98 4.32 3.96 5 6 C5.66 6 6.32 6 7 6 C7.7425 6.78375 8.485 7.5675 9.25 8.375 C11.78748122 11.21265478 11.78748122 11.21265478 15.1875 11.875 C16.115625 12.24625 17.04375 12.6175 18 13 C19.25 16.4375 19.25 16.4375 20 20 C20.66 20.99 21.32 21.98 22 23 C22 23.99 22 24.98 22 26 C20.02 25.67 18.04 25.34 16 25 C15.67 24.01 15.34 23.02 15 22 C14.01 21.67 13.02 21.34 12 21 C12 19.35 12 17.7 12 16 C9.53721199 14.768606 7.7204945 14.92840804 5 15 C5 13.68 5 12.36 5 11 C4.01 11 3.02 11 2 11 C1.34 7.37 0.68 3.74 0 0 Z " fill="#009BC5" transform="translate(266,56)"/>
<path d="M0 0 C4 0 4 0 5.75 1.5 C6.1625 1.995 6.575 2.49 7 3 C8.32 2.34 9.64 1.68 11 1 C11 5.95 11 10.9 11 16 C9.68 16 8.36 16 7 16 C7 15.34 7 14.68 7 14 C6.01 13.67 5.02 13.34 4 13 C4 12.01 4 11.02 4 10 C3.34 10 2.68 10 2 10 C2 9.34 2 8.68 2 8 C1.34 8 0.68 8 0 8 C0 5.36 0 2.72 0 0 Z M5 7 C6.485 7.99 6.485 7.99 8 9 C8 8.34 8 7.68 8 7 C7.01 7 6.02 7 5 7 Z " fill="#009BC5" transform="translate(327,115)"/>
<path d="M0 0 C1.75 0.125 1.75 0.125 4 1 C5.3726682 2.97321053 6.70427617 4.97543152 8 7 C9.31963709 8.01800576 10.65009646 9.02248365 12 10 C12.33 10.99 12.66 11.98 13 13 C13.99 13.66 14.98 14.32 16 15 C15.67 15.99 15.34 16.98 15 18 C13.35 17.67 11.7 17.34 10 17 C10 16.34 10 15.68 10 15 C9.40703125 14.92265625 8.8140625 14.8453125 8.203125 14.765625 C5.2565444 13.741636 4.44515092 12.33553322 2.75 9.75 C2.22921875 8.98171875 1.7084375 8.2134375 1.171875 7.421875 C-0.13357118 4.7239529 -0.23080473 2.95849703 0 0 Z " fill="#009BC5" transform="translate(311,148)"/>
<path d="M0 0 C1.65 0.33 3.3 0.66 5 1 C5.33 2.65 5.66 4.3 6 6 C6.66 6 7.32 6 8 6 C8 7.32 8 8.64 8 10 C6.37675914 10.22162329 4.751279 10.42689803 3.125 10.625 C2.22007812 10.74101563 1.31515625 10.85703125 0.3828125 10.9765625 C-0.40351563 10.98429687 -1.18984375 10.99203125 -2 11 C-2.66 10.34 -3.32 9.68 -4 9 C-4 8.01 -4 7.02 -4 6 C-3.01 6 -2.02 6 -1 6 C-0.67 4.02 -0.34 2.04 0 0 Z " fill="#009BC5" transform="translate(298,77)"/>
<path d="M0 0 C2.475 0.495 2.475 0.495 5 1 C5 1.99 5 2.98 5 4 C7.475 4.99 7.475 4.99 10 6 C9.67 7.32 9.34 8.64 9 10 C7.68 9.67 6.36 9.34 5 9 C5 8.01 5 7.02 5 6 C4.01 5.67 3.02 5.34 2 5 C2 4.34 2 3.68 2 3 C1.34 3 0.68 3 0 3 C0 2.01 0 1.02 0 0 Z " fill="#009BC5" transform="translate(324,152)"/>
<path d="M0 0 C3.37462715 0.54723683 5.08235 1.0549 8 3 C8.1875 5.625 8.1875 5.625 8 8 C5 8 5 8 2.3125 5.6875 C0 3 0 3 0 0 Z " fill="#009BC5" transform="translate(288,73)"/>
<path d="M0 0 C2.475 0.495 2.475 0.495 5 1 C5.33 2.65 5.66 4.3 6 6 C5.01 6.33 4.02 6.66 3 7 C2.01 6.34 1.02 5.68 0 5 C-0.1875 2.375 -0.1875 2.375 0 0 Z " fill="#009BC5" transform="translate(303,88)"/>
<path d="M0 0 C0.86625 0.2784375 0.86625 0.2784375 1.75 0.5625 C4.20692525 1.04023546 5.64397534 0.75729364 8 0 C8 0.99 8 1.98 8 3 C5.36 3.33 2.72 3.66 0 4 C0 2.68 0 1.36 0 0 Z " fill="#009BC5" transform="translate(259,94)"/>
<path d="M0 0 C1.98 0 3.96 0 6 0 C5.67 1.32 5.34 2.64 5 4 C3.35 3.67 1.7 3.34 0 3 C0 2.01 0 1.02 0 0 Z " fill="#009BC5" transform="translate(226,42)"/>
<path d="M0 0 C1.32 0.33 2.64 0.66 4 1 C4 2.32 4 3.64 4 5 C2.68 4.67 1.36 4.34 0 4 C0 2.68 0 1.36 0 0 Z " fill="#009BC5" transform="translate(337,139)"/>
<path d="M0 0 C0.99 0.33 1.98 0.66 3 1 C3 1.99 3 2.98 3 4 C1.68 4 0.36 4 -1 4 C-0.67 2.68 -0.34 1.36 0 0 Z " fill="#009BC5" transform="translate(335,132)"/>
<path d="M0 0 C1.32 0.33 2.64 0.66 4 1 C4 1.99 4 2.98 4 4 C2.68 3.67 1.36 3.34 0 3 C0 2.01 0 1.02 0 0 Z " fill="#009BC5" transform="translate(295,95)"/>
<path d="M0 0 C1.32 0.33 2.64 0.66 4 1 C3.67 1.99 3.34 2.98 3 4 C2.01 4 1.02 4 0 4 C0 2.68 0 1.36 0 0 Z " fill="#009BC5" transform="translate(248,77)"/>
<path d="M0 0 C0.66 0 1.32 0 2 0 C2 1.65 2 3.3 2 5 C1.01 4.67 0.02 4.34 -1 4 C-0.67 2.68 -0.34 1.36 0 0 Z " fill="#009BC5" transform="translate(242,37)"/>
<path d="M0 0 C1.32 0 2.64 0 4 0 C3.67 0.99 3.34 1.98 3 3 C2.01 3 1.02 3 0 3 C0 2.01 0 1.02 0 0 Z " fill="#009BC5" transform="translate(338,145)"/>
<path d="M0 0 C0.99 0.33 1.98 0.66 3 1 C3 1.99 3 2.98 3 4 C2.01 4 1.02 4 0 4 C0 2.68 0 1.36 0 0 Z " fill="#009BC5" transform="translate(256,81)"/>
<path d="M0 0 C0.99 0 1.98 0 3 0 C3 0.99 3 1.98 3 3 C2.01 3 1.02 3 0 3 C0 2.01 0 1.02 0 0 Z " fill="#009BC5" transform="translate(325,91)"/>
</svg>
