<?xml version="1.0" encoding="UTF-8"?>
<svg version="1.1" xmlns="http://www.w3.org/2000/svg" width="400" height="400">
<path d="M0 0 C3.56329795 1.04291647 5.92684274 2.11434274 8.5625 4.75 C8.5625 7.75 8.5625 7.75 6.8125 9.8125 C4.77255384 11.56912031 3.02099217 12.6963605 0.5625 13.75 C1.201875 13.9975 1.84125 14.245 2.5 14.5 C4.5625 15.75 4.5625 15.75 5.3125 17.875 C5.395 18.49375 5.4775 19.1125 5.5625 19.75 C6.67625 19.399375 7.79 19.04875 8.9375 18.6875 C12.5625 17.75 12.5625 17.75 14.5625 18.75 C15.0546875 21.04296875 15.0546875 21.04296875 15.4375 23.9375 C16.22806591 28.83900862 17.6910252 31.67435834 20.5625 35.75 C21.3125 39.625 21.3125 39.625 21.5625 42.75 C20.5725 43.41 19.5825 44.07 18.5625 44.75 C18.8925 45.74 19.2225 46.73 19.5625 47.75 C19.19125 48.678125 19.19125 48.678125 18.8125 49.625 C18.73 50.32625 18.6475 51.0275 18.5625 51.75 C20.96373201 54.78685225 22.62299508 56.47858747 26.375 57.5625 C27.096875 57.624375 27.81875 57.68625 28.5625 57.75 C28.81 58.69875 29.0575 59.6475 29.3125 60.625 C30.1913014 63.85371887 30.1913014 63.85371887 32.5625 64.6875 C33.2225 65.038125 33.8825 65.38875 34.5625 65.75 C35.06155046 67.38023149 35.54673567 69.0174509 35.92578125 70.6796875 C36.9335974 73.95663572 38.75204533 76.72894226 40.5390625 79.63671875 C41.5625 81.75 41.5625 81.75 41.5625 85.75 C37.62856753 86.03536298 35.79431541 85.62454318 32.75 83.125 C32.07066406 82.57972656 31.39132812 82.03445312 30.69140625 81.47265625 C29.98886719 80.90417969 29.28632813 80.33570312 28.5625 79.75 C26.45642251 78.20653021 24.34243287 76.67453313 22.2265625 75.14453125 C18.72351766 72.208881 17.85222863 68.73862096 16.625 64.5 C13.85419266 54.61894544 13.85419266 54.61894544 7.5625 46.75 C7.2325 47.41 6.9025 48.07 6.5625 48.75 C7.201875 48.9975 7.84125 49.245 8.5 49.5 C10.5625 50.75 10.5625 50.75 11.3125 52.875 C11.395 53.49375 11.4775 54.1125 11.5625 54.75 C9.9125 55.08 8.2625 55.41 6.5625 55.75 C5.79806982 58.50194864 5.4056888 60.23679971 6.25 63 C7.4440484 64.92912194 7.4440484 64.92912194 9.6875 65.5 C10.30625 65.5825 10.925 65.665 11.5625 65.75 C10.8125 70.5 10.8125 70.5 8.5625 72.75 C7.5725 72.75 6.5825 72.75 5.5625 72.75 C5.5625 73.41 5.5625 74.07 5.5625 74.75 C4.9025 75.41 4.2425 76.07 3.5625 76.75 C2.9025 77.74 2.2425 78.73 1.5625 79.75 C0.9025 79.75 0.2425 79.75 -0.4375 79.75 C-0.4375 80.41 -0.4375 81.07 -0.4375 81.75 C-1.4275 81.75 -2.4175 81.75 -3.4375 81.75 C-3.80363115 85.31137608 -4.15328702 88.87418528 -4.5 92.4375 C-4.6556543 93.94860352 -4.6556543 93.94860352 -4.81445312 95.49023438 C-4.90791016 96.46669922 -5.00136719 97.44316406 -5.09765625 98.44921875 C-5.18668213 99.34471436 -5.27570801 100.24020996 -5.36743164 101.1628418 C-5.44027482 103.85245559 -5.06452575 106.14116171 -4.4375 108.75 C-3.1175 109.08 -1.7975 109.41 -0.4375 109.75 C0.2225 108.1 0.8825 106.45 1.5625 104.75 C4.2025 105.41 6.8425 106.07 9.5625 106.75 C9.5625 105.1 9.5625 103.45 9.5625 101.75 C12.5625 101.75 12.5625 101.75 13.95703125 103.140625 C14.42496094 103.75421875 14.89289063 104.3678125 15.375 105 C17.3923838 107.50782548 19.18238295 109.33260056 21.9375 111 C22.80375 111.5775 23.67 112.155 24.5625 112.75 C24.5625 113.74 24.5625 114.73 24.5625 115.75 C25.22086974 118.89186566 25.22086974 118.89186566 26.5625 121.75 C28.59493548 122.71877057 28.59493548 122.71877057 30.5625 122.75 C30.5625 125.06 30.5625 127.37 30.5625 129.75 C26.80440093 128.49730031 26.54753025 127.39832553 24.6875 124 C22.33915156 119.89039023 19.98254356 116.96886453 16.5625 113.75 C16.5625 113.09 16.5625 112.43 16.5625 111.75 C15.0775 112.245 15.0775 112.245 13.5625 112.75 C14.160625 113.36875 14.75875 113.9875 15.375 114.625 C20.44795112 121.87207302 20.85277408 129.3134992 20.9375 137.9375 C20.95135742 138.79287354 20.96521484 139.64824707 20.97949219 140.52954102 C20.93897565 146.017932 20.06504305 149.85746214 17.5625 154.75 C15.9125 154.75 14.2625 154.75 12.5625 154.75 C11.74285868 158.67098688 11.10003765 162.60225152 10.5 166.5625 C10.32339844 167.72394531 10.14679688 168.88539063 9.96484375 170.08203125 C9.83207031 170.96246094 9.69929688 171.84289062 9.5625 172.75 C11.2125 173.41 12.8625 174.07 14.5625 174.75 C14.5625 175.41 14.5625 176.07 14.5625 176.75 C15.18125 176.9975 15.8 177.245 16.4375 177.5 C19.0003364 179.00755082 19.60564447 179.95917138 20.5625 182.75 C21.0625 185.1875 21.0625 185.1875 20.5625 187.75 C18.71768336 189.82117452 16.87085891 191.13414876 14.5625 192.75 C13.9025 192.75 13.2425 192.75 12.5625 192.75 C12.2325 190.77 11.9025 188.79 11.5625 186.75 C10.9025 186.75 10.2425 186.75 9.5625 186.75 C9.2325 185.43 8.9025 184.11 8.5625 182.75 C6.5825 182.75 4.6025 182.75 2.5625 182.75 C1.31703595 180.25907189 1.7857422 179.33919267 2.5625 176.75 C0.22711093 176.71127313 0.22711093 176.71127313 -2.4375 177.75 C-3.91812722 179.49983217 -5.12016504 181.30467272 -6.32421875 183.25390625 C-6.87529297 183.99447266 -6.87529297 183.99447266 -7.4375 184.75 C-8.0975 184.75 -8.7575 184.75 -9.4375 184.75 C-9.1075 182.11 -8.7775 179.47 -8.4375 176.75 C-9.7575 176.75 -11.0775 176.75 -12.4375 176.75 C-12.540625 177.4925 -12.64375 178.235 -12.75 179 C-13.49180747 181.96722987 -14.32430554 183.55552883 -16.4375 185.75 C-17.4275 185.75 -18.4175 185.75 -19.4375 185.75 C-17.38516315 187.9977975 -16.43082739 188.7522242 -13.4375 189.75 C-13.4375 190.41 -13.4375 191.07 -13.4375 191.75 C-12.1175 191.42 -10.7975 191.09 -9.4375 190.75 C-9.4375 189.76 -9.4375 188.77 -9.4375 187.75 C-6.7975 187.75 -4.1575 187.75 -1.4375 187.75 C-2.4375 190.75 -2.4375 190.75 -4.4375 192.5625 C-6.89866528 195.25439953 -7.11269632 197.17715954 -7.4375 200.75 C-6.1175 201.41 -4.7975 202.07 -3.4375 202.75 C-3.4375 203.41 -3.4375 204.07 -3.4375 204.75 C-2.7775 204.75 -2.1175 204.75 -1.4375 204.75 C-1.4375 205.41 -1.4375 206.07 -1.4375 206.75 C-0.65375 206.811875 0.13 206.87375 0.9375 206.9375 C1.80375 207.205625 2.67 207.47375 3.5625 207.75 C4.875 210.3125 4.875 210.3125 5.5625 212.75 C4.0775 213.74 4.0775 213.74 2.5625 214.75 C3.8825 215.41 5.2025 216.07 6.5625 216.75 C6.87652299 221.77436779 6.20856684 225.13010834 4.29296875 229.76171875 C3.21689117 232.69072137 2.92561002 235.66356479 2.5625 238.75 C1.5625 241.75 1.5625 241.75 -0.4375 242.75 C-0.7675 243.74 -1.0975 244.73 -1.4375 245.75 C-5.32906695 249.96318406 -9.01938013 251.98322178 -14.4375 253.75 C-16.12512851 255.3954378 -17.7915349 257.06288577 -19.4375 258.75 C-22.75 260.5625 -22.75 260.5625 -25.4375 261.75 C-25.4375 263.07 -25.4375 264.39 -25.4375 265.75 C-24.4475 265.75 -23.4575 265.75 -22.4375 265.75 C-22.79946915 268.42857172 -23.17737276 270.35980914 -24.6875 272.625 C-26.4375 273.75 -26.4375 273.75 -29.125 273.4375 C-30.2696875 273.0971875 -30.2696875 273.0971875 -31.4375 272.75 C-31.125 270.375 -31.125 270.375 -30.4375 267.75 C-29.4475 267.09 -28.4575 266.43 -27.4375 265.75 C-27.7675 264.43 -28.0975 263.11 -28.4375 261.75 C-32.16336758 261.2020783 -33.38209557 261.71232499 -36.5625 263.875 C-39.41306273 266.4390371 -40.95309199 269.20391419 -42.4375 272.75 C-37.92959125 277.6933464 -37.92959125 277.6933464 -32.3125 281.1875 C-28.19116047 283.42735844 -26.26007675 286.47637177 -24.4375 290.75 C-24.0625 294.5 -24.0625 294.5 -24.4375 297.75 C-24.499375 298.471875 -24.56125 299.19375 -24.625 299.9375 C-25.89446151 302.76937568 -27.89883924 304.05755949 -30.4375 305.75 C-31.4275 305.75 -32.4175 305.75 -33.4375 305.75 C-33.7675 306.74 -34.0975 307.73 -34.4375 308.75 C-35.0975 308.75 -35.7575 308.75 -36.4375 308.75 C-36.4375 309.41 -36.4375 310.07 -36.4375 310.75 C-39.89903846 313.75 -39.89903846 313.75 -42.4375 313.75 C-42.4375 312.1 -42.4375 310.45 -42.4375 308.75 C-43.00339844 308.56824219 -43.56929687 308.38648438 -44.15234375 308.19921875 C-44.88582031 307.94785156 -45.61929688 307.69648438 -46.375 307.4375 C-47.10589844 307.19386719 -47.83679688 306.95023437 -48.58984375 306.69921875 C-50.4375 305.75 -50.4375 305.75 -51.4375 302.75 C-53.3028245 301.73245132 -53.3028245 301.73245132 -55.5 301.0625 C-56.23347656 300.81113281 -56.96695313 300.55976563 -57.72265625 300.30078125 C-58.28855469 300.11902344 -58.85445312 299.93726563 -59.4375 299.75 C-59.4375 298.76 -59.4375 297.77 -59.4375 296.75 C-60.4275 297.08 -61.4175 297.41 -62.4375 297.75 C-62.375625 298.74 -62.31375 299.73 -62.25 300.75 C-62.22258355 305.21888211 -63.7166773 308.66304608 -65.4375 312.75 C-64.4475 313.08 -63.4575 313.41 -62.4375 313.75 C-61.72022222 315.39551962 -61.05424772 317.06422289 -60.4375 318.75 C-58.31024224 320.87725776 -56.82097643 321.51611081 -54.0625 322.625 C-47.5010745 325.52005731 -47.5010745 325.52005731 -45.4375 328.75 C-45.12471872 331.5067164 -45.25140527 333.95857899 -45.4375 336.75 C-44.1175 337.41 -42.7975 338.07 -41.4375 338.75 C-41.7675 340.4 -42.0975 342.05 -42.4375 343.75 C-44.43235634 343.01855267 -46.42606425 342.28359929 -48.41015625 341.5234375 C-49.80593638 340.99094335 -51.21184661 340.48450973 -52.625 340 C-56.81874912 337.10775923 -59.10722815 332.94723547 -60.4375 328.125 C-61.63111966 324.09653364 -63.23334561 322.40710364 -66.4375 319.75 C-67.4275 319.42 -68.4175 319.09 -69.4375 318.75 C-69.39109375 317.80640625 -69.3446875 316.8628125 -69.296875 315.890625 C-69.0741645 307.96849433 -69.5477855 301.80991719 -72.5625 294.3359375 C-73.47450418 291.64063943 -73.60058804 289.57346171 -73.4375 286.75 C-74.4275 287.08 -75.4175 287.41 -76.4375 287.75 C-77.0975 287.75 -77.7575 287.75 -78.4375 287.75 C-79.38625 288.28625 -80.335 288.8225 -81.3125 289.375 C-84.4375 290.75 -84.4375 290.75 -86.8125 289.9375 C-87.34875 289.545625 -87.885 289.15375 -88.4375 288.75 C-88.210625 288.110625 -87.98375 287.47125 -87.75 286.8125 C-87.31117328 282.5119981 -88.28042348 278.51904344 -90.4375 274.75 C-91.76031118 274.37709323 -93.09423286 274.04072716 -94.4375 273.75 C-94.7675 272.76 -95.0975 271.77 -95.4375 270.75 C-96.0975 270.75 -96.7575 270.75 -97.4375 270.75 C-98.0975 268.77 -98.7575 266.79 -99.4375 264.75 C-100.0975 264.75 -100.7575 264.75 -101.4375 264.75 C-101.4375 265.41 -101.4375 266.07 -101.4375 266.75 C-105.64281026 268.35202296 -108.95731042 268.85182249 -113.4375 268.75 C-115.60656915 269.56291528 -115.60656915 269.56291528 -116.25 271.6875 C-117.84656095 274.46047429 -119.49846664 274.58805658 -122.4375 275.75 C-124.12512851 277.3954378 -125.7915349 279.06288577 -127.4375 280.75 C-131.78232759 283.75 -131.78232759 283.75 -135.4375 283.75 C-135.4375 284.74 -135.4375 285.73 -135.4375 286.75 C-136.076875 286.87375 -136.71625 286.9975 -137.375 287.125 C-138.055625 287.33125 -138.73625 287.5375 -139.4375 287.75 C-139.7675 288.41 -140.0975 289.07 -140.4375 289.75 C-141.4275 289.75 -142.4175 289.75 -143.4375 289.75 C-144.60796435 293.26139306 -144.4274813 296.03405549 -144.27734375 299.69140625 C-144.4375 301.75 -144.4375 301.75 -146.4375 303.75 C-146.83514263 305.73821313 -147.17525349 307.73944339 -147.4375 309.75 C-148.4275 309.75 -149.4175 309.75 -150.4375 309.75 C-150.705625 310.348125 -150.97375 310.94625 -151.25 311.5625 C-152.47604802 313.82100952 -153.37284581 315.22062652 -155.4375 316.75 C-158.125 316.9375 -158.125 316.9375 -160.4375 316.75 C-162.46870852 312.29577623 -164.4420043 307.84907737 -166.125 303.25 C-167.07973287 299.96983281 -167.07973287 299.96983281 -168.4375 298.75 C-168.63046903 296.88463272 -168.82049852 295.01849339 -168.9609375 293.1484375 C-169.38473856 290.53376372 -169.38473856 290.53376372 -170.9296875 287.484375 C-172.68928775 283.54350454 -173.01775207 279.9010311 -173.1875 275.625 C-173.25130859 274.59052734 -173.25130859 274.59052734 -173.31640625 273.53515625 C-173.51227487 269.74110851 -173.20109175 266.44947035 -172.4375 262.75 C-172.9325 261.265 -172.9325 261.265 -173.4375 259.75 C-173.7675 261.07 -174.0975 262.39 -174.4375 263.75 C-177.1875 264.125 -177.1875 264.125 -180.4375 263.75 C-182.8125 260.75 -182.8125 260.75 -184.4375 257.75 C-183.7775 257.09 -183.1175 256.43 -182.4375 255.75 C-183.4275 255.42 -184.4175 255.09 -185.4375 254.75 C-185.4375 253.76 -185.4375 252.77 -185.4375 251.75 C-186.05625 251.688125 -186.675 251.62625 -187.3125 251.5625 C-189.4375 250.75 -189.4375 250.75 -190.6875 248.4375 C-191.4375 245.75 -191.4375 245.75 -191.4375 241.75 C-192.076875 241.95625 -192.71625 242.1625 -193.375 242.375 C-197.60181701 242.89256943 -201.4105321 242.10287134 -205.4375 240.75 C-206.0975 240.09 -206.7575 239.43 -207.4375 238.75 C-208.984564 238.26070919 -210.55071053 237.83046965 -212.125 237.4375 C-217.16398517 235.98211822 -220.54896175 234.30040449 -224.4375 230.75 C-224.6171875 228.0859375 -224.6171875 228.0859375 -224.4375 225.75 C-225.13617188 225.64042969 -225.83484375 225.53085938 -226.5546875 225.41796875 C-227.46476562 225.25941406 -228.37484375 225.10085937 -229.3125 224.9375 C-230.66988281 224.71126953 -230.66988281 224.71126953 -232.0546875 224.48046875 C-234.4375 223.75 -234.4375 223.75 -236.4375 220.75 C-236.4375 219.76 -236.4375 218.77 -236.4375 217.75 C-237.0975 217.75 -237.7575 217.75 -238.4375 217.75 C-240.84542008 215.34207992 -241.42190271 214.13213372 -241.5625 210.6875 C-241.52125 209.718125 -241.48 208.74875 -241.4375 207.75 C-241.7675 206.76 -242.0975 205.77 -242.4375 204.75 C-245.44597418 203.52479736 -245.44597418 203.52479736 -248.4375 202.75 C-248.49145478 204.37463842 -248.53027195 205.99978541 -248.5625 207.625 C-248.58570313 208.52992188 -248.60890625 209.43484375 -248.6328125 210.3671875 C-248.68074836 212.93806994 -248.68074836 212.93806994 -246.4375 214.75 C-246.293125 215.41 -246.14875 216.07 -246 216.75 C-245.56291292 219.13640738 -245.56291292 219.13640738 -242.4375 220.75 C-242.7675 222.4 -243.0975 224.05 -243.4375 225.75 C-244.0975 225.75 -244.7575 225.75 -245.4375 225.75 C-244.76231735 228.88687272 -244.76231735 228.88687272 -242.25 230 C-236.52741332 231.52602312 -232.48383318 229.38785598 -227.4375 226.75 C-226.7775 226.75 -226.1175 226.75 -225.4375 226.75 C-225.7159375 228.3278125 -225.7159375 228.3278125 -226 229.9375 C-226.55305817 234.46602443 -226.55305817 234.46602443 -225.4375 238.75 C-224.633125 239.059375 -223.82875 239.36875 -223 239.6875 C-220.4375 240.75 -220.4375 240.75 -219.125 243.875 C-218.898125 244.82375 -218.67125 245.7725 -218.4375 246.75 C-220.25 248.75 -220.25 248.75 -222.4375 250.75 C-223.4275 250.75 -224.4175 250.75 -225.4375 250.75 C-225.4375 251.41 -225.4375 252.07 -225.4375 252.75 C-226.4275 253.08 -227.4175 253.41 -228.4375 253.75 C-229.17073796 255.76508358 -229.17073796 255.76508358 -229.4375 257.75 C-230.241875 257.729375 -231.04625 257.70875 -231.875 257.6875 C-234.37104885 257.45366379 -234.37104885 257.45366379 -235.4375 258.75 C-237.43708364 258.79080783 -239.43795254 258.79254356 -241.4375 258.75 C-241.4375 259.41 -241.4375 260.07 -241.4375 260.75 C-245.7275 260.42 -250.0175 260.09 -254.4375 259.75 C-254.4375 260.41 -254.4375 261.07 -254.4375 261.75 C-258.5192661 262.66839737 -261.90313019 262.68953047 -266.03125 262.0703125 C-269.0155311 261.6730543 -271.99711755 261.4635077 -275 261.25 C-280.90588309 260.81252718 -286.71216835 260.35309286 -292.4375 258.75 C-292.58614517 254.51361265 -292.63324652 251.38329757 -291.375 247.3125 C-290.37066345 243.4960211 -290.58214638 241.12890464 -291.14453125 237.3046875 C-291.69861217 232.47310184 -291.51145251 227.60621453 -291.4375 222.75 C-292.0975 222.75 -292.7575 222.75 -293.4375 222.75 C-293.46636984 218.77084841 -293.48425406 214.79172347 -293.5 210.8125 C-293.50837891 209.67619141 -293.51675781 208.53988281 -293.52539062 207.36914062 C-293.52861328 206.28955078 -293.53183594 205.20996094 -293.53515625 204.09765625 C-293.54039307 203.09742432 -293.54562988 202.09719238 -293.55102539 201.06665039 C-293.4375 198.75 -293.4375 198.75 -292.4375 197.75 C-292.44504568 193.92056684 -292.51682977 190.10218755 -292.65234375 186.27539062 C-292.67361328 185.07366211 -292.67361328 185.07366211 -292.6953125 183.84765625 C-292.7173877 183.11039307 -292.73946289 182.37312988 -292.76220703 181.61352539 C-292.65505371 180.99856201 -292.54790039 180.38359863 -292.4375 179.75 C-290.9525 178.76 -290.9525 178.76 -289.4375 177.75 C-288.90401859 175.82012768 -288.90401859 175.82012768 -288.5625 173.625 C-287.13446326 168.73672038 -284.21011122 166.9240168 -279.9375 164.5625 C-278.7928125 163.97082031 -277.648125 163.37914062 -276.46875 162.76953125 C-272.96608394 160.43592513 -271.81630136 158.69316299 -270.4375 154.75 C-270.7675 153.76 -271.0975 152.77 -271.4375 151.75 C-272.22125 151.79125 -273.005 151.8325 -273.8125 151.875 C-276.4375 151.75 -276.4375 151.75 -278.4375 149.75 C-278.705625 148.925 -278.97375 148.1 -279.25 147.25 C-280.20175451 144.51595806 -280.20175451 144.51595806 -282.9375 143.75 C-285.4375 142.75 -285.4375 142.75 -286.6171875 140.55078125 C-287.54188281 137.39360726 -287.45438286 135.19012776 -287.0625 131.9375 C-286.95164062 130.96167969 -286.84078125 129.98585937 -286.7265625 128.98046875 C-286.58347656 127.87638672 -286.58347656 127.87638672 -286.4375 126.75 C-285.7775 126.75 -285.1175 126.75 -284.4375 126.75 C-284.1075 125.76 -283.7775 124.77 -283.4375 123.75 C-280.49360218 122.57244087 -279.53796087 122.71651304 -276.4375 123.75 C-275.7775 124.74 -275.1175 125.73 -274.4375 126.75 C-274.1075 126.09 -273.7775 125.43 -273.4375 124.75 C-272.1175 125.41 -270.7975 126.07 -269.4375 126.75 C-269.4375 127.41 -269.4375 128.07 -269.4375 128.75 C-268.7775 128.75 -268.1175 128.75 -267.4375 128.75 C-267.4375 129.41 -267.4375 130.07 -267.4375 130.75 C-266.550625 130.646875 -265.66375 130.54375 -264.75 130.4375 C-261.4375 130.75 -261.4375 130.75 -258.875 132.6875 C-256.30207237 135.92015266 -254.47087622 139.16557304 -252.6484375 142.859375 C-251.50823175 145.07548469 -251.50823175 145.07548469 -248.4375 145.75 C-248.1075 146.41 -247.7775 147.07 -247.4375 147.75 C-245.4575 147.75 -243.4775 147.75 -241.4375 147.75 C-241.83193033 142.40443107 -242.19521901 137.68301817 -244.4375 132.75 C-244.4375 131.76 -244.4375 130.77 -244.4375 129.75 C-242.7875 129.42 -241.1375 129.09 -239.4375 128.75 C-239.1075 127.76 -238.7775 126.77 -238.4375 125.75 C-237.4475 126.245 -237.4475 126.245 -236.4375 126.75 C-235.9425 125.265 -235.9425 125.265 -235.4375 123.75 C-234.0453125 123.5334375 -234.0453125 123.5334375 -232.625 123.3125 C-229.43024889 122.82899889 -229.43024889 122.82899889 -226.4375 121.75 C-228.2372117 117.64015865 -228.2372117 117.64015865 -231.125 114.3125 C-233.32313558 111.69567193 -232.66731115 109.02480892 -232.4375 105.75 C-232.14705086 104.40667272 -231.82794206 103.06774196 -231.4375 101.75 C-231.4375 101.09 -231.4375 100.43 -231.4375 99.75 C-232.4275 99.42 -233.4175 99.09 -234.4375 98.75 C-233.7775 97.1 -233.1175 95.45 -232.4375 93.75 C-231.4475 94.08 -230.4575 94.41 -229.4375 94.75 C-228.7775 92.77 -228.1175 90.79 -227.4375 88.75 C-226.7775 88.75 -226.1175 88.75 -225.4375 88.75 C-225.23663557 85.03400809 -225.2855563 83.97791555 -227.4375 80.75 C-226.65375 80.193125 -225.87 79.63625 -225.0625 79.0625 C-222.28221942 76.98053175 -222.28221942 76.98053175 -221.4375 74.0625 C-221.1075 73.299375 -220.7775 72.53625 -220.4375 71.75 C-218 70.8125 -218 70.8125 -215.4375 70.75 C-213.9525 71.74 -213.9525 71.74 -212.4375 72.75 C-211.9425 70.77 -211.9425 70.77 -211.4375 68.75 C-209.7875 69.08 -208.1375 69.41 -206.4375 69.75 C-206.4375 69.09 -206.4375 68.43 -206.4375 67.75 C-204.4575 68.08 -202.4775 68.41 -200.4375 68.75 C-200.4375 67.76 -200.4375 66.77 -200.4375 65.75 C-199.4475 65.42 -198.4575 65.09 -197.4375 64.75 C-196.839375 63.8425 -196.24125 62.935 -195.625 62 C-192.85236867 57.88066202 -189.89850946 54.59192429 -185.0625 52.9375 C-184.52625 52.875625 -183.99 52.81375 -183.4375 52.75 C-183.4375 51.76 -183.4375 50.77 -183.4375 49.75 C-181.1275 50.08 -178.8175 50.41 -176.4375 50.75 C-174.40015031 56.86204906 -173.33793933 62.451318 -175.4375 68.75 C-177.75 69.4375 -177.75 69.4375 -180.4375 69.75 C-183.39841267 67.77605822 -184.28659073 65.02566484 -185.4375 61.75 C-185.72625 62.4925 -186.015 63.235 -186.3125 64 C-187.26052644 66.31739797 -188.28595911 68.52917115 -189.4375 70.75 C-189.1075 70.09 -188.7775 69.43 -188.4375 68.75 C-186.9525 69.245 -186.9525 69.245 -185.4375 69.75 C-185.4375 70.74 -185.4375 71.73 -185.4375 72.75 C-184.7775 72.75 -184.1175 72.75 -183.4375 72.75 C-183.4375 72.09 -183.4375 71.43 -183.4375 70.75 C-180.7975 70.75 -178.1575 70.75 -175.4375 70.75 C-175.4375 71.41 -175.4375 72.07 -175.4375 72.75 C-174.7775 72.75 -174.1175 72.75 -173.4375 72.75 C-173.210625 71.945625 -172.98375 71.14125 -172.75 70.3125 C-172.316875 69.466875 -171.88375 68.62125 -171.4375 67.75 C-168.8125 66.9375 -168.8125 66.9375 -166.4375 66.75 C-166.4375 68.07 -166.4375 69.39 -166.4375 70.75 C-167.4275 70.75 -168.4175 70.75 -169.4375 70.75 C-169.1075 71.41 -168.7775 72.07 -168.4375 72.75 C-162.4975 72.255 -162.4975 72.255 -156.4375 71.75 C-156.1075 72.74 -155.7775 73.73 -155.4375 74.75 C-154.509375 74.688125 -153.58125 74.62625 -152.625 74.5625 C-149.4375 74.75 -149.4375 74.75 -147.5625 76.25 C-147.005625 76.9925 -147.005625 76.9925 -146.4375 77.75 C-146.1075 76.43 -145.7775 75.11 -145.4375 73.75 C-144.1175 74.41 -142.7975 75.07 -141.4375 75.75 C-141.4375 76.41 -141.4375 77.07 -141.4375 77.75 C-140.7775 77.75 -140.1175 77.75 -139.4375 77.75 C-139.1075 79.4 -138.7775 81.05 -138.4375 82.75 C-137.4475 82.75 -136.4575 82.75 -135.4375 82.75 C-135.80875 81.5125 -136.18 80.275 -136.5625 79 C-137.19881953 76.40436565 -137.51284125 75.05973623 -136.875 72.4375 C-134.96049491 70.1900375 -133.09921247 69.01748213 -130.4375 67.75 C-129.1175 67.75 -127.7975 67.75 -126.4375 67.75 C-126.334375 68.389375 -126.23125 69.02875 -126.125 69.6875 C-125.7846875 70.7084375 -125.7846875 70.7084375 -125.4375 71.75 C-124.4475 72.08 -123.4575 72.41 -122.4375 72.75 C-122.1075 73.41 -121.7775 74.07 -121.4375 74.75 C-121.4375 73.76 -121.4375 72.77 -121.4375 71.75 C-119.7875 71.75 -118.1375 71.75 -116.4375 71.75 C-116.7675 70.43 -117.0975 69.11 -117.4375 67.75 C-116.2928125 67.5334375 -116.2928125 67.5334375 -115.125 67.3125 C-112.35577092 66.7867406 -112.35577092 66.7867406 -109.4375 65.75 C-109.1590625 64.95207031 -108.880625 64.15414062 -108.59375 63.33203125 C-107.4375 60.75 -107.4375 60.75 -104.90625 59.38671875 C-103.9265625 59.07347656 -102.946875 58.76023438 -101.9375 58.4375 C-100.9578125 58.11136719 -99.978125 57.78523438 -98.96875 57.44921875 C-96.4375 56.75 -96.4375 56.75 -94.4375 56.75 C-94.4375 55.1 -94.4375 53.45 -94.4375 51.75 C-91.9625 51.255 -91.9625 51.255 -89.4375 50.75 C-89.4375 51.41 -89.4375 52.07 -89.4375 52.75 C-86.7975 52.75 -84.1575 52.75 -81.4375 52.75 C-80.68823929 56.41305234 -80.1994986 59.17355152 -81.4375 62.75 C-80.1175 62.75 -78.7975 62.75 -77.4375 62.75 C-77.4375 62.09 -77.4375 61.43 -77.4375 60.75 C-74.1375 60.42 -70.8375 60.09 -67.4375 59.75 C-67.1075 58.76 -66.7775 57.77 -66.4375 56.75 C-63.75 56.4375 -63.75 56.4375 -60.4375 56.75 C-57.6875 59.1875 -57.6875 59.1875 -55.4375 61.75 C-54.7775 62.08 -54.1175 62.41 -53.4375 62.75 C-53.1075 61.1 -52.7775 59.45 -52.4375 57.75 C-51.4475 57.75 -50.4575 57.75 -49.4375 57.75 C-49.4375 54.78 -49.4375 51.81 -49.4375 48.75 C-46.9625 48.255 -46.9625 48.255 -44.4375 47.75 C-44.1075 46.43 -43.7775 45.11 -43.4375 43.75 C-42.76203125 43.67523438 -42.0865625 43.60046875 -41.390625 43.5234375 C-36.20338911 42.9096108 -36.20338911 42.9096108 -31.8828125 40.28125 C-30.66601915 38.47539431 -30.66601915 38.47539431 -29.4375 35.75 C-27.1275 36.08 -24.8175 36.41 -22.4375 36.75 C-22.31375 36.028125 -22.19 35.30625 -22.0625 34.5625 C-21.4470069 31.79278106 -20.55305626 29.3529646 -19.4375 26.75 C-18.4475 26.75 -17.4575 26.75 -16.4375 26.75 C-16.953125 26.358125 -17.46875 25.96625 -18 25.5625 C-19.4375 23.75 -19.4375 23.75 -19.25 21.3125 C-18.48874444 18.91161707 -17.79961744 16.86884935 -16.4375 14.75 C-14.9525 14.255 -14.9525 14.255 -13.4375 13.75 C-13.14875 12.945625 -12.86 12.14125 -12.5625 11.3125 C-11.4375 8.75 -11.4375 8.75 -9 7.4375 C-6.4375 6.75 -6.4375 6.75 -3.4375 6.75 C-4.0975 5.1 -4.7575 3.45 -5.4375 1.75 C-2.4375 -0.25 -2.4375 -0.25 0 0 Z " fill="#009BC5" transform="translate(313.4375,12.25)"/>
<path d="M0 0 C2.375 -0.125 2.375 -0.125 5 0 C5.66 0.66 6.32 1.32 7 2 C9.32275177 2.40047444 11.65739357 2.7397104 14 3 C13 6 13 6 11 7 C11 7.66 11 8.32 11 9 C10.34 9.66 9.68 10.32 9 11 C9.32326553 14.59679066 9.32326553 14.59679066 10 18 C11.98 18.66 13.96 19.32 16 20 C15.67 20.66 15.34 21.32 15 22 C12.9375 22.625 12.9375 22.625 11 23 C10.896875 24.093125 10.79375 25.18625 10.6875 26.3125 C9.95624281 30.23469768 9.57573671 30.42426329 7 33 C7.04125 33.94875 7.0825 34.8975 7.125 35.875 C7 39 7 39 4.75 41.75 C2.50509209 43.58674284 0.66372462 44.91477886 -2 46 C-2 45.01 -2 44.02 -2 43 C-2.88751953 43.23396484 -2.88751953 43.23396484 -3.79296875 43.47265625 C-8.29640632 44.5819859 -11.43812443 45.14046889 -16 44 C-18.72502965 44.37722015 -18.72502965 44.37722015 -21 45 C-21.226875 44.05125 -21.45375 43.1025 -21.6875 42.125 C-22.66973024 38.80353159 -22.66973024 38.80353159 -25.5625 37.8125 C-26.366875 37.544375 -27.17125 37.27625 -28 37 C-29.180933 33.457201 -29.27028374 30.71640139 -29 27 C-26 25 -26 25 -23.3125 25.375 C-22.1678125 25.684375 -22.1678125 25.684375 -21 26 C-20.67 24.35 -20.34 22.7 -20 21 C-18.6696875 20.7525 -18.6696875 20.7525 -17.3125 20.5 C-13.20673072 18.64078372 -12.26498193 16.68274826 -10.2734375 12.77734375 C-8.67289359 10.54345578 -7.61988241 10.52921625 -5 10 C-2.74983838 6.8843916 -1.33397757 3.59147806 0 0 Z " fill="#009BC5" transform="translate(322,322)"/>
<path d="M0 0 C11.23845572 1.49583649 11.23845572 1.49583649 16 6 C17.37733767 6.94422954 18.77482354 7.8595093 20.1875 8.75 C20.86167969 9.17796875 21.53585938 9.6059375 22.23046875 10.046875 C23.95848664 11.15807191 23.95848664 11.15807191 26 11 C26.33 11.66 26.66 12.32 27 13 C27.66 13.165 28.32 13.33 29 13.5 C29.66 13.665 30.32 13.83 31 14 C31.495 14.99 31.495 14.99 32 16 C33.97888961 16.72693904 35.97954558 17.39816251 38 18 C37.67 19.32 37.34 20.64 37 22 C38.65 22.33 40.3 22.66 42 23 C42.495 25.475 42.495 25.475 43 28 C43.66 28 44.32 28 45 28 C45 27.01 45 26.02 45 25 C46.32 24.34 47.64 23.68 49 23 C53 27.75 53 27.75 53 30 C50.525 29.01 50.525 29.01 48 28 C48.66 28.66 49.32 29.32 50 30 C50.1953125 32.3828125 50.1953125 32.3828125 50.125 35.125 C50.10695313 36.03507812 50.08890625 36.94515625 50.0703125 37.8828125 C50.04710937 38.58148438 50.02390625 39.28015625 50 40 C46.234375 42.015625 46.234375 42.015625 44.125 41.875 C41.14488755 40.64789488 38.66889133 38.79741661 36 37 C35.154375 36.690625 34.30875 36.38125 33.4375 36.0625 C27.96590654 33.67744644 25.19635544 28.79453316 22 24 C20.37446717 22.29319053 18.70884005 20.62339805 17 19 C16.38125 18.360625 15.7625 17.72125 15.125 17.0625 C8.84567942 10.83261964 8.84567942 10.83261964 1 7 C1 6.34 1 5.68 1 5 C0.34 5 -0.32 5 -1 5 C-0.67 3.35 -0.34 1.7 0 0 Z " fill="#009BC5" transform="translate(232,340)"/>
<path d="M0 0 C0.66 0 1.32 0 2 0 C2 0.66 2 1.32 2 2 C2.66 2 3.32 2 4 2 C3.34 5.3 2.68 8.6 2 12 C0.68 12 -0.64 12 -2 12 C-2 12.66 -2 13.32 -2 14 C-2.66 14 -3.32 14 -4 14 C-4 14.66 -4 15.32 -4 16 C-3.01 16.33 -2.02 16.66 -1 17 C-1.33 17.66 -1.66 18.32 -2 19 C-1.236875 18.773125 -0.47375 18.54625 0.3125 18.3125 C3 18 3 18 4.609375 19.2109375 C6.23865989 21.30703997 6.53679801 22.70568593 6.9375 25.3125 C7.75966356 29.64818307 9.50992336 32.34788759 12 36 C12.52098431 39.6468902 11.86432216 41.85395635 10 45 C9.01 45 8.02 45 7 45 C7 45.66 7 46.32 7 47 C5.515 47.495 5.515 47.495 4 48 C4 49.32 4 50.64 4 52 C0.25 54 0.25 54 -2 54 C-2 55.32 -2 56.64 -2 58 C-2.66 58 -3.32 58 -4 58 C-4 59.32 -4 60.64 -4 62 C-4.99 62 -5.98 62 -7 62 C-6.79375 62.9075 -6.5875 63.815 -6.375 64.75 C-5.9872755 68.11027897 -6.19588033 69.24075815 -8 72 C-9.32 71.34 -10.64 70.68 -12 70 C-12 68.68 -12 67.36 -12 66 C-13.485 66.495 -13.485 66.495 -15 67 C-13.44993113 58.47462123 -12.13347088 52.27876845 -5 47 C-4.01 47 -3.02 47 -2 47 C-2 44.36 -2 41.72 -2 39 C-1.34 39 -0.68 39 0 39 C1.3079998 31.04594718 0.6177609 25.83428614 -4 19 C-4.53625 18.46375 -5.0725 17.9275 -5.625 17.375 C-7 16 -7 16 -8 13 C-7.67 12.34 -7.34 11.68 -7 11 C-7.62056011 9.31562256 -8.29289322 7.64991582 -9 6 C-9.35858516 4.67323492 -9.7018576 3.34164079 -10 2 C-8.72125 2.04125 -7.4425 2.0825 -6.125 2.125 C-3.98128508 2.24212873 -3.98128508 2.24212873 -2 2 C-1.34 1.34 -0.68 0.68 0 0 Z " fill="#009BC5" transform="translate(354,140)"/>
<path d="M0 0 C0.66 0 1.32 0 2 0 C1.51826259 5.4195459 1.51826259 5.4195459 -0.5625 7.75 C-3.32841828 9.16841963 -5.93876381 9.8538631 -8.9609375 10.52734375 C-11.7067239 11.16381914 -14.34173133 12.06960597 -17 13 C-17 14.65 -17 16.3 -17 18 C-16.01 18 -15.02 18 -14 18 C-13.67 17.01 -13.34 16.02 -13 15 C-11.02 14.67 -9.04 14.34 -7 14 C-7.375 15.9375 -7.375 15.9375 -8 18 C-8.66 18.33 -9.32 18.66 -10 19 C-9.505 19.4125 -9.01 19.825 -8.5 20.25 C-7 22 -7 22 -7 26 C-5.68 26.66 -4.36 27.32 -3 28 C-3.639375 28.103125 -4.27875 28.20625 -4.9375 28.3125 C-5.618125 28.539375 -6.29875 28.76625 -7 29 C-7.33 29.99 -7.66 30.98 -8 32 C-8.99 31.67 -9.98 31.34 -11 31 C-11 30.01 -11 29.02 -11 28 C-11.99 28 -12.98 28 -14 28 C-14.33 27.01 -14.66 26.02 -15 25 C-14.91621094 25.78246094 -14.83242188 26.56492187 -14.74609375 27.37109375 C-14.64425781 28.38300781 -14.54242188 29.39492188 -14.4375 30.4375 C-14.33308594 31.44683594 -14.22867187 32.45617187 -14.12109375 33.49609375 C-14.06115234 34.73552734 -14.06115234 34.73552734 -14 36 C-15 37 -15 37 -17.5625 37.0625 C-18.366875 37.041875 -19.17125 37.02125 -20 37 C-20 35.02 -20 33.04 -20 31 C-20.99 30.67 -21.98 30.34 -23 30 C-24.21823184 26.34530449 -23.6247906 24.80312873 -22.625 21.125 C-21.63362575 17.42819322 -20.70802702 13.7622612 -20 10 C-19.01 10 -18.02 10 -17 10 C-16.67 9.01 -16.34 8.02 -16 7 C-15.154375 6.87625 -14.30875 6.7525 -13.4375 6.625 C-6.58441005 5.68111778 -6.58441005 5.68111778 -1.1875 1.875 C-0.795625 1.25625 -0.40375 0.6375 0 0 Z " fill="#009BC5" transform="translate(362,331)"/>
<path d="M0 0 C1.20462891 0.16048828 1.20462891 0.16048828 2.43359375 0.32421875 C3.64208984 0.47310547 3.64208984 0.47310547 4.875 0.625 C6.87109375 1.01171875 6.87109375 1.01171875 7.87109375 2.01171875 C8.73734375 2.01171875 9.60359375 2.01171875 10.49609375 2.01171875 C14.04879846 2.01171875 17.35944898 2.50093406 20.87109375 3.01171875 C22.5373833 3.04717172 24.20519178 3.06220063 25.87109375 3.01171875 C25.21109375 4.00171875 24.55109375 4.99171875 23.87109375 6.01171875 C21.23109375 5.68171875 18.59109375 5.35171875 15.87109375 5.01171875 C15.87109375 5.67171875 15.87109375 6.33171875 15.87109375 7.01171875 C15.27941406 7.00011719 14.68773437 6.98851562 14.078125 6.9765625 C12.89283203 6.96302734 12.89283203 6.96302734 11.68359375 6.94921875 C10.51763672 6.93181641 10.51763672 6.93181641 9.328125 6.9140625 C6.87474098 6.94235537 6.87474098 6.94235537 4.5378418 7.50732422 C0.009506 8.36382351 -4.53307587 8.19621101 -9.12890625 8.19921875 C-10.60617187 8.21758789 -10.60617187 8.21758789 -12.11328125 8.23632812 C-13.54414063 8.23922852 -13.54414063 8.23922852 -15.00390625 8.2421875 C-15.86757813 8.24629639 -16.73125 8.25040527 -17.62109375 8.25463867 C-20.42214062 7.98331453 -22.57535786 7.16636423 -25.12890625 6.01171875 C-24.79890625 4.69171875 -24.46890625 3.37171875 -24.12890625 2.01171875 C-18.76460275 1.10251477 -16.16724927 0.94470623 -11.12890625 3.01171875 C-6.77305438 2.71640676 -3.62809729 0.01997118 0 0 Z " fill="#009BC5" transform="translate(306.12890625,378.98828125)"/>
<path d="M0 0 C2.8125 -0.3125 2.8125 -0.3125 6 0 C8 2.125 8 2.125 9 5 C8.35902703 7.00838196 7.69100553 9.00827818 7 11 C7.63106429 13.01151741 8.29373761 15.01363702 9 17 C8.34 17.99 7.68 18.98 7 20 C7.66 20 8.32 20 9 20 C9 21.65 9 23.3 9 25 C7 25 7 25 5.4375 23.75 C3.8206729 21.78168875 3.59230099 20.44324159 3 18 C2.01268258 16.65724831 1.01405257 15.32267727 0 14 C0 13.34 0 12.68 0 12 C-0.66 12 -1.32 12 -2 12 C-2 11.34 -2 10.68 -2 10 C-1.34 10 -0.68 10 0 10 C-0.185625 9.46375 -0.37125 8.9275 -0.5625 8.375 C-1.11419324 5.38009386 -0.60597444 2.96254171 0 0 Z " fill="#009BC5" transform="translate(329,272)"/>
<path d="M0 0 C2.375 0.1875 2.375 0.1875 5 1 C6.76241771 3.88395625 7.07239607 5.45702944 6.625 8.8125 C6.315625 9.8953125 6.315625 9.8953125 6 11 C5.34 11 4.68 11 4 11 C4.33 12.32 4.66 13.64 5 15 C1.66411172 16.11196276 0.29427581 16.09809194 -3 15 C-4.3125 12.9375 -4.3125 12.9375 -5 11 C-6.65 12.65 -8.3 14.3 -10 16 C-10.99 15.67 -11.98 15.34 -13 15 C-12.67 13.68 -12.34 12.36 -12 11 C-11.01 11 -10.02 11 -9 11 C-8.67 9.68 -8.34 8.36 -8 7 C-6.02 7 -4.04 7 -2 7 C-1.855625 6.401875 -1.71125 5.80375 -1.5625 5.1875 C-1.1127561 3.43849596 -0.57107659 1.71322977 0 0 Z " fill="#009BC5" transform="translate(357,300)"/>
<path d="M0 0 C2.57216446 0.3547813 3.79677287 0.8042998 5.6875 2.625 C7.38925154 5.70435993 7.66588785 8.52523365 8 12 C5.75 13.5625 5.75 13.5625 3 15 C0.828125 14.58984375 0.828125 14.58984375 -1 14 C-2.51708428 4.58997722 -2.51708428 4.58997722 0 0 Z " fill="#009BC5" transform="translate(166,325)"/>
<path d="M0 0 C0.99 0 1.98 0 3 0 C2.875 1.875 2.875 1.875 2 4 C0.00428677 4.67939174 -1.99594773 5.34561559 -4 6 C-4.70151152 7.3153341 -5.36525925 8.65117592 -6 10 C-11.33333333 14 -11.33333333 14 -14 14 C-12.75905393 9.03621571 -11.366661 6.71703351 -7 4 C-4.67413317 3.15072083 -2.4189898 2.56917407 0 2 C0 1.34 0 0.68 0 0 Z " fill="#009BC5" transform="translate(377,368)"/>
<path d="M0 0 C0.66 0 1.32 0 2 0 C3.29676812 4.61073111 2.71109139 8.33840089 2 13 C0.68 12.67 -0.64 12.34 -2 12 C-3.26198237 7.70925993 -2.68038993 5.10761984 -1 1 C-0.67 0.67 -0.34 0.34 0 0 Z " fill="#009BC5" transform="translate(324,246)"/>
<path d="M0 0 C4 0 4 0 7 1 C8.80162669 3.52227736 9.04839136 4.64513 8.625 7.75 C8.41875 8.4925 8.2125 9.235 8 10 C7.01 9.67 6.02 9.34 5 9 C4.67 7.02 4.34 5.04 4 3 C2.35 2.67 0.7 2.34 -1 2 C-0.67 1.34 -0.34 0.68 0 0 Z " fill="#009BC5" transform="translate(340,286)"/>
<path d="M0 0 C0 0.66 0 1.32 0 2 C-9.41002278 4.11161731 -9.41002278 4.11161731 -14 5 C-14 4.34 -14 3.68 -14 3 C-9.4871514 0.3964335 -5.15155902 0 0 0 Z " fill="#009BC5" transform="translate(359,375)"/>
<path d="M0 0 C2.31 0 4.62 0 7 0 C7 0.99 7 1.98 7 3 C5.35 3 3.7 3 2 3 C1.67 3.66 1.34 4.32 1 5 C-0.65 5 -2.3 5 -4 5 C-3.67 4.01 -3.34 3.02 -3 2 C-2.01 2 -1.02 2 0 2 C0 1.34 0 0.68 0 0 Z " fill="#009BC5" transform="translate(336,379)"/>
<path d="M0 0 C2.31 0 4.62 0 7 0 C7 1.32 7 2.64 7 4 C4.36 3.67 1.72 3.34 -1 3 C-0.67 2.01 -0.34 1.02 0 0 Z " fill="#009BC5" transform="translate(343,382)"/>
<path d="M0 0 C2.0625 0.4375 2.0625 0.4375 4 1 C4.33 2.65 4.66 4.3 5 6 C3.02 5.34 1.04 4.68 -1 4 C-1 1 -1 1 0 0 Z " fill="#009BC5" transform="translate(351,289)"/>
<path d="M0 0 C1.65 0 3.3 0 5 0 C4.49396008 2.16874252 4.00016187 3.99967627 3 6 C2.01 5.67 1.02 5.34 0 5 C0 3.35 0 1.7 0 0 Z " fill="#009BC5" transform="translate(341,296)"/>
<path d="M0 0 C1.875 0.25 1.875 0.25 4 1 C5.25 3.0625 5.25 3.0625 6 5 C4.68 5 3.36 5 2 5 C1.34 4.34 0.68 3.68 0 3 C0 2.01 0 1.02 0 0 Z " fill="#009BC5" transform="translate(31,164)"/>
<path d="M0 0 C0.33 0 0.66 0 1 0 C1.33 2.64 1.66 5.28 2 8 C0.68 7.67 -0.64 7.34 -2 7 C-2.125 4.625 -2.125 4.625 -2 2 C-1.34 1.34 -0.68 0.68 0 0 Z " fill="#009BC5" transform="translate(347,298)"/>
<path d="M0 0 C1.32 0.33 2.64 0.66 4 1 C4.33 2.32 4.66 3.64 5 5 C4.01 5 3.02 5 2 5 C1.34 3.35 0.68 1.7 0 0 Z " fill="#009BC5" transform="translate(351,295)"/>
<path d="M0 0 C0.66 0 1.32 0 2 0 C2 0.66 2 1.32 2 2 C2.99 2.33 3.98 2.66 5 3 C4.67 3.66 4.34 4.32 4 5 C3.01 5 2.02 5 1 5 C0.67 3.35 0.34 1.7 0 0 Z " fill="#009BC5" transform="translate(349,298)"/>
</svg>
