<?xml version="1.0" encoding="UTF-8"?>
<svg version="1.1" xmlns="http://www.w3.org/2000/svg" width="600" height="379">
<path d="M0 0 C2.0625 0.4375 2.0625 0.4375 4 1 C4 1.66 4 2.32 4 3 C4.58007812 2.88140625 5.16015625 2.7628125 5.7578125 2.640625 C10.12421622 1.92009633 12.38369864 1.71386008 16.5 3.625 C19.20454826 6.19432084 19.80206778 7.33825394 20 11 C20 11.33 20 11.66 20 12 C20.99 12.33 21.98 12.66 23 13 C23.99 13.99 23.99 13.99 25 15 C28.59679066 14.67673447 28.59679066 14.67673447 32 14 C32 14.66 32 15.32 32 16 C33.65 15.67 35.3 15.34 37 15 C37.33 13.68 37.66 12.36 38 11 C42.15481571 10.50537908 43.66389071 10.75800131 47.125 13.25 C51.87755102 17.79591837 51.87755102 17.79591837 54 20 C54.33 18.68 54.66 17.36 55 16 C55.598125 15.855625 56.19625 15.71125 56.8125 15.5625 C58.56150404 15.1127561 60.28677023 14.57107659 62 14 C62.33 13.34 62.66 12.68 63 12 C62.34 12 61.68 12 61 12 C61 10.68 61 9.36 61 8 C65.95 7.34 70.9 6.68 76 6 C76.33 6.99 76.66 7.98 77 9 C83.2653672 10.17844659 83.2653672 10.17844659 89 8 C91.5625 7.625 91.5625 7.625 94 8 C95.8125 10 95.8125 10 97 12 C97.9075 11.67 98.815 11.34 99.75 11 C103 10 103 10 107 10 C107 9.01 107 8.02 107 7 C107.99 7 108.98 7 110 7 C110 7.99 110 8.98 110 10 C110.99 10 111.98 10 113 10 C112.34 9.67 111.68 9.34 111 9 C110.375 6.9375 110.375 6.9375 110 5 C117.07450868 2.99411796 122.31978404 3.08723815 129.5 4.4375 C131.28044643 4.75326293 133.0616649 5.06471425 134.84375 5.37109375 C135.61912109 5.51474365 136.39449219 5.65839355 137.19335938 5.80639648 C137.78955078 5.87028564 138.38574219 5.9341748 139 6 C139.33 5.67 139.66 5.34 140 5 C142.4375 4.75 142.4375 4.75 145 5 C146.99913515 7.99870273 147.42306794 9.53840765 148 13 C148.185625 13.928125 148.37125 14.85625 148.5625 15.8125 C148.706875 16.534375 148.85125 17.25625 149 18 C146.69 18 144.38 18 142 18 C141.67 18.99 141.34 19.98 141 21 C140.67 21.7425 140.34 22.485 140 23.25 C139.70446233 26.03637773 139.70446233 26.03637773 141.49609375 27.7734375 C142.77947337 28.99742531 144.09227366 30.19136 145.43359375 31.3515625 C147 33 147 33 147 36 C146.06027344 36.12955078 146.06027344 36.12955078 145.1015625 36.26171875 C142.87510371 36.78639766 142.87510371 36.78639766 142.0234375 38.70703125 C141.80945313 39.40183594 141.59546875 40.09664062 141.375 40.8125 C141.02115234 41.88951172 141.02115234 41.88951172 140.66015625 42.98828125 C140.44230469 43.65214844 140.22445313 44.31601563 140 45 C139.36039986 46.3465266 138.710001 47.68922893 138 49 C136.68 48.34 135.36 47.68 134 47 C133.34 48.32 132.68 49.64 132 51 C131.01 51 130.02 51 129 51 C129.59861742 53.35171131 130.26924352 55.6859378 131 58 C131.66 58.33 132.32 58.66 133 59 C133 59.99 133 60.98 133 62 C133.66 62 134.32 62 135 62 C137.38121541 69.14364623 135.18233848 77.01651687 133 84 C132.34 84 131.68 84 131 84 C124.02333431 74.64071023 121.22264252 67.86813853 122.875 56.25 C123.45678581 52.79206181 124.09532975 49.38840132 125 46 C124.34 47.32 123.68 48.64 123 50 C122.01 49.67 121.02 49.34 120 49 C120 48.34 120 47.68 120 47 C118.68 47.33 117.36 47.66 116 48 C116 49.093125 116 50.18625 116 51.3125 C116 53.54166667 116 55.77083333 116 58 C114.35 58.66 112.7 59.32 111 60 C111 59.34 111 58.68 111 58 C109.68 57.67 108.36 57.34 107 57 C107 57.66 107 58.32 107 59 C106.38511719 59.07734375 105.77023437 59.1546875 105.13671875 59.234375 C102.33426277 59.82436573 100.4004104 60.41249454 98 62 C96.00910343 66.40578038 95 71.15367924 95 76 C95.66 76 96.32 76 97 76 C97 76.99 97 77.98 97 79 C97.598125 78.814375 98.19625 78.62875 98.8125 78.4375 C101 78 101 78 104 79 C104 78.34 104 77.68 104 77 C104.66 77 105.32 77 106 77 C106.96189997 78.72718516 107.91936508 80.45684058 108.875 82.1875 C109.40867187 83.15042969 109.94234375 84.11335938 110.4921875 85.10546875 C112.8888904 89.70639323 114 92.84835727 114 98 C114.91568906 100.25132517 114.91568906 100.25132517 116 102 C114.515 102.495 114.515 102.495 113 103 C110.84705349 97.71169451 108.72066106 92.44876003 107 87 C107.165 87.680625 107.33 88.36125 107.5 89.0625 C108.80998533 96.75866379 107.83941172 104.58313733 103.55859375 111.2421875 C102 113 102 113 99.375 113.9375 C98.59125 114.288125 97.8075 114.63875 97 115 C96.06343771 117.80968687 96 120.03799136 96 123 C96.680625 123.969375 97.36125 124.93875 98.0625 125.9375 C100 129 100 129 99.75 131.375 C99.37875 132.179375 99.37875 132.179375 99 133 C97.35 133.33 95.7 133.66 94 134 C93.67 131.69 93.34 129.38 93 127 C92.01 127 91.02 127 90 127 C89.67 125.68 89.34 124.36 89 123 C86.83125748 123.50603992 85.00032373 123.99983813 83 125 C82.67 123.68 82.34 122.36 82 121 C81.34 121.99 80.68 122.98 80 124 C79.34 124 78.68 124 78 124 C78 124.66 78 125.32 78 126 C81 127.33333333 81 127.33333333 84 126 C84.99 126.33 85.98 126.66 87 127 C86.67 127.99 86.34 128.98 86 130 C85.34 130 84.68 130 84 130 C84.41796493 133.44821066 85.21705408 135.3551794 87.0625 138.375 C89.23990006 142.04638258 89.53775279 144.6979777 89 149 C87.30022701 154.1887807 85.27448977 157.58040818 81 161 C78.36208285 162.22089474 75.77727701 163.10562266 73 164 C73 165.65 73 167.3 73 169 C71.68 169.33 70.36 169.66 69 170 C69 166 69 166 70 164 C68.68 164.33 67.36 164.66 66 165 C65.23251486 166.81583215 65.23251486 166.81583215 65 169 C66.15180608 170.86320357 66.15180608 170.86320357 67.875 172.5 C70.24433526 174.92443608 71.59328917 176.57397824 72 180 C70.31732791 183.63102925 68.41292639 185.90820641 65 188 C64.34 188 63.68 188 63 188 C63 187.01 63 186.02 63 185 C62.401875 184.71125 61.80375 184.4225 61.1875 184.125 C59 183 59 183 56 181 C55.27643602 183.60483034 54.80765933 185.38450987 55.625 188 C57.02460477 190.19303764 57.02460477 190.19303764 59.5 192.3125 C62.54925681 195.59045107 63.07126269 197.69403611 64 202 C63.34 202 62.68 202 62 202 C62.79117904 203.99983534 62.79117904 203.99983534 64 206 C64.99 206.33 65.98 206.66 67 207 C66.67 209.31 66.34 211.62 66 214 C66.67546875 214.06058594 67.3509375 214.12117187 68.046875 214.18359375 C68.93890625 214.26738281 69.8309375 214.35117188 70.75 214.4375 C72.07257813 214.55931641 72.07257813 214.55931641 73.421875 214.68359375 C75.69350452 214.96238465 77.79851823 215.38790577 80 216 C80 216.66 80 217.32 80 218 C85.28 218 90.56 218 96 218 C96.33 218.66 96.66 219.32 97 220 C95.35 220.33 93.7 220.66 92 221 C92 221.66 92 222.32 92 223 C88 222 88 222 86.12988281 221.51196289 C83.98377836 220.99610078 81.84965635 220.60387212 79.671875 220.24609375 C78.87265625 220.11396484 78.0734375 219.98183594 77.25 219.84570312 C76.425 219.71099609 75.6 219.57628906 74.75 219.4375 C73.90953125 219.29892578 73.0690625 219.16035156 72.203125 219.01757812 C70.13565825 218.67691599 68.06786093 218.3382612 66 218 C65.67 217.01 65.34 216.02 65 215 C64.4225 214.87625 63.845 214.7525 63.25 214.625 C59.78182698 213.66161861 58.31345527 211.71830994 56 209 C54.96501107 207.02743286 54.04302034 205.02009365 53.11328125 202.99609375 C51.30478699 199.75349528 48.67251379 197.55103589 46 195 C46 194.34 46 193.68 46 193 C50.21912747 193.4794463 52.79663178 194.16625119 56 197 C55.72285156 196.48050781 55.44570313 195.96101562 55.16015625 195.42578125 C53.18424051 191.62161606 51.56499734 188.29397979 51 184 C50.46615632 180.26309425 49.89569685 177.28587453 48 174 C46.68 174.33 45.36 174.66 44 175 C43.566875 173.9275 43.13375 172.855 42.6875 171.75 C41.44552705 168.82249233 39.95643046 166.51541059 38 164 C38 163.34 38 162.68 38 162 C32.26807354 164.02303287 29.80033172 166.09957226 26 171 C25.0925 171.61875 24.185 172.2375 23.25 172.875 C20.43397825 175.5345761 20.1202555 177.27242384 19.84765625 181.046875 C20.06901203 183.88476965 21.42981663 185.67612861 23 188 C23.1875 190.8125 23.1875 190.8125 23 193 C21.68 193 20.36 193 19 193 C18.67 191.02 18.34 189.04 18 187 C16.02 187.99 16.02 187.99 14 189 C9.04149331 181.17077891 5.45244578 174.35054612 5 165 C3.35 165.33 1.7 165.66 0 166 C-0.61875 164.8553125 -0.61875 164.8553125 -1.25 163.6875 C-3.0859684 160.8679771 -4.00199605 159.49900198 -7 158 C-9.21612293 157.87736869 -11.38788479 157.94275929 -13.60546875 158.02734375 C-17.28404066 157.98533722 -20.47852469 157.02442918 -24 156 C-22.62308038 158.75383923 -20.63279958 159.51483101 -18 161 C-18.50109958 165.38462134 -19.98295115 167.8000997 -23 171 C-23.66 171 -24.32 171 -25 171 C-25 171.66 -25 172.32 -25 173 C-26.65 173.33 -28.3 173.66 -30 174 C-30 174.66 -30 175.32 -30 176 C-32.10171867 176.8394882 -34.20646625 177.67139656 -36.3125 178.5 C-37.48425781 178.9640625 -38.65601563 179.428125 -39.86328125 179.90625 C-43 181 -43 181 -46 181 C-45.67 181.66 -45.34 182.32 -45 183 C-40.38 182.67 -35.76 182.34 -31 182 C-33.15017279 191.38257216 -37.63820421 197.12879778 -45.01171875 203.23828125 C-47.20417814 205.03013122 -47.20417814 205.03013122 -49 208 C-49.66 208 -50.32 208 -51 208 C-51.8432696 212.04769408 -52.19880263 214.89497528 -51 218.875 C-49.76602426 223.39957771 -49.17126397 227.56108568 -51 232 C-53.20629833 233.95318571 -55.53684936 235.52477902 -57.98046875 237.16796875 C-60.45146149 239.4095463 -60.62963525 240.53660869 -60.8125 243.8125 C-60.77769531 244.56144531 -60.74289062 245.31039062 -60.70703125 246.08203125 C-60.85205078 247.03142578 -60.85205078 247.03142578 -61 248 C-62.9609375 249.09765625 -62.9609375 249.09765625 -65 250 C-65.268125 250.86625 -65.53625 251.7325 -65.8125 252.625 C-67.61095376 257.73639489 -71.20375772 262.2560434 -75.84765625 265.15234375 C-78.55920197 266.22023018 -81.19559526 266.79027572 -84.0625 267.3125 C-85.10535156 267.51488281 -86.14820313 267.71726562 -87.22265625 267.92578125 C-90 268 -90 268 -91.80859375 266.81640625 C-93.18996865 264.71037566 -93.59382231 263.10437634 -94 260.625 C-94.4631088 257.8174029 -94.97098601 256.04766032 -96.46484375 253.59375 C-98.18241288 250.69180114 -98.84213177 248.15987914 -99.5625 244.875 C-100.36321599 241.24689704 -100.91716201 239.12425698 -103 236 C-103.046875 233.80859375 -103.046875 233.80859375 -102.75 231.4375 C-102.66234375 230.65246094 -102.5746875 229.86742187 -102.484375 229.05859375 C-102 227 -102 227 -100 225 C-99.64030697 219.00511614 -101.30125641 214.70749185 -105 210 C-107.36574234 206.4513865 -107.10865265 205.4235475 -106.625 201.3125 C-106.51414062 200.31863281 -106.40328125 199.32476562 -106.2890625 198.30078125 C-106.19367188 197.54152344 -106.09828125 196.78226563 -106 196 C-107.11375 196.061875 -108.2275 196.12375 -109.375 196.1875 C-110.57125 196.125625 -111.7675 196.06375 -113 196 C-113.66 195.01 -114.32 194.02 -115 193 C-118.31963323 193.46474865 -121.63287291 193.93751028 -124.9375 194.5 C-125.948125 194.665 -126.95875 194.83 -128 195 C-129.258125 195.309375 -130.51625 195.61875 -131.8125 195.9375 C-136.50702353 196.51417851 -139.33131297 194.48865153 -143.01171875 191.76171875 C-145.71155255 189.3695281 -147.32960539 187.19553752 -149 184 C-149 183.34 -149 182.68 -149 182 C-149.99 181.67 -150.98 181.34 -152 181 C-153.125 176.25 -153.125 176.25 -152 174 C-152.11037284 172.35312107 -152.23812265 170.70738813 -152.375 169.0625 C-152.45762336 162.09459676 -149.51407259 157.16891871 -145 152 C-144.1234375 151.47792969 -143.246875 150.95585937 -142.34375 150.41796875 C-139.59493987 149.09243541 -139.59493987 149.09243541 -138.6875 145.3125 C-138.460625 144.219375 -138.23375 143.12625 -138 142 C-136.68 141.67 -135.36 141.34 -134 141 C-133.505 138.03 -133.505 138.03 -133 135 C-134.65 134.67 -136.3 134.34 -138 134 C-138.93343555 130.93299749 -139.03969872 128.49280191 -138.6875 125.3125 C-138.56955078 124.13107422 -138.56955078 124.13107422 -138.44921875 122.92578125 C-138.30097656 122.29027344 -138.15273438 121.65476562 -138 121 C-135.35541621 119.67770811 -133.32238699 119.90322806 -130.375 119.9375 C-128.87066406 119.95103516 -128.87066406 119.95103516 -127.3359375 119.96484375 C-126.56507813 119.97644531 -125.79421875 119.98804688 -125 120 C-125.77030122 116.51190809 -125.77030122 116.51190809 -127 113 C-128.485 112.505 -128.485 112.505 -130 112 C-130 111.01 -130 110.02 -130 109 C-128.68 109 -127.36 109 -126 109 C-126 108.34 -126 107.68 -126 107 C-126.66 107 -127.32 107 -128 107 C-129.33783393 106.68521554 -130.67203709 106.35412344 -132 106 C-131.01 105.01 -131.01 105.01 -130 104 C-130.33 103.01 -130.66 102.02 -131 101 C-130.505 99.515 -130.505 99.515 -130 98 C-129.34 98 -128.68 98 -128 98 C-128 97.34 -128 96.68 -128 96 C-129.485 96.495 -129.485 96.495 -131 97 C-131.268125 97.825 -131.53625 98.65 -131.8125 99.5 C-132.204375 100.325 -132.59625 101.15 -133 102 C-136.125 102.8125 -136.125 102.8125 -139 103 C-139.49046322 97.60490463 -139.49046322 97.60490463 -137.125 94.6875 C-135 93 -135 93 -133 92 C-133 90.02 -133 88.04 -133 86 C-130.625 85.375 -130.625 85.375 -128 85 C-126 87 -126 87 -125.5625 89.3125 C-124.92401831 92.36302362 -123.63384361 94.37164288 -122 97 C-122 97.66 -122 98.32 -122 99 C-121.01 99.33 -120.02 99.66 -119 100 C-119 100.99 -119 101.98 -119 103 C-118.443125 102.195625 -117.88625 101.39125 -117.3125 100.5625 C-114.78135513 97.75771784 -113.67420866 97.30618405 -110 97 C-110.20625 95.88625 -110.4125 94.7725 -110.625 93.625 C-110.810625 91.830625 -110.810625 91.830625 -111 90 C-110.34 89.34 -109.68 88.68 -109 88 C-108.01 88 -107.02 88 -106 88 C-106 87.01 -106 86.02 -106 85 C-106.556875 85.350625 -107.11375 85.70125 -107.6875 86.0625 C-110.53886783 87.21845993 -112.08517222 86.80967438 -115 86 C-115.69289369 82.27569643 -116.11144596 78.78916254 -116 75 C-115.34 75 -114.68 75 -114 75 C-114 74.34 -114 73.68 -114 73 C-113.21625 72.7525 -112.4325 72.505 -111.625 72.25 C-108.51512121 70.76910534 -108.1911808 70.1481207 -107 67 C-106.484375 65.906875 -105.96875 64.81375 -105.4375 63.6875 C-103.84289867 60.05942202 -103.84289867 60.05942202 -103.5625 56.1875 C-103.2840625 54.6096875 -103.2840625 54.6096875 -103 53 C-101.2265625 51.96875 -101.2265625 51.96875 -99 51 C-98.32582031 50.56300781 -97.65164063 50.12601563 -96.95703125 49.67578125 C-92.03799466 46.54874342 -88.73942177 45.48180333 -82.9453125 46.3125 C-80.6542075 47.12220779 -79.67216647 48.27360111 -78 50 C-76.9275 50.28875 -75.855 50.5775 -74.75 50.875 C-70.19028832 52.24291351 -67.64158828 53.95295674 -64 57 C-64 57.99 -64 58.98 -64 60 C-63.01 59.67 -62.02 59.34 -61 59 C-61.495 56.03 -61.495 56.03 -62 53 C-60.35 53.33 -58.7 53.66 -57 54 C-57.33 55.32 -57.66 56.64 -58 58 C-57.34 58 -56.68 58 -56 58 C-55.773125 57.4225 -55.54625 56.845 -55.3125 56.25 C-53.63315609 53.37112473 -51.77209171 51.82552381 -49 50 C-47.515 50.495 -47.515 50.495 -46 51 C-42.84979639 50.11680706 -42.84979639 50.11680706 -40 49 C-41.485 48.01 -41.485 48.01 -43 47 C-43 46.01 -43 45.02 -43 44 C-39.04 44.99 -35.08 45.98 -31 47 C-31.99 44.525 -31.99 44.525 -33 42 C-32.9765625 38.88671875 -32.9765625 38.88671875 -32.625 35.6875 C-32.51414062 34.61886719 -32.40328125 33.55023438 -32.2890625 32.44921875 C-32.19367188 31.64097656 -32.09828125 30.83273438 -32 30 C-31.01 30 -30.02 30 -29 30 C-29 30.66 -29 31.32 -29 32 C-26.36893239 33.05270463 -26.36893239 33.05270463 -25 33 C-24.34 32.67 -23.68 32.34 -23 32 C-22.67 32.66 -22.34 33.32 -22 34 C-21.67 33.34 -21.34 32.68 -21 32 C-19.68 32 -18.36 32 -17 32 C-17.99 31.67 -18.98 31.34 -20 31 C-20 30.34 -20 29.68 -20 29 C-19.34 29 -18.68 29 -18 29 C-17.67 28.01 -17.34 27.02 -17 26 C-14.9375 24.8125 -14.9375 24.8125 -13 24 C-13.99 22.02 -13.99 22.02 -15 20 C-12.02911382 16.00073014 -8.87051275 13.07881696 -5 10 C-4.01 10.495 -4.01 10.495 -3 11 C-0.89483087 7.57910017 -0.91206315 4.95715833 -1 1 C-0.67 0.67 -0.34 0.34 0 0 Z M-23 41 C-22 44 -22 44 -22 44 Z M-22 46 C-21.34 46.66 -20.68 47.32 -20 48 C-20 47.34 -20 46.68 -20 46 C-20.66 46 -21.32 46 -22 46 Z M-19 50 C-19.33 51.65 -19.66 53.3 -20 55 C-19.34 54.67 -18.68 54.34 -18 54 C-18.33 52.68 -18.66 51.36 -19 50 Z M-73 62 C-73 62.99 -73 63.98 -73 65 C-70.36 65.33 -67.72 65.66 -65 66 C-65.33 64.68 -65.66 63.36 -66 62 C-68.31 62 -70.62 62 -73 62 Z M-91 65 C-91.6496875 66.3921875 -91.6496875 66.3921875 -92.3125 67.8125 C-94 71 -94 71 -95.6875 72.5625 C-97.23490861 73.9806738 -97.23490861 73.9806738 -97.3125 76.4375 C-96.99264998 79.0602702 -96.33802108 80.74208944 -95 83 C-95.66 83.66 -96.32 84.32 -97 85 C-97.16687448 87.58354218 -97.16687448 87.58354218 -97 90 C-99.31 91.32 -101.62 92.64 -104 94 C-103.67 94.66 -103.34 95.32 -103 96 C-102.01 96.33 -101.02 96.66 -100 97 C-99.01 96.34 -98.02 95.68 -97 95 C-94.3125 94.875 -94.3125 94.875 -92 95 C-90.52952664 91.08936776 -90.52952664 91.08936776 -90 87 C-88.68 87.33 -87.36 87.66 -86 88 C-86 87.34 -86 86.68 -86 86 C-86.99 85.67 -87.98 85.34 -89 85 C-87.68 83.68 -86.36 82.36 -85 81 C-86.98 80.34 -88.96 79.68 -91 79 C-91.37065637 71.58687259 -91.37065637 71.58687259 -89.5 68.625 C-89.005 68.08875 -88.51 67.5525 -88 67 C-88 66.34 -88 65.68 -88 65 C-88.99 65 -89.98 65 -91 65 Z M-71 75 C-70.34 75.66 -69.68 76.32 -69 77 C-69 76.34 -69 75.68 -69 75 C-69.66 75 -70.32 75 -71 75 Z M-77 76 C-76.34 77.32 -75.68 78.64 -75 80 C-75 79.01 -75 78.02 -75 77 C-75.66 76.67 -76.32 76.34 -77 76 Z M50 84 C51 87 51 87 51 87 Z M-45 116 C-44.06213357 119.43884359 -43.48089443 121.56032509 -40.8125 124 C-40.214375 124.66 -39.61625 125.32 -39 126 C-39.25 129.25 -39.25 129.25 -40 132 C-36.53785351 134.05164237 -35.40610765 134 -31 134 C-32.65 129.71 -34.3 125.42 -36 121 C-36.66 121 -37.32 121 -38 121 C-38.33 119.02 -38.66 117.04 -39 115 C-38.01 114.67 -37.02 114.34 -36 114 C-36 113.34 -36 112.68 -36 112 C-40.68091299 112 -41.62101604 112.99645871 -45 116 Z M-63 113 C-63.66 113.66 -64.32 114.32 -65 115 C-64.01 115.33 -63.02 115.66 -62 116 C-61.67 115.01 -61.34 114.02 -61 113 C-61.66 113 -62.32 113 -63 113 Z M-72 114 C-72.680625 115.0725 -73.36125 116.145 -74.0625 117.25 C-74.44535156 117.85328125 -74.82820313 118.4565625 -75.22265625 119.078125 C-76.1842383 121.45550373 -75.83583327 122.62392051 -75 125 C-74.15695312 124.91621094 -73.31390625 124.83242187 -72.4453125 124.74609375 C-71.34960938 124.64425781 -70.25390625 124.54242188 -69.125 124.4375 C-67.48917969 124.28087891 -67.48917969 124.28087891 -65.8203125 124.12109375 C-63 124 -63 124 -61 125 C-58.6670134 125.04022391 -56.33293334 125.04320247 -54 125 C-53.96474868 123.11341126 -53.96474868 123.11341126 -55 121 C-59.71632414 117.67083002 -62.21425999 116.86850591 -68 117 C-69.8125 115.5 -69.8125 115.5 -71 114 C-71.33 114 -71.66 114 -72 114 Z M-25 114 C-25 114.99 -25 115.98 -25 117 C-24.34 117 -23.68 117 -23 117 C-23 116.01 -23 115.02 -23 114 C-23.66 114 -24.32 114 -25 114 Z M-102 117 C-100.55424733 120.3734229 -98.7950914 122.61595146 -96 125 C-93.8618034 125.7872678 -93.8618034 125.7872678 -92 126 C-92.66 126.66 -93.32 127.32 -94 128 C-94.165 128.680625 -94.33 129.36125 -94.5 130.0625 C-94.665 130.701875 -94.83 131.34125 -95 132 C-95.66 132.33 -96.32 132.66 -97 133 C-97 133.99 -97 134.98 -97 136 C-100.875 134.25 -100.875 134.25 -102 132 C-100.35 132 -98.7 132 -97 132 C-96.65433275 128.96480444 -96.65433275 128.96480444 -98.64453125 127.28125 C-99.35996094 126.6934375 -100.07539063 126.105625 -100.8125 125.5 C-103.32004878 123.41722724 -105.73353239 121.34511475 -108 119 C-108.99 119.66 -109.98 120.32 -111 121 C-114.1875 121.125 -114.1875 121.125 -117 121 C-117.0825 121.598125 -117.165 122.19625 -117.25 122.8125 C-118 125 -118 125 -120 126.375 C-122.32520012 127.92607773 -122.32520012 127.92607773 -122.75 131.1875 C-122.8325 132.115625 -122.915 133.04375 -123 134 C-125.64 134.66 -128.28 135.32 -131 136 C-130.67 136.66 -130.34 137.32 -130 138 C-125.96819363 137.47411221 -122.03590762 136.80342036 -118.0625 135.9375 C-113.60435013 135.01583042 -109.54285731 134.83174603 -105 135 C-105 136.98 -105 138.96 -105 141 C-102.03 141.66 -99.06 142.32 -96 143 C-96 143.66 -96 144.32 -96 145 C-93.69 145.66 -91.38 146.32 -89 147 C-89 145.68 -89 144.36 -89 143 C-84.95430552 143.52769928 -81.04053843 144.21503139 -77.0625 145.125 C-72.37692485 146.10086251 -68.68900516 145.86833429 -64 145 C-62.16308743 141.21812119 -61.84162374 139.05431692 -63 135 C-63.66 135.66 -64.32 136.32 -65 137 C-65 137.66 -65 138.32 -65 139 C-66.485 139.495 -66.485 139.495 -68 140 C-67.505 138.515 -67.505 138.515 -67 137 C-67.7425 136.855625 -68.485 136.71125 -69.25 136.5625 C-70.1575 136.376875 -71.065 136.19125 -72 136 C-72.721875 135.855625 -73.44375 135.71125 -74.1875 135.5625 C-76 135 -76 135 -78 133 C-78.39764263 131.01178687 -78.73775349 129.01055661 -79 127 C-80.65 127.33 -82.3 127.66 -84 128 C-83.34 129.32 -82.68 130.64 -82 132 C-83.32 133.32 -84.64 134.64 -86 136 C-86 135.34 -86 134.68 -86 134 C-86.66 133.34 -87.32 132.68 -88 132 C-88.61399946 130.55431036 -89.19368975 129.09385425 -89.75 127.625 C-91.65745072 123.19088881 -93.64539525 121.2680233 -98 119 C-98.78375 118.5875 -99.5675 118.175 -100.375 117.75 C-100.91125 117.5025 -101.4475 117.255 -102 117 Z M-39 148 C-37.5140084 152.59306496 -35.14985318 155.43569245 -32 159 C-30.05925139 158.72382467 -30.05925139 158.72382467 -28 158 C-27.34 157.01 -26.68 156.02 -26 155 C-26.55429687 154.74605469 -27.10859375 154.49210938 -27.6796875 154.23046875 C-28.40414062 153.88628906 -29.12859375 153.54210937 -29.875 153.1875 C-30.59429687 152.85105469 -31.31359375 152.51460937 -32.0546875 152.16796875 C-34 151 -34 151 -36 148 C-36.99 148 -37.98 148 -39 148 Z M-63 152 C-62.39009109 155.55780196 -61.4216319 158.6828589 -60 162 C-59.34 162 -58.68 162 -58 162 C-57.731875 163.03125 -57.46375 164.0625 -57.1875 165.125 C-55.23581539 171.78764745 -53.1745756 175.43246743 -47 179 C-47.47416578 174.02125936 -48.9099331 170.93281242 -52 167 C-52.66 167 -53.32 167 -54 167 C-54.20625 166.01 -54.4125 165.02 -54.625 164 C-55.94658272 159.28281787 -58.77143946 155.62389448 -62 152 C-62.33 152 -62.66 152 -63 152 Z M-64 203 C-64.99 203.495 -64.99 203.495 -66 204 C-66 204.99 -66 205.98 -66 207 C-65.01 206.67 -64.02 206.34 -63 206 C-63.33 205.01 -63.66 204.02 -64 203 Z M-71 211 C-70 213 -70 213 -70 213 Z M-63 225 C-62.34 225.66 -61.68 226.32 -61 227 C-61 226.34 -61 225.68 -61 225 C-61.66 225 -62.32 225 -63 225 Z " fill="#009BC5" transform="translate(402,41)"/>
<path d="M0 0 C1.9375 1.25 1.9375 1.25 3 3 C3 4.32 3 5.64 3 7 C3.57621094 7.11472656 4.15242188 7.22945312 4.74609375 7.34765625 C7.19218425 8.05562352 8.93139112 9.05371639 11.0625 10.4375 C12.06990234 11.08525391 12.06990234 11.08525391 13.09765625 11.74609375 C17.99035088 14.97105263 17.99035088 14.97105263 19 18 C20.39025391 17.87431641 20.39025391 17.87431641 21.80859375 17.74609375 C23.00613281 17.64425781 24.20367187 17.54242188 25.4375 17.4375 C26.63246094 17.33308594 27.82742187 17.22867188 29.05859375 17.12109375 C30.02925781 17.08113281 30.99992187 17.04117188 32 17 C32.33 17.33 32.66 17.66 33 18 C33.33 17.34 33.66 16.68 34 16 C34.66 16 35.32 16 36 16 C36.495 17.98 36.495 17.98 37 20 C37.66 20 38.32 20 39 20 C39 20.66 39 21.32 39 22 C40.98 22.495 40.98 22.495 43 23 C43 23.66 43 24.32 43 25 C44.65 25.66 46.3 26.32 48 27 C47.979375 26.2575 47.95875 25.515 47.9375 24.75 C47.99371583 22.27650346 48.36854986 20.36793801 49 18 C49 17.01 49 16.02 49 15 C48.67 15.33 48.34 15.66 48 16 C46.33382885 16.04063832 44.66611905 16.042721 43 16 C42.27734375 13.80078125 42.27734375 13.80078125 42 11 C43.44140625 8.54296875 43.44140625 8.54296875 45.5625 6.1875 C46.24441406 5.39730469 46.92632812 4.60710938 47.62890625 3.79296875 C50.6354924 1.51945468 52.31170704 1.57790653 56 2 C58.3125 3.0625 58.3125 3.0625 60 5 C60.75 8.6875 60.75 8.6875 61 12 C63.85778033 12.68493373 63.85778033 12.68493373 67 13 C67.99 12.34 68.98 11.68 70 11 C72.6875 11.375 72.6875 11.375 75 12 C74.0409375 13.2684375 74.0409375 13.2684375 73.0625 14.5625 C70.80783538 17.95653251 70.15206275 20.89430584 70 25 C70.80579785 27.3715005 70.80579785 27.3715005 72 29 C71.34 29.66 70.68 30.32 70 31 C71.98 30.67 73.96 30.34 76 30 C77.52020336 25.30118962 76.17252812 23.25453423 74 19 C74.08270525 16.10531624 74.70428653 15.29571347 76.75 13.25 C79.42677615 11.76290214 80.98141725 11.60281806 84 12 C84.99 12.99 84.99 12.99 86 14 C87.67422986 13.70700977 89.34178227 13.37309899 91 13 C91.99 13.495 91.99 13.495 93 14 C92.43416161 17.28186266 91.58727596 18.89184922 89 21 C86.8125 22.1875 86.8125 22.1875 85 23 C85 24.2375 85 25.475 85 26.75 C85 29.5 85 32.25 85 35 C85.66 35 86.32 35 87 35 C87 36.32 87 37.64 87 39 C89.475 36.525 89.475 36.525 92 34 C91.34 33.62875 90.68 33.2575 90 32.875 C88 31 88 31 87.5 28.1875 C88.11901164 24.24130079 89.52813135 22.10749202 92 19 C95.22791555 16.8480563 96.28400809 16.79913557 100 17 C100 17.66 100 18.32 100 19 C100.53625 18.79375 101.0725 18.5875 101.625 18.375 C104.83267308 17.8685253 107.01317066 18.84599775 110 20 C110.33 22.97 110.66 25.94 111 29 C111.99 29 112.98 29 114 29 C114.33 30.32 114.66 31.64 115 33 C115.66 33 116.32 33 117 33 C118.3729863 35.7459726 118.12412634 37.9589047 118 41 C117.67 41.99 117.34 42.98 117 44 C117.99 44.33 118.98 44.66 120 45 C121.75 46.3125 121.75 46.3125 123 48 C122.875 50.125 122.875 50.125 122 52 C121.01 52.33 120.02 52.66 119 53 C119 53.66 119 54.32 119 55 C118.01 55 117.02 55 116 55 C115.67 54.01 115.34 53.02 115 52 C114.34 51.67 113.68 51.34 113 51 C113 51.99 113 52.98 113 54 C113.66 54 114.32 54 115 54 C116.125 59.625 116.125 59.625 115 63 C112.3125 63.75 112.3125 63.75 109 64 C105.68378516 62.08396476 104.28129718 60.95208276 103.1875 57.25 C103.125625 56.5075 103.06375 55.765 103 55 C100.69 55 98.38 55 96 55 C96.33 53.68 96.66 52.36 97 51 C98.98 51 100.96 51 103 51 C103 50.01 103 49.02 103 48 C105 45.8125 105 45.8125 107 44 C104.03 44.495 104.03 44.495 101 45 C101 42 101 42 103 40 C102.67958603 37.39719432 102.67958603 37.39719432 102 35 C100.68 35.33 99.36 35.66 98 36 C97.67 37.32 97.34 38.64 97 40 C96.34 40 95.68 40 95 40 C95 41.65 95 43.3 95 45 C93.7934375 45.4021875 93.7934375 45.4021875 92.5625 45.8125 C91.716875 46.204375 90.87125 46.59625 90 47 C89.67 47.99 89.34 48.98 89 50 C89.97272675 51.35335895 90.9739266 52.68662604 92 54 C92 54.99 92 55.98 92 57 C91.2575 56.814375 90.515 56.62875 89.75 56.4375 C87.05009037 56.00796892 85.55368923 56.14877026 83 57 C82.34 56.01 81.68 55.02 81 54 C78.525 54.495 78.525 54.495 76 55 C76 55.66 76 56.32 76 57 C75.2575 57.433125 74.515 57.86625 73.75 58.3125 C70.58273438 60.25604936 68.89409782 61.79460368 67 65 C66.74588432 68.63825863 66.74588432 68.63825863 68 72 C70.28643812 73.77195874 70.28643812 73.77195874 73 75 C73.66 75.680625 74.32 76.36125 75 77.0625 C77.20814533 79.20164079 79.10731641 80.03577214 82 81 C82 83.97 82 86.94 82 90 C82.66 90.33 83.32 90.66 84 91 C83.87625 89.7625 83.7525 88.525 83.625 87.25 C83.6015625 85.046875 83.6015625 85.046875 84 83 C87 80.5 87 80.5 90 79 C89.79375 77.72125 89.5875 76.4425 89.375 75.125 C89.0234375 72.9453125 89.0234375 72.9453125 89 71 C89.66 70.34 90.32 69.68 91 69 C91.67651207 66.80295489 91.67651207 66.80295489 92.125 64.375 C92.41375 62.93125 92.7025 61.4875 93 60 C95.97 60.33 98.94 60.66 102 61 C102.33 62.32 102.66 63.64 103 65 C103.99 65.33 104.98 65.66 106 66 C106 68.64 106 71.28 106 74 C106.78375 73.195625 107.5675 72.39125 108.375 71.5625 C111 69 111 69 113 68 C113.50435694 69.9363704 114.00333874 71.87414146 114.5 73.8125 C114.91765625 75.43091797 114.91765625 75.43091797 115.34375 77.08203125 C116 80 116 80 116 83 C116.598125 83.226875 117.19625 83.45375 117.8125 83.6875 C120.73805894 85.44283536 121.73141383 86.82853457 123 90 C122.1875 93.8125 122.1875 93.8125 121 97 C122.32 97.66 123.64 98.32 125 99 C125 100.98 125 102.96 125 105 C123.35 105 121.7 105 120 105 C120 104.34 120 103.68 120 103 C118.02 103 116.04 103 114 103 C114.309375 102.236875 114.61875 101.47375 114.9375 100.6875 C115.67893593 98.81210323 116.36228217 96.91315348 117 95 C116.071875 95.474375 115.14375 95.94875 114.1875 96.4375 C111 98 111 98 108 99 C107.67 98.01 107.34 97.02 107 96 C106.01 96.33 105.02 96.66 104 97 C104.99 97.66 105.98 98.32 107 99 C106.67 100.32 106.34 101.64 106 103 C107.83284443 104.12516085 107.83284443 104.12516085 110 105 C110.99 104.67 111.98 104.34 113 104 C113 104.99 113 105.98 113 107 C108.05 109.475 108.05 109.475 103 112 C102.01 111.34 101.02 110.68 100 110 C97.32854463 110.80161791 97.32854463 110.80161791 95 112 C95 113.32 95 114.64 95 116 C92.09399739 117.25664978 90.20395416 118 87 118 C87 118.99 87 119.98 87 121 C86.34 121 85.68 121 85 121 C84.87625 121.53625 84.7525 122.0725 84.625 122.625 C84.41875 123.40875 84.2125 124.1925 84 125 C83.835 125.94875 83.67 126.8975 83.5 127.875 C81.7599731 131.50005604 80.81764826 131.76563186 77.375 133.5625 C74.86600408 134.90843908 74.86600408 134.90843908 73 137 C72.20189286 141.42394488 72.4655779 145.55308034 73 150 C71.68 149.67 70.36 149.34 69 149 C68.01 145.535 68.01 145.535 67 142 C63.7 141.34 60.4 140.68 57 140 C57 140.66 57 141.32 57 142 C56.09507813 141.98259766 56.09507813 141.98259766 55.171875 141.96484375 C54.37265625 141.95582031 53.5734375 141.94679687 52.75 141.9375 C51.96109375 141.92589844 51.1721875 141.91429687 50.359375 141.90234375 C48.09308998 141.99614694 46.1711105 142.36758937 44 143 C42.93191626 149.27499197 41.95632161 155.86896483 44 162 C46.64 162 49.28 162 52 162 C52.20625 161.195625 52.4125 160.39125 52.625 159.5625 C53.07875 158.716875 53.5325 157.87125 54 157 C57.125 156.1875 57.125 156.1875 60 156 C61 158 61 158 60.44140625 159.9453125 C60.00634766 161.02425781 60.00634766 161.02425781 59.5625 162.125 C59.13130859 163.21167969 59.13130859 163.21167969 58.69140625 164.3203125 C58.46324219 164.87460938 58.23507813 165.42890625 58 166 C60.64 166.66 63.28 167.32 66 168 C66 171.63 66 175.26 66 179 C67.77375 179.061875 69.5475 179.12375 71.375 179.1875 C72.37273437 179.22230469 73.37046875 179.25710937 74.3984375 179.29296875 C75.68621094 179.14794922 75.68621094 179.14794922 77 179 C77.66 178.01 78.32 177.02 79 176 C83.20227418 173.59870047 86.35254412 174.01688433 91 175 C91.33 175.33 91.66 175.66 92 176 C94.52366033 176.03165882 97.03270105 175.93175288 99.5546875 175.83984375 C103.80131411 176.11797744 106.26425719 178.98124931 109 182 C109 182.66 109 183.32 109 184 C109.68707031 184.12117187 110.37414062 184.24234375 111.08203125 184.3671875 C112.43361328 184.61855469 112.43361328 184.61855469 113.8125 184.875 C115.15248047 185.11863281 115.15248047 185.11863281 116.51953125 185.3671875 C119.58762314 186.14991331 121.4702998 187.16363126 123.1875 189.875 C124 192 124 192 124 196 C125.03060547 196.30744141 125.03060547 196.30744141 126.08203125 196.62109375 C127.43361328 197.02521484 127.43361328 197.02521484 128.8125 197.4375 C129.70582031 197.70433594 130.59914062 197.97117188 131.51953125 198.24609375 C133.35473055 198.80387873 135.18033726 199.39344575 137 200 C138.6396875 200.433125 138.6396875 200.433125 140.3125 200.875 C143.81804154 201.94448725 146.8218729 203.18392737 150 205 C151.47896861 207.95793723 151.4355582 209.70220224 151 213 C149.73046875 214.4921875 149.73046875 214.4921875 148.125 216.0625 C144.20918888 220.16172148 144.00817222 224.42825318 143.51953125 229.9140625 C142.95186714 233.28590193 142.04619215 235.27665074 140 238 C138.02253397 238.73080266 136.01927511 239.39421747 134 240 C131.12827495 241.63046953 131.12827495 241.63046953 129 244 C128.86078125 244.9178125 128.7215625 245.835625 128.578125 246.78125 C127.91508433 250.47277373 126.62881883 252.63978206 124.5625 255.75 C123.63630859 257.16539062 123.63630859 257.16539062 122.69140625 258.609375 C121 261 121 261 119 263 C118.01 263 117.02 263 116 263 C115.67 265.31 115.34 267.62 115 270 C112.69 270.33 110.38 270.66 108 271 C108 272.65 108 274.3 108 276 C107.34 276.33 106.68 276.66 106 277 C105.62243192 278.32148827 105.2981424 279.65835921 105 281 C104.3530635 282.6744239 103.69040574 284.34302621 103 286 C102.34 286 101.68 286 101 286 C102.32 287.65 103.64 289.3 105 291 C104.484375 291.86625 103.96875 292.7325 103.4375 293.625 C101.79556141 297.47998625 101.7134 299.05442665 103 303 C104.85432087 305.27144074 104.85432087 305.27144074 107 307 C107.66 307.66 108.32 308.32 109 309 C106.875 310.625 106.875 310.625 104 312 C100.6875 311.1875 100.6875 311.1875 98 310 C98 309.34 98 308.68 98 308 C97.195625 307.87625 96.39125 307.7525 95.5625 307.625 C94.2940625 307.315625 94.2940625 307.315625 93 307 C92.67 306.34 92.34 305.68 92 305 C92.33 304.34 92.66 303.68 93 303 C92.34 303 91.68 303 91 303 C87.37129841 294.738041 87.37129841 294.738041 89 290 C88.34 290 87.68 290 87 290 C87.350625 289.236875 87.70125 288.47375 88.0625 287.6875 C89.32360884 284.95240621 89.32360884 284.95240621 88 282 C87.08943341 278.25655957 87 274.84051858 87 271 C86.67 270.01 86.34 269.02 86 268 C86.65731835 265.66401595 87.32522447 263.33100126 88 261 C88.41877666 256.10875895 88.37015781 251.22006463 88.375 246.3125 C88.39949219 244.99443359 88.42398438 243.67636719 88.44921875 242.31835938 C88.45308594 241.05443359 88.45695313 239.79050781 88.4609375 238.48828125 C88.46915527 237.33884033 88.47737305 236.18939941 88.48583984 235.00512695 C87.89459377 231.34801744 86.86499481 230.2675137 84 228 C83.00355469 227.39285156 82.00710937 226.78570312 80.98046875 226.16015625 C77.45032802 223.60161389 76.21272348 221.33096489 74.3125 217.4375 C72.29912409 213.06849038 72.29912409 213.06849038 69.28515625 209.43359375 C68 208 68 208 67.8203125 205.4765625 C68.85732244 195.77121307 68.85732244 195.77121307 72 192 C72.66 191.67 73.32 191.34 74 191 C74.16677282 187.58343976 74.16677282 187.58343976 74 184 C73.34 183.34 72.68 182.68 72 182 C71.01 182.66 70.02 183.32 69 184 C66.3125 183.125 66.3125 183.125 64 182 C64 181.34 64 180.68 64 180 C63.38125 179.95875 62.7625 179.9175 62.125 179.875 C61.42375 179.58625 60.7225 179.2975 60 179 C58.75 175.9375 58.75 175.9375 58 173 C56.1128125 172.8453125 56.1128125 172.8453125 54.1875 172.6875 C50.37185999 172.37474262 50.37185999 172.37474262 48.48828125 170.4765625 C46.57588086 168.57922038 45.64742398 168.70209976 43 168.6875 C36.91601851 168.15802378 31.68999834 165.92461666 27 162 C25.94166159 159.61047031 25.58280847 157.74841389 25.44140625 155.1484375 C24.82978551 152.17152239 23.15588632 151.10538808 21 149 C19.84526555 146.95537846 18.76312962 144.86836193 17.75 142.75 C17.22921875 141.67234375 16.7084375 140.5946875 16.171875 139.484375 C15.78515625 138.66453125 15.3984375 137.8446875 15 137 C16.3737622 141.33787072 18.03978664 145.17945922 20.1953125 149.16796875 C21 151 21 151 21 154 C19.125 153.3125 19.125 153.3125 17 152 C16.29788106 150.34795544 15.63028587 148.68076231 15 147 C13.515 146.01 13.515 146.01 12 145 C11.59955696 143.34817245 11.28520405 141.67557379 11 140 C10.59496042 138.42877263 10.15466576 136.86638824 9.6875 135.3125 C9.46449219 134.54550781 9.24148437 133.77851563 9.01171875 132.98828125 C8.16732495 130.83326432 8.16732495 130.83326432 6.0078125 130.03515625 C4 129 4 129 2.91796875 126.8203125 C0.59443109 118.2468313 0.18610823 110.055782 3.5625 101.6875 C5.09490605 97.75654535 5.48181579 95.17573689 5 91 C3.60042803 88.71515694 3.60042803 88.71515694 2 87 C2 86.34 2 85.68 2 85 C2.66 85 3.32 85 4 85 C3.74412595 83.22694336 3.46972261 81.45655392 3.1875 79.6875 C3.03667969 78.70136719 2.88585937 77.71523437 2.73046875 76.69921875 C1.93172972 73.74772855 1.0962678 73.07976176 -1 71 C-1.625 68.51171875 -1.625 68.51171875 -2 65.6875 C-2.71326211 61.30354754 -3.4244675 57.72021361 -6 54 C-8.45704762 52.76709799 -8.45704762 52.76709799 -11 52 C-12.8125 50.375 -12.8125 50.375 -14 49 C-14.495 49.99 -14.495 49.99 -15 51 C-17.06640625 51.4140625 -17.06640625 51.4140625 -19.5625 51.625 C-20.38878906 51.69976562 -21.21507813 51.77453125 -22.06640625 51.8515625 C-22.70449219 51.90054688 -23.34257813 51.94953125 -24 52 C-24.33 51.34 -24.66 50.68 -25 50 C-25.226875 51.11375 -25.45375 52.2275 -25.6875 53.375 C-27 57 -27 57 -29.625 58.4375 C-30.800625 58.7159375 -30.800625 58.7159375 -32 59 C-32 58.01 -32 57.02 -32 56 C-32.47308594 56.32613281 -32.94617188 56.65226562 -33.43359375 56.98828125 C-39.0925877 60.72785035 -45.07241143 64 -52 64 C-51.67 63.01 -51.34 62.02 -51 61 C-48.890625 59.97265625 -48.890625 59.97265625 -46.25 59.0625 C-41.63067073 57.33768607 -37.31443406 55.62886811 -35 51 C-36.65 50.67 -38.3 50.34 -40 50 C-40 48.68 -40 47.36 -40 46 C-40.66 45.67 -41.32 45.34 -42 45 C-42.46526492 40.25429782 -42.71041368 37.06562052 -40 33 C-36.13303207 30.42202138 -33.60354748 30.23407869 -29 30 C-28.67 29.01 -28.34 28.02 -28 27 C-29.98 27 -31.96 27 -34 27 C-34.59732819 24.23735711 -35 21.83967231 -35 19 C-31.62902617 17.50178941 -29.79557881 17 -26 17 C-26 17.99 -26 18.98 -26 20 C-25.01 20 -24.02 20 -23 20 C-23.16757812 19.15695313 -23.33515625 18.31390625 -23.5078125 17.4453125 C-23.71148437 16.34960938 -23.91515625 15.25390625 -24.125 14.125 C-24.33382812 13.03445312 -24.54265625 11.94390625 -24.7578125 10.8203125 C-24.83773437 9.88960937 -24.91765625 8.95890625 -25 8 C-24.34 7.34 -23.68 6.68 -23 6 C-22.2575 6.04125 -21.515 6.0825 -20.75 6.125 C-16.95537437 5.95251702 -15.06165874 4.16867494 -12 2 C-7.92827928 -0.08806191 -4.56072984 -0.4222898 0 0 Z M34 35 C34.33 35.99 34.66 36.98 35 38 C34.01 38.33 33.02 38.66 32 39 C35.465 38.505 35.465 38.505 39 38 C37.62514468 36.45833358 37.62514468 36.45833358 36 35 C35.34 35 34.68 35 34 35 Z M62 101 C63.65 100.67 65.3 100.34 67 100 C67 100.66 67 101.32 67 102 C68.32 102 69.64 102 71 102 C70.67 100.68 70.34 99.36 70 98 C65.73173127 98 65.06117568 98.37613513 62 101 Z M73 104 C73 105.65 73 107.3 73 109 C73.99 109.495 73.99 109.495 75 110 C76.54166642 108.62514468 76.54166642 108.62514468 78 107 C78 106.34 78 105.68 78 105 C76.35 104.67 74.7 104.34 73 104 Z M67 105 C66.34 107.64 65.68 110.28 65 113 C65.66 112.67 66.32 112.34 67 112 C67.165 111.01 67.33 110.02 67.5 109 C67.665 108.01 67.83 107.02 68 106 C68.66 105.67 69.32 105.34 70 105 C69.01 105 68.02 105 67 105 Z M80 110 C84 111 84 111 84 111 Z " fill="#009BC5" transform="translate(69,48)"/>
<path d="M0 0 C6.06483209 0.06931237 9.99405188 1.3574515 14.8125 5.1875 C16.375 7.25 16.375 7.25 16.375 11.25 C17.48875 11.04375 18.6025 10.8375 19.75 10.625 C20.94625 10.50125 22.1425 10.3775 23.375 10.25 C24.365 11.24 24.365 11.24 25.375 12.25 C26.035 11.59 26.695 10.93 27.375 10.25 C29.04166667 10.25 30.70833333 10.25 32.375 10.25 C32.705 9.26 33.035 8.27 33.375 7.25 C39.04538606 5.0952533 44.29100542 4.42760145 50.1875 6 C52.77635126 7.47934358 53.13909039 8.61339284 54.375 11.25 C56.4085948 12.51804566 56.4085948 12.51804566 58.375 13.25 C58.045 13.848125 57.715 14.44625 57.375 15.0625 C56.16712012 17.30386471 56.16712012 17.30386471 56.375 20.25 C60.335 19.755 60.335 19.755 64.375 19.25 C65.365 21.23 65.365 21.23 66.375 23.25 C64.89 23.745 64.89 23.745 63.375 24.25 C63.375 24.91 63.375 25.57 63.375 26.25 C62.715 26.25 62.055 26.25 61.375 26.25 C60.29974806 28.90228812 59.28043849 31.53368454 58.375 34.25 C57.715 34.25 57.055 34.25 56.375 34.25 C56.354375 35.52875 56.33375 36.8075 56.3125 38.125 C56.30089844 38.84429687 56.28929687 39.56359375 56.27734375 40.3046875 C56.24850758 42.33185404 56.24850758 42.33185404 57.375 44.25 C56.5 46.25 56.5 46.25 55.375 48.25 C54.88 49.24 54.88 49.24 54.375 50.25 C55.035 50.25 55.695 50.25 56.375 50.25 C56.375 51.24 56.375 52.23 56.375 53.25 C55.715 53.25 55.055 53.25 54.375 53.25 C54.08625 54.219375 53.7975 55.18875 53.5 56.1875 C52.375 59.25 52.375 59.25 50.375 60.25 C49.36632032 62.81754827 49.30410494 64.01959106 50.125 66.6875 C50.375 69.25 50.375 69.25 48.375 71.875 C44.20740678 75.17434463 40.34692695 76.98955682 35.0625 77.6875 C34.175625 77.873125 33.28875 78.05875 32.375 78.25 C32.0759375 78.89324219 31.776875 79.53648438 31.46875 80.19921875 C30.375 82.25 30.375 82.25 28.45703125 83.0234375 C27.33361328 83.32121094 27.33361328 83.32121094 26.1875 83.625 C20.0005132 86.04773593 18.10312702 91.62914824 15.58984375 97.328125 C15.18894531 98.29234375 14.78804687 99.2565625 14.375 100.25 C7.53645833 98.90711806 7.53645833 98.90711806 5.375 97.25 C2.27274465 91.0454893 0.93421956 84.19708305 1.375 77.25 C2.6796875 74.38671875 2.6796875 74.38671875 4.375 72.25 C5.365 72.25 6.355 72.25 7.375 72.25 C7.375 71.59 7.375 70.93 7.375 70.25 C6.385 70.58 5.395 70.91 4.375 71.25 C3.25 69.5 3.25 69.5 2.375 67.25 C3.3125 65.1875 3.3125 65.1875 4.375 63.25 C4.045 62.26 3.715 61.27 3.375 60.25 C3.705 59.26 4.035 58.27 4.375 57.25 C4.46829934 55.60628509 4.50495144 53.95885323 4.5 52.3125 C4.50257813 51.45785156 4.50515625 50.60320312 4.5078125 49.72265625 C4.43823804 46.96418599 4.43823804 46.96418599 3.375 43.25 C0.075 42.59 -3.225 41.93 -6.625 41.25 C-7.285 39.27 -7.945 37.29 -8.625 35.25 C-7.14 34.755 -7.14 34.755 -5.625 34.25 C-6.615 32.27 -7.605 30.29 -8.625 28.25 C-9.285 28.25 -9.945 28.25 -10.625 28.25 C-10.625 28.91 -10.625 29.57 -10.625 30.25 C-12.605 30.91 -14.585 31.57 -16.625 32.25 C-16.295 33.24 -15.965 34.23 -15.625 35.25 C-16.264375 35.53875 -16.90375 35.8275 -17.5625 36.125 C-19.77706079 37.07823451 -19.77706079 37.07823451 -20.625 39.25 C-20.955 38.59 -21.285 37.93 -21.625 37.25 C-23.93574405 36.50881795 -26.27311553 35.84793673 -28.625 35.25 C-29.429375 35.04375 -30.23375 34.8375 -31.0625 34.625 C-31.8359375 34.439375 -31.8359375 34.439375 -32.625 34.25 C-32.625 34.91 -32.625 35.57 -32.625 36.25 C-31.55958984 36.34087891 -31.55958984 36.34087891 -30.47265625 36.43359375 C-29.55355469 36.51738281 -28.63445312 36.60117187 -27.6875 36.6875 C-26.77097656 36.76871094 -25.85445312 36.84992187 -24.91015625 36.93359375 C-22.625 37.25 -22.625 37.25 -21.625 38.25 C-21.58436168 39.91617115 -21.582279 41.58388095 -21.625 43.25 C-27.95716523 44.79443054 -33.00591261 43.39668894 -38.625 40.25 C-38.10231534 37.48723823 -37.51630413 34.9239124 -36.625 32.25 C-37.615 31.92 -38.605 31.59 -39.625 31.25 C-39.625 29.93 -39.625 28.61 -39.625 27.25 C-37.29858362 27.76698142 -35.30870057 28.39233474 -33.125 29.375 C-30.40403768 30.32733681 -29.27953108 30.23315966 -26.625 29.25 C-26.625 28.26 -26.625 27.27 -26.625 26.25 C-27.305625 25.87875 -27.98625 25.5075 -28.6875 25.125 C-30.625 23.25 -30.625 23.25 -30.73828125 21.19921875 C-30.09504092 14.7562705 -28.58410419 10.60800065 -23.625 6.25 C-22.635 5.92 -21.645 5.59 -20.625 5.25 C-19.965 5.58 -19.305 5.91 -18.625 6.25 C-18.625 5.59 -18.625 4.93 -18.625 4.25 C-17.5525 4.12625 -16.48 4.0025 -15.375 3.875 C-12.20118837 3.34603139 -10.35915587 2.76897548 -7.625 1.25 C-6.965 1.25 -6.305 1.25 -5.625 1.25 C-4.00405182 -0.37094818 -2.23372115 0.04049041 0 0 Z " fill="#009BC5" transform="translate(200.625,19.75)"/>
<path d="M0 0 C4.46839215 -0.21278058 7.82262526 0.40861915 12 2 C11.67 3.98 11.34 5.96 11 8 C12.98 9.32 14.96 10.64 17 12 C17.28875 10.948125 17.5775 9.89625 17.875 8.8125 C18.77225193 5.77181289 19.76423419 2.91287656 21 0 C21.66 0 22.32 0 23 0 C23.495 2.97 23.495 2.97 24 6 C24.99 6.33 25.98 6.66 27 7 C27.02578125 7.62648438 27.0515625 8.25296875 27.078125 8.8984375 C27.13484375 9.71570313 27.1915625 10.53296875 27.25 11.375 C27.29640625 12.18710937 27.3428125 12.99921875 27.390625 13.8359375 C27.59171875 14.55007813 27.7928125 15.26421875 28 16 C29.31480406 16.70250446 30.6506695 17.36633651 32 18 C33.44921875 20.12890625 33.44921875 20.12890625 34.6875 22.5625 C36.07055098 25.47673783 36.07055098 25.47673783 38 28 C38.87697047 35.24578883 37.43657431 40.64847427 34 47 C33.34 47 32.68 47 32 47 C31.7525 47.66 31.505 48.32 31.25 49 C30.63125 50.485 30.63125 50.485 30 52 C29.75507812 52.66257812 29.51015625 53.32515625 29.2578125 54.0078125 C27.63558453 57.89828842 26.23251042 60.38725665 22.3125 62.1875 C18.1433584 63.38427048 14.85367424 62.80040284 10.85546875 61.23828125 C8.65039664 59.76668575 8.16115099 58.83244779 7.4375 56.3125 C7.293125 55.219375 7.14875 54.12625 7 53 C6.01 53.33 5.02 53.66 4 54 C3.67 53.01 3.34 52.02 3 51 C2.34964186 49.65863633 1.6837045 48.32467746 1 47 C0.67 46.34 0.34 45.68 0 45 C-5.6932346 43.48506204 -10.55649713 43.95868642 -16 46 C-16.33 46.33 -16.66 46.66 -17 47 C-18.44956397 47.36960994 -19.91014655 47.69659993 -21.375 48 C-24.00760137 48.54881592 -26.44182385 49.14727462 -29 50 C-31.1875 49.0625 -31.1875 49.0625 -33 48 C-32.814375 47.13375 -32.62875 46.2675 -32.4375 45.375 C-31.68905433 40.36143928 -32.35594506 35.41897408 -32.84375 30.40234375 C-32.99773813 27.04925221 -32.79404106 24.25699478 -32 21 C-27.90734837 17.30341143 -22.27490107 16.87061474 -17 16 C-16.67 14.35 -16.34 12.7 -16 11 C-14.35 10.67 -12.7 10.34 -11 10 C-10.67 8.68 -10.34 7.36 -10 6 C-7.6875 5.375 -7.6875 5.375 -5 5 C-4.01 5.66 -3.02 6.32 -2 7 C-1.34 4.69 -0.68 2.38 0 0 Z " fill="#009BC5" transform="translate(510,265)"/>
<path d="M0 0 C5.75 1.625 5.75 1.625 8 5 C8 4.01 8 3.02 8 2 C24.29528472 5.71785622 24.29528472 5.71785622 30 11 C30.33333333 12.33333333 30.66666667 13.66666667 31 15 C32.97670607 16.75422772 32.97670607 16.75422772 35 18 C34.505 19.485 34.505 19.485 34 21 C31.0625 20.1875 31.0625 20.1875 28 19 C27.67 18.01 27.34 17.02 27 16 C25.68 16 24.36 16 23 16 C22.67 16.66 22.34 17.32 22 18 C18.18115446 18.21821974 15.34157247 17.94925061 12 16 C11.1875 13.375 11.1875 13.375 11 11 C9.39125 10.6596875 9.39125 10.6596875 7.75 10.3125 C3.58001863 8.85300652 2.32700282 7.66950445 0 4 C-0.33 3.01 -0.66 2.02 -1 1 C-0.67 0.67 -0.34 0.34 0 0 Z " fill="#009BC5" transform="translate(512,244)"/>
<path d="M0 0 C0.8353125 0.2165625 0.8353125 0.2165625 1.6875 0.4375 C4.11384195 1.02769128 6.54906345 1.523429 9 2 C9 6 9 6 7.6875 7.75 C6 9 6 9 3 9 C3.495 9.721875 3.99 10.44375 4.5 11.1875 C7.14167704 16.30962497 6.22390866 22.41057643 6 28 C4.02 28.33 2.04 28.66 0 29 C-0.33 29.99 -0.66 30.98 -1 32 C-3.97 32.495 -3.97 32.495 -7 33 C-7.495 35.475 -7.495 35.475 -8 38 C-8.99 37.67 -9.98 37.34 -11 37 C-11.98940097 33.85190601 -12.14359877 32.37166741 -10.9375 29.25 C-9 27 -9 27 -5.8125 26.1875 C-4.884375 26.125625 -3.95625 26.06375 -3 26 C-3 24.68 -3 23.36 -3 22 C-2.01 22 -1.02 22 0 22 C0.94764511 18.30155174 0.94188922 15.81014156 0 12.125 C-1.00103067 7.66707675 -0.96631592 4.44505323 0 0 Z " fill="#009BC5" transform="translate(515,145)"/>
<path d="M0 0 C2.16874252 0.50603992 3.99967627 0.99983813 6 2 C5.1112764 8.60194671 3.95693835 13.97239491 1 20 C-3.08193626 21.36064542 -6.05279414 20.57717729 -10 19 C-12.56915285 16.00265501 -12.17359013 12.81898295 -12 9 C-10.948125 8.62875 -9.89625 8.2575 -8.8125 7.875 C-4.62191859 6.11188953 -2.65950458 3.62659715 0 0 Z " fill="#009BC5" transform="translate(485,232)"/>
<path d="M0 0 C2.97 0.33 5.94 0.66 9 1 C9.33 1.99 9.66 2.98 10 4 C8.68 5.32 7.36 6.64 6 8 C5.01 7.67 4.02 7.34 3 7 C3 7.66 3 8.32 3 9 C3.66 9 4.32 9 5 9 C6.6875 10.75 6.6875 10.75 8 13 C7.6875 15.25 7.6875 15.25 7 17 C5.0625 16.625 5.0625 16.625 3 16 C2.67 15.34 2.34 14.68 2 14 C1.34 16.31 0.68 18.62 0 21 C-0.66 21 -1.32 21 -2 21 C-6 14.25 -6 14.25 -6 12 C-6.99 12 -7.98 12 -9 12 C-10.125 6.25 -10.125 6.25 -9 4 C-6.35139573 3.40644386 -3.70802678 3.25790731 -1 3 C-0.67 2.01 -0.34 1.02 0 0 Z " fill="#009BC5" transform="translate(300,46)"/>
<path d="M0 0 C0.66 0 1.32 0 2 0 C5 6.625 5 6.625 5 10 C5.99 9.67 6.98 9.34 8 9 C7.44930747 15.42474614 2.8662197 18.27416149 -1.75 22.1875 C-2.34296875 22.67605469 -2.9359375 23.16460937 -3.546875 23.66796875 C-5.12779183 24.9579691 -5.12779183 24.9579691 -6 27 C-6.99 27.33 -7.98 27.66 -9 28 C-10.48033078 29.60618838 -10.48033078 29.60618838 -11.875 31.5 C-13.95517777 34.04301732 -14.67142251 34.89285517 -17.875 35.9375 C-18.57625 35.958125 -19.2775 35.97875 -20 36 C-20.375 33.3125 -20.375 33.3125 -20 30 C-17.12179417 27.05485915 -15.0633714 25.41084804 -11.25 23.9375 C-8.85246664 23.19331372 -8.85246664 23.19331372 -7.75 21 C-7.5025 20.34 -7.255 19.68 -7 19 C-6.67 18.34 -6.34 17.68 -6 17 C-4.35 17.33 -2.7 17.66 -1 18 C-1.309375 16.824375 -1.309375 16.824375 -1.625 15.625 C-1.74875 14.75875 -1.8725 13.8925 -2 13 C-1.34 12.34 -0.68 11.68 0 11 C0.24315656 8.33050591 0.24315656 8.33050591 0.125 5.375 C0.10695313 4.37210937 0.08890625 3.36921875 0.0703125 2.3359375 C0.04710937 1.56507813 0.02390625 0.79421875 0 0 Z " fill="#009BC5" transform="translate(577,319)"/>
<path d="M0 0 C-0.33 0.61875 -0.66 1.2375 -1 1.875 C-2.14193235 3.91018344 -2.14193235 3.91018344 -2 6 C-1.03886134 7.36161311 -0.04115841 8.69855198 1 10 C2.32 8.68 3.64 7.36 5 6 C5.33 6.66 5.66 7.32 6 8 C5.67 8.99 5.34 9.98 5 11 C5.99 11.33 6.98 11.66 8 12 C8 13.65 8 15.3 8 17 C2.72 17 -2.56 17 -8 17 C-8.9765625 14.42838542 -9.953125 11.85677083 -10.9296875 9.28515625 C-11.7819086 6.85058944 -11.7819086 6.85058944 -14 6 C-12.84472689 2.53418066 -12.36913774 2.32129495 -9.25 0.75 C-5.80837551 -0.88415264 -3.69524975 -1.38571866 0 0 Z " fill="#009BC5" transform="translate(141,37)"/>
<path d="M0 0 C0.99 0.33 1.98 0.66 3 1 C2.80323074 8.9244348 1.29659319 17.23363115 -3 24 C-6.17578125 24.87109375 -6.17578125 24.87109375 -9 25 C-11 22 -11 22 -10.6875 18.4375 C-10 15 -10 15 -9 13 C-9.0825 12.195625 -9.165 11.39125 -9.25 10.5625 C-9.1675 9.716875 -9.085 8.87125 -9 8 C-6.6167054 6.18116991 -5.04181663 5 -2 5 C-1.34 3.35 -0.68 1.7 0 0 Z " fill="#009BC5" transform="translate(365,266)"/>
<path d="M0 0 C0.99 0 1.98 0 3 0 C3.33 1.32 3.66 2.64 4 4 C3.2575 4.515625 2.515 5.03125 1.75 5.5625 C-3.45284343 10.17411122 -5.63594758 15.08596341 -6.18359375 21.9140625 C-5.89960966 25.14060519 -4.26018647 26.80830403 -2 29 C-2 29.33 -2 29.66 -2 30 C-7.75 30.125 -7.75 30.125 -10 29 C-10 28.34 -10 27.68 -10 27 C-10.99 26.67 -11.98 26.34 -13 26 C-12.77002126 23.62153567 -12.51678509 21.24938734 -12.25 18.875 C-12.1571875 17.87726563 -12.1571875 17.87726563 -12.0625 16.859375 C-11.48744711 11.97142541 -10.11239885 8.8001574 -7 5 C-4.375 4.375 -4.375 4.375 -2 4 C-0.63979849 2.03241727 -0.63979849 2.03241727 0 0 Z " fill="#009BC5" transform="translate(360,56)"/>
<path d="M0 0 C0.99 0 1.98 0 3 0 C4.125 5.75 4.125 5.75 3 8 C4.65 8.33 6.3 8.66 8 9 C8 9.66 8 10.32 8 11 C8.66 11.33 9.32 11.66 10 12 C10.8515625 14.50390625 10.8515625 14.50390625 11.625 17.5625 C11.88539063 18.57441406 12.14578125 19.58632812 12.4140625 20.62890625 C12.60742188 21.41136719 12.80078125 22.19382813 13 23 C12.34 23.66 11.68 24.32 11 25 C8.875 24.625 8.875 24.625 7 24 C7 23.34 7 22.68 7 22 C6.34 22 5.68 22 5 22 C4.67 22.66 4.34 23.32 4 24 C4.309375 22.8553125 4.309375 22.8553125 4.625 21.6875 C5.33391203 18.78114056 5.33391203 18.78114056 3 16 C3 15.01 3 14.02 3 13 C2.01 12.67 1.02 12.34 0 12 C-1.29449495 8.11651516 -1.13203312 5.09302664 -1 1 C-0.67 0.67 -0.34 0.34 0 0 Z " fill="#009BC5" transform="translate(492,209)"/>
<path d="M0 0 C0.66 0.185625 1.32 0.37125 2 0.5625 C5.89330114 1.13027308 9.11375479 0.59281707 13 0 C15 3 15 3 15 5 C13.4060467 8.18790659 11.27827634 8.82476886 8 10 C4.8125 10 4.8125 10 2 9 C0.0625 6.6875 0.0625 6.6875 -1 4 C-0.6875 1.6875 -0.6875 1.6875 0 0 Z " fill="#009BC5" transform="translate(245,103)"/>
<path d="M0 0 C3.37559685 0.58199946 4.62752283 1.62752283 7 4 C8.2684375 4.4640625 8.2684375 4.4640625 9.5625 4.9375 C12 6 12 6 13.3125 7.9375 C14 10 14 10 14 13 C8.81515986 13.31109041 5.28187271 13.08693149 1 10 C-0.61653773 6.06408206 -1.3580566 4.0741698 0 0 Z " fill="#009BC5" transform="translate(379,26)"/>
<path d="M0 0 C1.9375 0.1875 1.9375 0.1875 4 1 C5 2.8125 5 2.8125 6 5 C6.721875 5.61875 7.44375 6.2375 8.1875 6.875 C10 9 10 9 9.75 12.25 C9.5025 13.1575 9.255 14.065 9 15 C7.68 15 6.36 15 5 15 C4.67 13.68 4.34 12.36 4 11 C3.01 11 2.02 11 1 11 C0.67 10.01 0.34 9.02 0 8 C-0.66 7.67 -1.32 7.34 -2 7 C-1.125 1.125 -1.125 1.125 0 0 Z " fill="#009BC5" transform="translate(159,32)"/>
<path d="M0 0 C0 0.66 0 1.32 0 2 C-0.99 2.66 -1.98 3.32 -3 4 C-3 4.66 -3 5.32 -3 6 C-3.99 6.495 -3.99 6.495 -5 7 C-4.34 8.65 -3.68 10.3 -3 12 C-5.89234315 12.82638376 -7.88742431 13 -11 13 C-11.91464004 8.33533582 -12.36608693 5.23405029 -10 1 C-6.78548731 -0.60725635 -3.56387464 -0.05748185 0 0 Z " fill="#009BC5" transform="translate(502,242)"/>
<path d="M0 0 C1.485 0.99 1.485 0.99 3 2 C5.15274948 1.69159401 5.15274948 1.69159401 7 1 C7.66 2.32 8.32 3.64 9 5 C8.01 6.485 8.01 6.485 7 8 C7.99 7.67 8.98 7.34 10 7 C10 8.98 10 10.96 10 13 C9.01 13 8.02 13 7 13 C6.34 12.01 5.68 11.02 5 10 C3.68 10 2.36 10 1 10 C-0.85064319 6.87703962 -1.29356154 4.62059232 -1 1 C-0.67 0.67 -0.34 0.34 0 0 Z " fill="#009BC5" transform="translate(151,46)"/>
<path d="M0 0 C3.33333333 0 6.66666667 0 10 0 C10.33 1.65 10.66 3.3 11 5 C6.79787234 8.96200608 6.79787234 8.96200608 3.375 9.125 C0.01647316 7.53411886 -0.64294134 5.35693458 -2 2 C-1.34 1.34 -0.68 0.68 0 0 Z " fill="#009BC5" transform="translate(449,33)"/>
<path d="M0 0 C1.2065625 0.680625 1.2065625 0.680625 2.4375 1.375 C2.1075 2.365 1.7775 3.355 1.4375 4.375 C-0.9375 4.5625 -0.9375 4.5625 -3.5625 4.375 C-4.2225 3.385 -4.8825 2.395 -5.5625 1.375 C-11.02015802 -0.6545021 -11.02015802 -0.6545021 -16.5625 0.375 C-16.2325 -0.615 -15.9025 -1.605 -15.5625 -2.625 C-10.19957246 -4.41264251 -4.99735411 -2.27949486 0 0 Z " fill="#009BC5" transform="translate(148.5625,204.625)"/>
<path d="M0 0 C2.31 0.33 4.62 0.66 7 1 C6.62952882 3.74148672 6.31412056 5.58593199 4.625 7.8125 C3 9 3 9 0 9 C-1.10844919 5.67465243 -0.84454356 3.37817425 0 0 Z " fill="#009BC5" transform="translate(524,331)"/>
<path d="M0 0 C1.65 0 3.3 0 5 0 C5 4 5 4 3.25 6.25 C1 8 1 8 -3 8 C-3.33 6.02 -3.66 4.04 -4 2 C-2.68 2 -1.36 2 0 2 C0 1.34 0 0.68 0 0 Z " fill="#009BC5" transform="translate(147,33)"/>
<path d="M0 0 C2.97 0.495 2.97 0.495 6 1 C6.33 2.65 6.66 4.3 7 6 C4.525 7.485 4.525 7.485 2 9 C0.14223235 5.86501708 -0.20140476 3.62528568 0 0 Z " fill="#009BC5" transform="translate(394,34)"/>
<path d="M0 0 C0.66 0 1.32 0 2 0 C3 3 3 3 1.875 5.5 C-0.20769848 8.27693131 -1.86261672 9.54609068 -5 11 C-6.32 11 -7.64 11 -9 11 C-9 10.01 -9 9.02 -9 8 C-7.02 7.67 -5.04 7.34 -3 7 C-3 5.68 -3 4.36 -3 3 C-2.34 3 -1.68 3 -1 3 C-0.67 2.01 -0.34 1.02 0 0 Z " fill="#009BC5" transform="translate(346,34)"/>
<path d="M0 0 C2.02535744 0.51261259 4.02483064 1.12479356 6.01953125 1.74609375 C6.01953125 2.40609375 6.01953125 3.06609375 6.01953125 3.74609375 C1.89784436 5.37559787 -0.68747232 6.00873976 -4.98046875 4.74609375 C-4.98046875 2.74609375 -4.98046875 2.74609375 -3.98046875 0.99609375 C-1.98046875 -0.25390625 -1.98046875 -0.25390625 0 0 Z " fill="#009BC5" transform="translate(154.98046875,207.25390625)"/>
<path d="M0 0 C0.33 2.31 0.66 4.62 1 7 C-1.97 6.505 -1.97 6.505 -5 6 C-5 5.34 -5 4.68 -5 4 C-5.99 4 -6.98 4 -8 4 C-7.67 3.01 -7.34 2.02 -7 1 C-4.52260646 0.09162237 -2.66420516 0 0 0 Z " fill="#009BC5" transform="translate(335,40)"/>
<path d="M0 0 C2.5654594 2.5654594 2.54046087 4.47686668 3 8 C1.35 8.33 -0.3 8.66 -2 9 C-1.34 6.03 -0.68 3.06 0 0 Z " fill="#009BC5" transform="translate(339,32)"/>
<path d="M0 0 C0 2.31 0 4.62 0 7 C-0.99 7.33 -1.98 7.66 -3 8 C-3.6875 5.6875 -3.6875 5.6875 -4 3 C-1.72413793 0 -1.72413793 0 0 0 Z " fill="#009BC5" transform="translate(493,195)"/>
<path d="M0 0 C0.66 0.66 1.32 1.32 2 2 C-0.25 4.0625 -0.25 4.0625 -3 6 C-5.3125 5.75 -5.3125 5.75 -7 5 C-7 4.34 -7 3.68 -7 3 C-5.35 3 -3.7 3 -2 3 C-2 2.34 -2 1.68 -2 1 C-1.34 0.67 -0.68 0.34 0 0 Z " fill="#009BC5" transform="translate(550,251)"/>
<path d="M0 0 C0.66 0 1.32 0 2 0 C2.33 2.64 2.66 5.28 3 8 C2.01 8.33 1.02 8.66 0 9 C-0.84454356 5.62182575 -1.10844919 3.32534757 0 0 Z " fill="#009BC5" transform="translate(293,163)"/>
<path d="M0 0 C2.31 0.66 4.62 1.32 7 2 C7 2.99 7 3.98 7 5 C5.35 5 3.7 5 2 5 C2 4.34 2 3.68 2 3 C1.34 3 0.68 3 0 3 C0 2.01 0 1.02 0 0 Z " fill="#009BC5" transform="translate(458,42)"/>
<path d="M0 0 C1.98 0 3.96 0 6 0 C5.67 1.32 5.34 2.64 5 4 C3.35 3.67 1.7 3.34 0 3 C0 2.01 0 1.02 0 0 Z " fill="#009BC5" transform="translate(462,33)"/>
<path d="M0 0 C0.66 0.99 1.32 1.98 2 3 C-1.625 6 -1.625 6 -5 6 C-4.67 5.01 -4.34 4.02 -4 3 C-1.9375 2.3125 -1.9375 2.3125 0 2 C0 1.34 0 0.68 0 0 Z " fill="#009BC5" transform="translate(503,258)"/>
<path d="M0 0 C0.66 0.99 1.32 1.98 2 3 C0.68 4.32 -0.64 5.64 -2 7 C-2.125 4.625 -2.125 4.625 -2 2 C-1.34 1.34 -0.68 0.68 0 0 Z " fill="#009BC5" transform="translate(507,240)"/>
<path d="M0 0 C0.99 0 1.98 0 3 0 C2.67 1.98 2.34 3.96 2 6 C1.34 6 0.68 6 0 6 C0 4.02 0 2.04 0 0 Z " fill="#009BC5" transform="translate(67,122)"/>
<path d="M0 0 C0.99 0.33 1.98 0.66 3 1 C3.33 1.99 3.66 2.98 4 4 C3.01 4.33 2.02 4.66 1 5 C1 4.34 1 3.68 1 3 C0.34 3 -0.32 3 -1 3 C-0.67 2.01 -0.34 1.02 0 0 Z " fill="#009BC5" transform="translate(24,73)"/>
<path d="M0 0 C0 0.66 0 1.32 0 2 C-1.65 2 -3.3 2 -5 2 C-5.33 1.34 -5.66 0.68 -6 0 C-3.50907189 -1.24546405 -2.58919267 -0.7767578 0 0 Z " fill="#009BC5" transform="translate(512,250)"/>
<path d="M0 0 C1.9375 0.8125 1.9375 0.8125 4 2 C4.33 2.99 4.66 3.98 5 5 C3.0625 4.1875 3.0625 4.1875 1 3 C0.67 2.01 0.34 1.02 0 0 Z " fill="#009BC5" transform="translate(568,284)"/>
<path d="M0 0 C0.66 0 1.32 0 2 0 C1.34 1.32 0.68 2.64 0 4 C-0.99 4 -1.98 4 -3 4 C-1.625 2 -1.625 2 0 0 Z " fill="#009BC5" transform="translate(490,224)"/>
<path d="M0 0 C0.99 0.33 1.98 0.66 3 1 C3 1.66 3 2.32 3 3 C2.01 3.33 1.02 3.66 0 4 C-0.33 3.01 -0.66 2.02 -1 1 C-0.67 0.67 -0.34 0.34 0 0 Z " fill="#009BC5" transform="translate(346,90)"/>
<path d="M0 0 C2.475 0.495 2.475 0.495 5 1 C5 1.33 5 1.66 5 2 C3.35 2 1.7 2 0 2 C0 1.34 0 0.68 0 0 Z " fill="#009BC5" transform="translate(319,178)"/>
<path d="M0 0 C0.99 0 1.98 0 3 0 C2.67 0.99 2.34 1.98 2 3 C1.01 2.34 0.02 1.68 -1 1 C-0.67 0.67 -0.34 0.34 0 0 Z " fill="#009BC5" transform="translate(144,210)"/>
<path d="M0 0 C1.32 0.33 2.64 0.66 4 1 C3.01 1.66 2.02 2.32 1 3 C0.67 2.01 0.34 1.02 0 0 Z " fill="#009BC5" transform="translate(154,106)"/>
<path d="M0 0 C0.66 0 1.32 0 2 0 C1.67 0.99 1.34 1.98 1 3 C0.34 3 -0.32 3 -1 3 C-0.67 2.01 -0.34 1.02 0 0 Z " fill="#009BC5" transform="translate(12,112)"/>
<path d="M0 0 C0.66 0.66 1.32 1.32 2 2 C0.68 2.33 -0.64 2.66 -2 3 C-2 2.34 -2 1.68 -2 1 C-1.34 0.67 -0.68 0.34 0 0 Z " fill="#009BC5" transform="translate(165,104)"/>
<path d="M0 0 C0.99 0 1.98 0 3 0 C2.67 0.99 2.34 1.98 2 3 C1.34 2.67 0.68 2.34 0 2 C0 1.34 0 0.68 0 0 Z " fill="#009BC5" transform="translate(23,89)"/>
<path d="M0 0 C0.66 0.66 1.32 1.32 2 2 C1.01 2.33 0.02 2.66 -1 3 C-0.67 2.01 -0.34 1.02 0 0 Z " fill="#009BC5" transform="translate(564,260)"/>
<path d="M0 0 C0.99 0.99 1.98 1.98 3 3 C2.01 3 1.02 3 0 3 C0 2.01 0 1.02 0 0 Z " fill="#009BC5" transform="translate(554,254)"/>
<path d="M0 0 C0.99 0 1.98 0 3 0 C3 0.66 3 1.32 3 2 C2.01 2 1.02 2 0 2 C0 1.34 0 0.68 0 0 Z " fill="#009BC5" transform="translate(163,210)"/>
<path d="M0 0 C0.66 0 1.32 0 2 0 C1.67 0.99 1.34 1.98 1 3 C0.34 2.34 -0.32 1.68 -1 1 C-0.67 0.67 -0.34 0.34 0 0 Z " fill="#009BC5" transform="translate(307,128)"/>
<path d="M0 0 C0.66 0.66 1.32 1.32 2 2 C1.01 2.33 0.02 2.66 -1 3 C-0.67 2.01 -0.34 1.02 0 0 Z " fill="#009BC5" transform="translate(155,125)"/>
<path d="M0 0 C0.66 0 1.32 0 2 0 C2 0.99 2 1.98 2 3 C1.34 3 0.68 3 0 3 C0 2.01 0 1.02 0 0 Z " fill="#009BC5" transform="translate(533,94)"/>
<path d="M0 0 C0.33 1.32 0.66 2.64 1 4 C0.34 4 -0.32 4 -1 4 C-0.67 2.68 -0.34 1.36 0 0 Z " fill="#009BC5" transform="translate(153,40)"/>
<path d="M0 0 C0.66 0 1.32 0 2 0 C2 0.99 2 1.98 2 3 C1.34 3 0.68 3 0 3 C0 2.01 0 1.02 0 0 Z " fill="#009BC5" transform="translate(168,30)"/>
<path d="M0 0 C0.99 0.33 1.98 0.66 3 1 C2.01 1.33 1.02 1.66 0 2 C0 1.34 0 0.68 0 0 Z " fill="#009BC5" transform="translate(503,250)"/>
<path d="M0 0 C0 0.99 0 1.98 0 3 C-0.66 2.67 -1.32 2.34 -2 2 C-1.34 1.34 -0.68 0.68 0 0 Z " fill="#009BC5" transform="translate(526,143)"/>
<path d="M0 0 C0.33 0.99 0.66 1.98 1 3 C0.34 3 -0.32 3 -1 3 C-0.67 2.01 -0.34 1.02 0 0 Z " fill="#009BC5" transform="translate(533,126)"/>
<path d="M0 0 C0 0.99 0 1.98 0 3 C-0.66 2.67 -1.32 2.34 -2 2 C-1.34 1.34 -0.68 0.68 0 0 Z " fill="#009BC5" transform="translate(9,113)"/>
<path d="M0 0 C0.66 0 1.32 0 2 0 C1.67 0.99 1.34 1.98 1 3 C0.67 2.01 0.34 1.02 0 0 Z " fill="#009BC5" transform="translate(159,108)"/>
<path d="M0 0 C0 3 0 3 0 3 Z " fill="#009BC5" transform="translate(574,272)"/>
<path d="M0 0 C0.66 0 1.32 0 2 0 C2 0.66 2 1.32 2 2 C1.34 2 0.68 2 0 2 C0 1.34 0 0.68 0 0 Z " fill="#009BC5" transform="translate(517,255)"/>
<path d="M0 0 C0.66 0 1.32 0 2 0 C2 0.66 2 1.32 2 2 C1.34 2 0.68 2 0 2 C0 1.34 0 0.68 0 0 Z " fill="#009BC5" transform="translate(470,249)"/>
<path d="M0 0 C0.66 0 1.32 0 2 0 C2 0.66 2 1.32 2 2 C1.34 2 0.68 2 0 2 C0 1.34 0 0.68 0 0 Z " fill="#009BC5" transform="translate(452,242)"/>
<path d="M0 0 C0.66 0 1.32 0 2 0 C2 0.66 2 1.32 2 2 C1.34 2 0.68 2 0 2 C0 1.34 0 0.68 0 0 Z " fill="#009BC5" transform="translate(374,221)"/>
<path d="M0 0 C0.66 0.33 1.32 0.66 2 1 C1.01 1 0.02 1 -1 1 C-0.67 0.67 -0.34 0.34 0 0 Z " fill="#009BC5" transform="translate(169,85)"/>
<path d="M0 0 C0.66 0 1.32 0 2 0 C2 0.66 2 1.32 2 2 C1.34 2 0.68 2 0 2 C0 1.34 0 0.68 0 0 Z " fill="#009BC5" transform="translate(169,47)"/>
<path d="M0 0 C0.66 0 1.32 0 2 0 C2 0.66 2 1.32 2 2 C1.34 2 0.68 2 0 2 C0 1.34 0 0.68 0 0 Z " fill="#009BC5" transform="translate(344,43)"/>
<path d="M0 0 C0.66 0 1.32 0 2 0 C2 0.66 2 1.32 2 2 C1.34 2 0.68 2 0 2 C0 1.34 0 0.68 0 0 Z " fill="#009BC5" transform="translate(157,41)"/>
<path d="M0 0 C0.99 0.495 0.99 0.495 2 1 C1.67 1.66 1.34 2.32 1 3 C0.67 2.01 0.34 1.02 0 0 Z " fill="#009BC5" transform="translate(446,37)"/>
<path d="M0 0 C0.33 0.66 0.66 1.32 1 2 C0.34 1.67 -0.32 1.34 -1 1 C-0.67 0.67 -0.34 0.34 0 0 Z " fill="#009BC5" transform="translate(566,263)"/>
<path d="M0 0 C0.66 0.66 1.32 1.32 2 2 C1.34 2 0.68 2 0 2 C0 1.34 0 0.68 0 0 Z " fill="#009BC5" transform="translate(561,258)"/>
<path d="M0 0 C0.66 0.66 1.32 1.32 2 2 C1.34 2 0.68 2 0 2 C0 1.34 0 0.68 0 0 Z " fill="#009BC5" transform="translate(548,249)"/>
<path d="M0 0 C3 1 3 1 3 1 Z " fill="#009BC5" transform="translate(500,248)"/>
<path d="M0 0 C0.99 0.495 0.99 0.495 2 1 C1.01 1.495 1.01 1.495 0 2 C0 1.34 0 0.68 0 0 Z " fill="#009BC5" transform="translate(528,141)"/>
<path d="M0 0 C0.66 0.66 1.32 1.32 2 2 C1.34 2 0.68 2 0 2 C0 1.34 0 0.68 0 0 Z " fill="#009BC5" transform="translate(181,112)"/>
<path d="M0 0 C0.99 0.495 0.99 0.495 2 1 C1.01 1.495 1.01 1.495 0 2 C0 1.34 0 0.68 0 0 Z " fill="#009BC5" transform="translate(394,47)"/>
<path d="" fill="#009BC5" transform="translate(0,0)"/>
<path d="M0 0 C2 1 2 1 2 1 Z " fill="#009BC5" transform="translate(523,329)"/>
<path d="" fill="#009BC5" transform="translate(0,0)"/>
<path d="M0 0 C2 1 2 1 2 1 Z " fill="#009BC5" transform="translate(558,259)"/>
<path d="M0 0 C2 1 2 1 2 1 Z " fill="#009BC5" transform="translate(557,257)"/>
<path d="" fill="#009BC5" transform="translate(0,0)"/>
<path d="" fill="#009BC5" transform="translate(0,0)"/>
<path d="M0 0 C2 1 2 1 2 1 Z " fill="#009BC5" transform="translate(172,214)"/>
<path d="M0 0 C2 1 2 1 2 1 Z " fill="#009BC5" transform="translate(144,198)"/>
<path d="M0 0 C2 1 2 1 2 1 Z " fill="#009BC5" transform="translate(146,195)"/>
<path d="" fill="#009BC5" transform="translate(0,0)"/>
<path d="" fill="#009BC5" transform="translate(0,0)"/>
<path d="M0 0 C2 1 2 1 2 1 Z " fill="#009BC5" transform="translate(308,121)"/>
<path d="" fill="#009BC5" transform="translate(0,0)"/>
<path d="" fill="#009BC5" transform="translate(0,0)"/>
<path d="" fill="#009BC5" transform="translate(0,0)"/>
<path d="" fill="#009BC5" transform="translate(0,0)"/>
<path d="" fill="#009BC5" transform="translate(0,0)"/>
<path d="M0 0 C2 1 2 1 2 1 Z " fill="#009BC5" transform="translate(403,38)"/>
<path d="M0 0 C2 1 2 1 2 1 Z " fill="#009BC5" transform="translate(344,33)"/>
<path d="" fill="#009BC5" transform="translate(0,0)"/>
<path d="" fill="#009BC5" transform="translate(0,0)"/>
<path d="" fill="#009BC5" transform="translate(0,0)"/>
<path d="" fill="#009BC5" transform="translate(0,0)"/>
<path d="" fill="#009BC5" transform="translate(0,0)"/>
<path d="" fill="#009BC5" transform="translate(0,0)"/>
<path d="" fill="#009BC5" transform="translate(0,0)"/>
<path d="" fill="#009BC5" transform="translate(0,0)"/>
<path d="" fill="#009BC5" transform="translate(0,0)"/>
<path d="" fill="#009BC5" transform="translate(0,0)"/>
<path d="" fill="#009BC5" transform="translate(0,0)"/>
<path d="" fill="#009BC5" transform="translate(0,0)"/>
<path d="" fill="#009BC5" transform="translate(0,0)"/>
<path d="" fill="#009BC5" transform="translate(0,0)"/>
<path d="" fill="#009BC5" transform="translate(0,0)"/>
<path d="" fill="#009BC5" transform="translate(0,0)"/>
<path d="" fill="#009BC5" transform="translate(0,0)"/>
<path d="" fill="#009BC5" transform="translate(0,0)"/>
<path d="" fill="#009BC5" transform="translate(0,0)"/>
<path d="" fill="#009BC5" transform="translate(0,0)"/>
<path d="" fill="#009BC5" transform="translate(0,0)"/>
<path d="" fill="#009BC5" transform="translate(0,0)"/>
<path d="" fill="#009BC5" transform="translate(0,0)"/>
<path d="" fill="#009BC5" transform="translate(0,0)"/>
<path d="" fill="#009BC5" transform="translate(0,0)"/>
<path d="" fill="#009BC5" transform="translate(0,0)"/>
<path d="" fill="#009BC5" transform="translate(0,0)"/>
<path d="" fill="#009BC5" transform="translate(0,0)"/>
<path d="" fill="#009BC5" transform="translate(0,0)"/>
<path d="" fill="#009BC5" transform="translate(0,0)"/>
<path d="" fill="#009BC5" transform="translate(0,0)"/>
<path d="" fill="#009BC5" transform="translate(0,0)"/>
<path d="" fill="#009BC5" transform="translate(0,0)"/>
<path d="" fill="#009BC5" transform="translate(0,0)"/>
<path d="" fill="#009BC5" transform="translate(0,0)"/>
</svg>
